<svg width="1920" height="1080" viewBox="0 0 1920 1080" fill="none" xmlns="http://www.w3.org/2000/svg">
<g clip-path="url(#clip0_310_286)">
<rect width="1920" height="1080" fill="#5645FF"/>
<path d="M1243.02 131.163C1255.24 115.731 1279.68 119.82 1286.21 138.389L1526.11 820.61C1532.42 838.559 1517.16 856.7 1498.4 853.56L809.559 738.288C790.793 735.148 782.274 713.028 794.086 698.111L1243.02 131.163Z" fill="#FF4367"/>
<path d="M1945.02 -372.837C1957.24 -388.269 1981.68 -384.18 1988.21 -365.611L2228.11 316.61C2234.42 334.559 2219.16 352.7 2200.4 349.56L1511.56 234.288C1492.79 231.148 1484.27 209.028 1496.09 194.111L1945.02 -372.837Z" fill="#FF4367"/>
<mask id="path-3-inside-1_310_286" fill="white">
<path d="M196.807 75.35C174.431 79.4244 158.295 97.5555 157.078 120.168C155.961 139.369 166.972 157.653 184.477 165.802C190.464 168.552 194.98 169.621 201.932 169.927C211.014 170.334 217.56 169.061 225.221 165.445C230.397 163.001 229.94 165.292 229.94 140.591C229.94 120.118 229.889 118.742 229.027 117.978C228.519 117.469 227.302 117.113 226.388 117.113C224.815 117.113 223.699 118.08 214.515 127.248L204.316 137.434L200.968 133.869C198.228 130.966 197.314 130.354 195.995 130.354C193.965 130.354 192.393 131.933 192.393 133.97C192.393 135.346 193.204 136.415 197.568 140.846C204.824 148.282 204.012 148.384 214.566 137.892L222.836 129.641V144.258V158.824L221.466 159.588C218.879 160.862 213.247 162.389 208.883 162.95C201.018 163.917 193.001 162.338 185.035 158.213C181.839 156.583 179.86 155.005 175.851 150.981C171.437 146.601 170.473 145.226 168.393 141.05C167.124 138.401 165.653 134.836 165.196 133.156C164.13 129.081 163.725 120.118 164.435 115.89C167.226 99.7455 178.946 87.013 194.828 82.9386C202.236 81.0542 212.384 81.8182 220.046 84.874C221.568 85.4851 223.09 85.7398 223.851 85.536C225.526 85.1286 226.642 83.0405 226.185 81.2579C225.779 79.5772 222.532 77.9475 216.443 76.3177C211.927 75.1463 200.917 74.5861 196.807 75.35Z"/>
</mask>
<path d="M196.807 75.35C174.431 79.4244 158.295 97.5555 157.078 120.168C155.961 139.369 166.972 157.653 184.477 165.802C190.464 168.552 194.98 169.621 201.932 169.927C211.014 170.334 217.56 169.061 225.221 165.445C230.397 163.001 229.94 165.292 229.94 140.591C229.94 120.118 229.889 118.742 229.027 117.978C228.519 117.469 227.302 117.113 226.388 117.113C224.815 117.113 223.699 118.08 214.515 127.248L204.316 137.434L200.968 133.869C198.228 130.966 197.314 130.354 195.995 130.354C193.965 130.354 192.393 131.933 192.393 133.97C192.393 135.346 193.204 136.415 197.568 140.846C204.824 148.282 204.012 148.384 214.566 137.892L222.836 129.641V144.258V158.824L221.466 159.588C218.879 160.862 213.247 162.389 208.883 162.95C201.018 163.917 193.001 162.338 185.035 158.213C181.839 156.583 179.86 155.005 175.851 150.981C171.437 146.601 170.473 145.226 168.393 141.05C167.124 138.401 165.653 134.836 165.196 133.156C164.13 129.081 163.725 120.118 164.435 115.89C167.226 99.7455 178.946 87.013 194.828 82.9386C202.236 81.0542 212.384 81.8182 220.046 84.874C221.568 85.4851 223.09 85.7398 223.851 85.536C225.526 85.1286 226.642 83.0405 226.185 81.2579C225.779 79.5772 222.532 77.9475 216.443 76.3177C211.927 75.1463 200.917 74.5861 196.807 75.35Z" fill="#E0E0E0"/>
<path d="M196.807 75.35L209.417 143.188L209.292 143.211L209.168 143.234L196.807 75.35ZM157.078 120.168L225.978 123.879L225.97 124.026L225.961 124.173L157.078 120.168ZM184.477 165.802L155.676 228.503L155.516 228.43L155.358 228.356L184.477 165.802ZM201.932 169.927L204.962 100.994L204.993 100.995L205.024 100.996L201.932 169.927ZM225.221 165.445L254.691 227.835L254.681 227.84L254.671 227.845L225.221 165.445ZM229.027 117.978L183.279 169.632L181.666 168.204L180.145 166.677L229.027 117.978ZM214.515 127.248L165.755 78.427L165.762 78.4202L165.769 78.4135L214.515 127.248ZM204.316 137.434L253.076 186.254L202.736 236.532L154.024 184.675L204.316 137.434ZM200.968 133.869L251.147 86.5079L251.203 86.5676L251.26 86.6275L200.968 133.869ZM197.568 140.846L246.73 92.4304L246.842 92.5434L246.952 92.657L197.568 140.846ZM214.566 137.892L263.297 186.741L263.254 186.784L263.212 186.827L214.566 137.892ZM222.836 129.641L174.105 80.7922L291.836 -36.6555V129.641H222.836ZM222.836 158.824H291.836V199.35L256.442 219.088L222.836 158.824ZM221.466 159.588L255.072 219.852L253.522 220.716L251.929 221.5L221.466 159.588ZM208.883 162.95L217.67 231.388L217.489 231.411L217.309 231.433L208.883 162.95ZM185.035 158.213L216.376 96.7415L216.571 96.8409L216.765 96.9415L185.035 158.213ZM175.851 150.981L224.451 102L224.592 102.141L224.733 102.282L175.851 150.981ZM168.393 141.05L106.631 171.815L106.393 171.338L106.163 170.856L168.393 141.05ZM165.196 133.156L98.6101 151.248L98.5241 150.931L98.441 150.613L165.196 133.156ZM164.435 115.89L96.389 104.456L96.4157 104.297L96.4432 104.138L164.435 115.89ZM194.828 82.9386L177.681 16.103L177.75 16.0855L177.818 16.0682L194.828 82.9386ZM220.046 84.874L245.608 20.7835L245.681 20.8128L245.754 20.8422L220.046 84.874ZM223.851 85.536L206.01 18.8824L206.772 18.6787L207.537 18.4924L223.851 85.536ZM226.185 81.2579L159.344 98.3815L159.226 97.9201L159.114 97.457L226.185 81.2579ZM216.443 76.3177L233.768 9.52814L234.026 9.59513L234.284 9.66412L216.443 76.3177ZM209.168 143.234C213.064 142.524 217.287 140.357 220.616 136.607C223.961 132.837 225.745 128.197 225.978 123.879L88.1775 116.458C91.1358 61.5245 131.056 17.1879 184.446 7.46622L209.168 143.234ZM225.961 124.173C226.503 114.848 221.476 106.915 213.597 103.247L155.358 228.356C112.468 208.391 85.4192 163.89 88.1939 116.164L225.961 124.173ZM213.279 103.1C213.332 103.125 212.864 102.907 212.006 102.6C211.103 102.277 209.984 101.932 208.72 101.633C206.077 101.008 204.417 100.97 204.962 100.994L198.901 238.86C183.519 238.184 170.197 235.173 155.676 228.503L213.279 103.1ZM205.024 100.996C205.518 101.019 203.828 100.906 201.04 101.444C198.137 102.004 196.18 102.853 195.771 103.046L254.671 227.845C236.221 236.552 218.417 239.736 198.839 238.858L205.024 100.996ZM195.751 103.055C196.91 102.508 197.871 102.083 198.354 101.871C199.142 101.525 198.632 101.749 198.35 101.877C197.934 102.066 192.633 104.376 186.684 108.848C179.539 114.218 173.033 121.406 168.247 130.286C163.984 138.197 162.375 145.093 161.721 148.556C161.069 152.007 160.94 154.443 160.926 154.697C160.901 155.136 160.921 155 160.935 153.755C160.967 150.981 160.94 147.496 160.94 140.591H298.94C298.94 146.037 298.97 151.529 298.926 155.348C298.896 157.928 298.881 165.922 297.322 174.173C296.402 179.046 294.445 187.005 289.73 195.754C284.492 205.473 277.43 213.275 269.6 219.16C262.966 224.147 256.852 226.872 255.47 227.5C254.968 227.729 254.543 227.916 254.314 228.017C254.195 228.069 254.083 228.118 254.024 228.144C253.95 228.177 253.922 228.189 253.9 228.198C253.821 228.233 254.18 228.077 254.691 227.835L195.751 103.055ZM160.94 140.591C160.94 135.442 160.937 131.723 160.92 128.945C160.912 127.57 160.901 126.548 160.888 125.785C160.882 125.409 160.876 125.132 160.871 124.934C160.865 124.734 160.862 124.652 160.862 124.665C160.863 124.673 160.869 124.837 160.887 125.121C160.904 125.399 160.938 125.895 161 126.554C161.099 127.605 161.394 130.474 162.24 134.205C163.106 138.03 164.941 144.558 169.033 151.905C173.593 160.091 179.035 165.874 183.279 169.632L274.775 66.3245C279.234 70.2739 284.866 76.2666 289.594 84.7544C293.854 92.4027 295.834 99.3236 296.827 103.705C298.49 111.044 298.689 117.58 298.751 119.123C298.943 123.884 298.94 131.175 298.94 140.591H160.94ZM180.145 166.677C186.48 173.036 192.7 176.747 196.418 178.701C200.467 180.83 204.124 182.214 207.011 183.129C212.335 184.817 218.851 186.113 226.388 186.113V48.1126C234.839 48.1126 242.42 49.5864 248.708 51.5797C253.349 53.0508 266.15 57.4768 277.908 69.2794L180.145 166.677ZM226.388 186.113C229.899 186.113 234.93 185.831 240.818 184.519C246.703 183.207 251.772 181.239 255.944 179.16C263.155 175.565 267.708 171.561 268.138 171.193C269.067 170.399 269.307 170.118 268.097 171.293C267.055 172.306 265.568 173.78 263.262 176.082L165.769 78.4135C169.468 74.7206 174.317 69.8448 178.473 66.2918C180.528 64.5361 186.228 59.717 194.378 55.6542C205.387 50.1665 216.461 48.1126 226.388 48.1126V186.113ZM263.275 176.068L253.076 186.254L155.556 88.613L165.755 78.427L263.275 176.068ZM154.024 184.675L150.676 181.11L251.26 86.6275L254.608 90.1926L154.024 184.675ZM150.788 181.229C150.467 180.889 150.904 181.37 151.773 182.193C152.551 182.93 154.871 185.091 158.346 187.526C162.09 190.15 167.845 193.576 175.499 196.078C183.456 198.68 190.61 199.354 195.995 199.354V61.3544C211.808 61.3544 226.043 66.4534 237.551 74.5196C244.785 79.5893 250.095 85.3935 251.147 86.5079L150.788 181.229ZM195.995 199.354C232.316 199.354 261.393 169.797 261.393 133.97H123.393C123.393 94.0692 155.615 61.3544 195.995 61.3544V199.354ZM261.393 133.97C261.393 126.538 260.121 118.099 256.705 109.507C253.739 102.048 250.117 96.949 248.449 94.736C247.525 93.5101 246.766 92.6056 246.337 92.1061C245.897 91.5943 245.602 91.2747 245.546 91.2142C245.494 91.1588 245.763 91.4478 246.73 92.4304L148.406 189.262C146.98 187.814 142.248 183.109 138.239 177.789C131.985 169.49 123.393 154.582 123.393 133.97H261.393ZM246.952 92.657C251.247 97.0585 248.169 93.7397 245.022 91.2107C240.092 87.249 220.838 73.2082 192.856 78.1387C181.629 80.1171 173.651 84.5138 169.643 87.0428C165.689 89.5376 163.163 91.7877 162.688 92.2085C162.282 92.5692 162.017 92.8377 165.92 88.9575L263.212 186.827C261.838 188.192 257.717 192.382 254.268 195.442C252.863 196.688 238.866 210.157 216.804 214.045C186.799 219.332 165.728 204.527 158.58 198.783C154.999 195.905 152.247 193.165 151.12 192.036C150.078 190.992 148.441 189.298 148.184 189.035L246.952 92.657ZM165.834 89.0429L174.105 80.7922L271.568 178.491L263.297 186.741L165.834 89.0429ZM291.836 129.641V144.258H153.836V129.641H291.836ZM291.836 144.258V158.824H153.836V144.258H291.836ZM256.442 219.088L255.072 219.852L187.861 99.3248L189.231 98.5608L256.442 219.088ZM251.929 221.5C240.224 227.259 226.517 230.252 217.67 231.388L200.096 94.5114C199.202 94.6262 198.665 94.7328 198.492 94.7682C198.287 94.8101 198.13 94.8478 197.953 94.8952C197.808 94.9341 197.329 95.0653 196.53 95.3407C196.116 95.4836 195.472 95.7146 194.648 96.0457C193.865 96.3602 192.592 96.8954 191.004 97.6768L251.929 221.5ZM217.309 231.433C193.972 234.305 172.044 229.189 153.305 219.485L216.765 96.9415C213.959 95.4882 208.065 93.53 200.457 94.4661L217.309 231.433ZM153.695 219.685C141.186 213.308 133.253 205.987 126.97 199.68L224.733 102.282C226.217 103.771 225.397 102.833 223.498 101.334C222.383 100.453 221.077 99.5161 219.627 98.6012C218.212 97.7087 217.054 97.0873 216.376 96.7415L153.695 219.685ZM127.252 199.962C124.776 197.505 120.264 193.001 115.913 187.16C111.083 180.677 108.129 174.822 106.631 171.815L230.154 110.284C230.737 111.454 229.304 108.375 226.58 104.718C225.361 103.081 224.36 101.958 223.947 101.508C223.626 101.158 223.642 101.198 224.451 102L127.252 199.962ZM106.163 170.856C104.53 167.448 100.782 159.24 98.6101 151.248L231.782 115.064C231.443 113.816 231.143 112.874 230.977 112.367C230.796 111.817 230.653 111.415 230.574 111.196C230.422 110.778 230.35 110.608 230.391 110.709C230.42 110.78 230.477 110.916 230.548 111.075C230.621 111.241 230.652 111.305 230.623 111.243L106.163 170.856ZM98.441 150.613C96.0548 141.489 95.4327 132.481 95.2177 127.647C95.0013 122.785 94.8248 113.763 96.389 104.456L232.481 127.325C232.79 125.486 232.923 124.11 232.982 123.409C233.045 122.645 233.066 122.12 233.073 121.878C233.086 121.431 233.074 121.342 233.081 121.513C233.089 121.685 233.094 121.593 233.04 121.146C233.011 120.904 232.944 120.378 232.811 119.614C232.69 118.917 232.431 117.535 231.951 115.698L98.441 150.613ZM96.4432 104.138C103.849 61.2945 135.416 26.9461 177.681 16.103L211.975 149.774C222.477 147.08 230.602 138.197 232.427 127.643L96.4432 104.138ZM177.818 16.0682C200.365 10.3328 225.408 12.7269 245.608 20.7835L194.484 148.964C198.082 150.4 200.624 150.742 202.091 150.854C203.418 150.955 206.768 151.099 211.838 149.809L177.818 16.0682ZM245.754 20.8422C242.481 19.5279 238.551 18.3042 233.935 17.5099C231.601 17.1084 228.329 16.6844 224.354 16.615C220.815 16.5532 214.129 16.7093 206.01 18.8824L241.692 152.19C226.77 156.184 214.342 154.167 210.533 153.511C204.585 152.488 199.133 150.831 194.337 148.906L245.754 20.8422ZM207.537 18.4924C185.307 23.9017 171.781 38.808 165.154 51.0349C158.417 63.4663 154.706 80.2772 159.344 98.3815L293.027 64.1343C298.121 84.0212 294.081 102.767 286.481 116.79C278.992 130.609 264.07 146.763 240.165 152.58L207.537 18.4924ZM159.114 97.457C163.375 115.102 173.393 126.032 178.967 131.092C184.721 136.316 189.965 139.159 192.302 140.341C196.948 142.691 199.933 143.328 198.602 142.971L234.284 9.66412C239.042 10.9376 246.695 13.2043 254.588 17.1966C258.549 19.2001 265.062 22.8669 271.729 28.9201C278.216 34.8097 288.792 46.5731 293.257 65.0589L159.114 97.457ZM199.118 143.107C201.022 143.601 202.392 143.845 202.915 143.934C203.534 144.039 203.887 144.081 203.923 144.085C203.964 144.09 203.617 144.051 203.037 144.023C202.439 143.993 202.213 144.004 202.476 143.998C202.621 143.995 203.183 143.981 204.075 143.91C204.809 143.852 206.759 143.682 209.417 143.188L184.197 7.51203C194.863 5.52946 205.692 5.98351 209.909 6.19372C214.795 6.43731 224.44 7.10852 233.768 9.52814L199.118 143.107Z" fill="#E0E0E0" mask="url(#path-3-inside-1_310_286)"/>
<mask id="path-5-inside-2_310_286" fill="white">
<path d="M232.73 87.5224C231.918 88.0317 225.17 94.6016 217.813 102.037L204.417 115.636L194.168 105.399C185.289 96.537 183.766 95.2128 182.396 95.2128C181.28 95.2128 180.468 95.6202 179.758 96.537C178.692 97.8612 178.692 98.4214 178.692 120.932C178.692 143.444 178.692 144.004 179.758 145.328C181.077 147.009 183.665 147.161 185.086 145.583C185.999 144.564 186.05 143.393 186.202 126.127L186.354 107.742L194.675 116.094C201.88 123.326 203.2 124.396 204.57 124.396C205.99 124.396 207.817 122.766 220.553 109.982L234.963 95.5184L236.13 96.9444C239.58 101.223 242.269 106.774 244.045 113.293C245.314 117.979 245.162 127.961 243.741 133.054C242.523 137.281 239.986 142.73 237.855 145.583C235.42 148.893 236.587 152.254 240.138 152.254C242.016 152.254 244.045 149.708 246.937 143.851C254.65 128.165 253.483 110.288 243.893 96.0277C240.088 90.3745 236.384 86.5547 234.658 86.5547C234.455 86.5547 233.593 87.0131 232.73 87.5224Z"/>
</mask>
<path d="M232.73 87.5224C231.918 88.0317 225.17 94.6016 217.813 102.037L204.417 115.636L194.168 105.399C185.289 96.537 183.766 95.2128 182.396 95.2128C181.28 95.2128 180.468 95.6202 179.758 96.537C178.692 97.8612 178.692 98.4214 178.692 120.932C178.692 143.444 178.692 144.004 179.758 145.328C181.077 147.009 183.665 147.161 185.086 145.583C185.999 144.564 186.05 143.393 186.202 126.127L186.354 107.742L194.675 116.094C201.88 123.326 203.2 124.396 204.57 124.396C205.99 124.396 207.817 122.766 220.553 109.982L234.963 95.5184L236.13 96.9444C239.58 101.223 242.269 106.774 244.045 113.293C245.314 117.979 245.162 127.961 243.741 133.054C242.523 137.281 239.986 142.73 237.855 145.583C235.42 148.893 236.587 152.254 240.138 152.254C242.016 152.254 244.045 149.708 246.937 143.851C254.65 128.165 253.483 110.288 243.893 96.0277C240.088 90.3745 236.384 86.5547 234.658 86.5547C234.455 86.5547 233.593 87.0131 232.73 87.5224Z" fill="#E0E0E0"/>
<path d="M232.73 87.5224L196.062 29.0721L196.849 28.5785L197.649 28.1062L232.73 87.5224ZM217.813 102.037L168.657 53.6153L168.71 53.5609L168.764 53.5067L217.813 102.037ZM204.417 115.636L253.573 164.058L204.816 213.555L155.657 164.456L204.417 115.636ZM194.168 105.399L242.91 56.5599L242.919 56.5693L242.929 56.5786L194.168 105.399ZM179.758 96.537L234.3 138.8L233.912 139.301L233.515 139.794L179.758 96.537ZM179.758 145.328L233.515 102.071L233.777 102.396L234.034 102.724L179.758 145.328ZM185.086 145.583L236.459 191.646L236.418 191.691L236.377 191.737L185.086 145.583ZM186.202 126.127L255.2 126.699L255.199 126.717L255.199 126.736L186.202 126.127ZM186.354 107.742L117.356 107.17L118.723 -57.9066L235.236 59.0426L186.354 107.742ZM194.675 116.094L145.794 164.793L145.794 164.793L194.675 116.094ZM220.553 109.982L171.671 61.2835L171.671 61.2835L220.553 109.982ZM234.963 95.5184L186.081 46.8194L239.989 -7.2899L288.361 51.8192L234.963 95.5184ZM236.13 96.9444L289.528 53.2452L289.684 53.436L289.839 53.6279L236.13 96.9444ZM244.045 113.293L310.619 95.1571L310.634 95.2096L310.648 95.262L244.045 113.293ZM243.741 133.054L310.203 151.594L310.125 151.874L310.044 152.154L243.741 133.054ZM237.855 145.583L182.276 104.693L182.428 104.487L182.581 104.282L237.855 145.583ZM246.937 143.851L308.858 174.295L308.832 174.348L308.806 174.402L246.937 143.851ZM243.893 96.0277L301.133 57.4967L301.142 57.51L301.15 57.5233L243.893 96.0277ZM269.399 145.973C270.596 145.221 271.572 144.557 272.264 144.073C272.976 143.574 273.573 143.135 274.03 142.793C274.92 142.126 275.616 141.568 276.041 141.223C276.874 140.545 277.472 140.023 277.69 139.832C278.154 139.424 278.361 139.225 278.153 139.42C277.804 139.745 277.048 140.464 275.849 141.631C273.516 143.901 270.305 147.088 266.861 150.568L168.764 53.5067C172.678 49.5509 176.519 45.7349 179.603 42.7337C181.112 41.2649 182.656 39.7812 184.03 38.4994C184.684 37.8899 185.608 37.0366 186.626 36.1427C187.12 35.7088 187.954 34.9857 188.979 34.152C189.415 33.7974 192.222 31.4812 196.062 29.0721L269.399 145.973ZM266.969 150.46L253.573 164.058L155.262 67.2136L168.657 53.6153L266.969 150.46ZM155.657 164.456L145.407 154.219L242.929 56.5786L253.178 66.8156L155.657 164.456ZM145.426 154.238C140.351 149.172 139.7 148.626 140.301 149.147C140.486 149.307 144.218 152.642 150.132 155.917C153.519 157.793 158.266 160.025 164.231 161.705C170.487 163.466 176.631 164.213 182.396 164.213V26.2128C211.33 26.2128 229.657 43.9745 230.631 44.8184C234.556 48.2166 239.106 52.7635 242.91 56.5599L145.426 154.238ZM182.396 164.213C190.541 164.213 201.028 162.644 211.875 157.2C222.586 151.825 229.809 144.596 234.3 138.8L125.216 54.2738C130.417 47.5614 138.401 39.6704 149.975 33.8619C161.685 27.9851 173.135 26.2128 182.396 26.2128V164.213ZM233.515 139.794C234.01 139.179 237.005 135.512 239.911 130.211C243.003 124.571 244.881 119.211 246.022 114.714C247.045 110.684 247.426 107.526 247.572 106.141C247.655 105.347 247.702 104.737 247.726 104.377C247.751 104.011 247.761 103.781 247.763 103.733C247.765 103.675 247.753 103.958 247.74 104.789C247.727 105.589 247.716 106.675 247.708 108.165C247.693 111.184 247.692 115.228 247.692 120.932H109.692C109.692 110.751 109.674 102.87 109.888 97.8462C109.966 96.0258 110.206 88.871 112.262 80.7699C115.659 67.381 121.991 58.2631 126.001 53.2799L233.515 139.794ZM247.692 120.932C247.692 126.637 247.693 130.681 247.708 133.7C247.716 135.19 247.727 136.276 247.74 137.076C247.753 137.907 247.765 138.19 247.763 138.132C247.761 138.084 247.751 137.854 247.726 137.488C247.702 137.128 247.655 136.517 247.572 135.724C247.426 134.339 247.045 131.18 246.022 127.151C244.881 122.654 243.003 117.294 239.911 111.653C237.005 106.352 234.01 102.686 233.515 102.071L126.001 188.585C121.991 183.602 115.659 174.484 112.262 161.095C110.206 152.994 109.966 145.839 109.888 144.019C109.674 138.995 109.692 131.114 109.692 120.932H247.692ZM234.034 102.724C210.482 72.7194 162.723 67.2799 133.795 99.4282L236.377 191.737C204.607 227.043 151.672 221.298 125.481 187.932L234.034 102.724ZM133.713 99.5195C131.542 101.94 128.061 106.174 124.823 112.106C121.673 117.877 119.881 123.178 118.833 127.222C117.857 130.986 117.452 133.959 117.284 135.371C117.106 136.868 117.049 137.885 117.039 138.05C117.027 138.269 117.061 137.678 117.1 135.215C117.136 132.946 117.166 129.883 117.205 125.519L255.199 126.736C255.132 134.37 255.083 141.17 254.819 145.845C254.716 147.667 254.382 154.276 252.415 161.86C249.341 173.715 243.583 183.7 236.459 191.646L133.713 99.5195ZM117.204 125.556L117.356 107.17L255.352 108.313L255.2 126.699L117.204 125.556ZM235.236 59.0426L243.557 67.3951L145.794 164.793L137.473 156.441L235.236 59.0426ZM243.557 67.3951C247.818 71.6723 247.568 71.2735 246.057 70.0113C245.235 69.3238 240.911 65.6787 234.18 62.3319C230.406 60.4552 225.687 58.5659 220.103 57.2299C214.402 55.8656 209.126 55.3957 204.57 55.3957V193.396C178.37 193.396 161.553 179.236 157.564 175.903C153.25 172.298 148.738 167.748 145.794 164.793L243.557 67.3951ZM204.57 55.3957C197.53 55.3957 190.409 56.5034 183.527 58.7737C177.205 60.859 172.469 63.4724 169.583 65.2571C166.729 67.022 164.711 68.5889 163.79 69.3251C162.799 70.1178 162.195 70.664 162.137 70.716C162.096 70.753 162.694 70.2077 164.515 68.4182C166.222 66.7399 168.506 64.4603 171.671 61.2835L269.434 158.682C263.59 164.548 258.432 169.707 254.499 173.25C252.827 174.756 248.273 178.85 242.168 182.625C234.333 187.471 221.44 193.396 204.57 193.396V55.3957ZM171.671 61.2835L186.081 46.8194L283.844 144.217L269.434 158.682L171.671 61.2835ZM288.361 51.8192L289.528 53.2452L182.732 140.644L181.565 139.218L288.361 51.8192ZM289.839 53.6279C300.467 66.8054 306.894 81.4836 310.619 95.1571L177.471 131.429C177.644 132.064 178.694 135.64 182.421 140.261L289.839 53.6279ZM310.648 95.262C313.798 106.9 313.984 118.156 313.893 124.08C313.796 130.422 313.193 140.877 310.203 151.594L177.278 114.514C176.306 117.999 176.047 120.337 175.999 120.757C175.918 121.482 175.911 121.848 175.91 121.961C175.908 122.061 175.9 122.537 175.979 123.469C176.021 123.959 176.106 124.806 176.285 125.948C176.452 127.018 176.787 128.903 177.443 131.324L310.648 95.262ZM310.044 152.154C307.152 162.194 301.451 175.746 293.129 186.883L182.581 104.282C180.911 106.516 179.918 108.212 179.533 108.89C179.072 109.7 178.798 110.261 178.658 110.561C178.508 110.879 178.365 111.212 178.208 111.618C178.066 111.989 177.778 112.769 177.437 113.953L310.044 152.154ZM293.434 186.472C300.895 176.331 311.202 154.477 302.001 127.721C291.128 96.1041 262.147 83.2544 240.138 83.2544V221.254C214.578 221.254 183.237 206.724 171.502 172.599C161.438 143.334 172.379 118.145 182.276 104.693L293.434 186.472ZM240.138 83.2544C224.111 83.2544 211.563 88.8971 203.53 94.2087C196.058 99.1492 191.484 104.407 189.442 106.94C185.622 111.678 184.154 115.155 185.069 113.3L308.806 174.402C306.829 178.404 302.9 186.082 296.872 193.558C292.755 198.665 273.954 221.254 240.138 221.254V83.2544ZM185.017 113.407C181.999 119.545 182.237 127.991 186.636 134.532L301.15 57.5233C324.729 92.5853 327.301 136.784 308.858 174.295L185.017 113.407ZM186.654 134.559C186.253 133.964 186.933 135.123 189.051 137.299C189.992 138.265 192.764 141.046 197.202 144.097C199.468 145.655 203.33 148.092 208.58 150.306C213.499 152.381 222.659 155.555 234.658 155.555V17.5547C256.985 17.5547 272.225 28.2086 275.386 30.3823C281.123 34.3264 285.382 38.4161 287.94 41.0438C293.292 46.5427 297.728 52.4383 301.133 57.4967L186.654 134.559ZM234.658 155.555C240.651 155.555 245.382 154.764 247.946 154.259C250.769 153.703 253.045 153.07 254.542 152.616C257.47 151.73 259.706 150.835 260.811 150.377C263.098 149.429 264.771 148.58 265.339 148.29C266.691 147.6 267.571 147.081 267.812 146.939L197.649 28.1062C198.752 27.4546 200.495 26.452 202.544 25.4048C203.461 24.9364 205.441 23.9419 207.975 22.892C209.203 22.3829 211.546 21.4475 214.563 20.5344C216.184 20.0437 224.153 17.5547 234.658 17.5547V155.555Z" fill="#E0E0E0" mask="url(#path-5-inside-2_310_286)"/>
<path d="M-4.41444 1811.26C228.421 1893.6 484.953 1768.69 568.565 1532.27C652.177 1295.85 531.207 1037.44 298.371 955.097C65.5358 872.753 -190.996 997.658 -274.608 1234.08C-358.22 1470.5 -237.25 1728.91 -4.41444 1811.26Z" stroke="#FF4367" stroke-width="136" stroke-miterlimit="10"/>
<path d="M-102.414 138.256C130.421 220.6 386.953 95.6946 470.565 -140.727C554.177 -377.149 433.207 -635.56 200.371 -717.903C-32.4642 -800.247 -288.996 -675.342 -372.608 -438.92C-456.22 -202.499 -335.25 55.912 -102.414 138.256Z" stroke="#FF4367" stroke-width="136" stroke-miterlimit="10"/>
</g>
<defs>
<clipPath id="clip0_310_286">
<rect width="1920" height="1080" fill="white"/>
</clipPath>
</defs>
</svg>
