<svg width="929" height="374" viewBox="0 0 929 374" fill="none" xmlns="http://www.w3.org/2000/svg">
<path d="M271.675 137.269V169.983H190.789L186.765 137.269L185.342 125.819L175.021 41.1869C175.021 39.9274 174.776 39.175 173.761 39.175C173.009 39.175 172.518 39.6821 172.273 40.6799L148.85 124.117L140.9 152.301C137.4 165.059 127.389 171.324 115.367 171.324C103.917 171.324 93.1046 165.305 90.0949 153.053L58.8855 40.6799C58.6238 39.4367 58.1331 39.175 57.626 39.175C57.119 39.175 56.1212 39.6821 56.1212 40.9252L37.0325 173.385H0L22.7691 28.4121C25.7788 10.8936 38.0466 1.6355 55.058 1.6355C70.0738 1.6355 82.865 8.17833 86.8398 24.4046L115.121 129.532C115.121 130.268 115.367 130.268 115.367 130.268C115.628 130.268 115.874 130.268 115.874 129.532L143.681 25.157C147.901 8.89805 160.921 1.6355 176.182 1.6355C176.869 1.6355 177.54 1.6355 178.194 1.6355C179.127 1.6355 180.092 1.55371 181.073 1.55371H270.17V34.3497H208.226L213.28 69.3866H264.985V102.101H218.007L223.045 137.138L271.675 137.269Z" fill="white"/>
<path d="M374.576 140.409C346.295 140.409 326.274 118.131 326.274 87.5922C326.274 57.0535 346.606 34.7915 374.576 34.7915C394.859 34.7915 407.863 44.0497 416.123 58.5584L445.91 41.7924C433.462 15.5229 405.41 0 376.212 0C327.141 0 288.865 38.799 288.865 87.5922C288.865 136.385 327.141 175.184 376.212 175.184C405.491 175.184 433.462 159.678 446.041 133.392L416.172 116.626C408.419 131.135 394.908 140.409 374.576 140.409Z" fill="white"/>
<path d="M471.986 3.27148V171.75H508.528V3.27148H471.986Z" fill="white"/>
<path d="M651.159 27.0383C645.417 8.7674 630.385 0 614.371 0C598.358 0 583.587 8.7674 577.846 27.0383L533.24 171.749H570.534L580.349 137.4L648.656 137.154L658.47 171.684H695.764L651.159 27.0383ZM589.852 104.685L609.121 37.8667C610.119 34.3499 611.869 32.7142 614.633 32.7142C617.397 32.7142 619.131 34.219 620.129 37.7358L639.152 104.685H589.852Z" fill="white"/>
<path d="M221.443 201.192V269.009H144.565V201.192H108.072V369.67H144.614V302.606H221.492V369.67H258.034V201.192H221.443Z" fill="white"/>
<path d="M400.878 224.959C395.121 206.688 380.105 197.921 364.091 197.921C348.078 197.921 333.307 206.688 327.55 224.959L282.977 369.67H320.271L330.085 335.32L398.409 335.075L408.223 369.605H445.517L400.878 224.959ZM339.556 302.606L358.824 235.788C359.822 232.271 361.589 230.766 364.337 230.766C367.085 230.766 368.835 232.271 369.833 235.788L388.856 302.606H339.556Z" fill="white"/>
<path d="M540.767 338.33C512.486 338.33 492.465 316.052 492.465 285.513C492.465 254.974 512.747 232.712 540.767 232.712C561.05 232.712 574.054 241.971 582.314 256.479L612.1 239.713C599.587 213.444 571.551 197.921 542.272 197.921C493.201 197.921 454.941 236.72 454.941 285.513C454.941 334.306 493.217 373.105 542.272 373.105C571.551 373.105 599.522 357.599 612.1 331.313L582.314 314.547C574.561 329.056 561.05 338.33 540.767 338.33Z" fill="white"/>
<path d="M739.731 305.78C732.976 296.783 729.459 290.78 729.459 284.515C729.459 278.251 732.976 272.002 739.731 262.989L787.772 201.192H746.241L705.447 252.995C701.676 257.91 698.559 263.293 696.172 269.009H674.663V201.192H638.121V369.67H674.663V302.606H696.434C698.667 308.267 701.702 313.578 705.447 318.375L744.475 369.67H789.277L739.731 305.78Z" fill="white"/>
<path d="M870.964 268.992C852.693 265.721 838.675 262.236 838.675 248.726C838.675 238.47 848.195 231.96 861.951 231.96C878.963 231.96 889.987 239.467 895.483 250.23L926.022 234.969C915.259 210.941 891.231 198.182 863.456 198.182C828.665 198.182 802.133 220.689 802.133 250.23C802.133 288.261 836.483 297.273 861.706 301.526C879.224 304.536 892.49 306.793 892.49 320.811C892.49 332.817 880.468 339.327 864.683 339.327C847.165 339.327 835.404 333.063 829.908 320.811L799.369 336.072C810.132 360.101 834.406 372.86 864.683 372.86C900.472 372.86 928.999 350.827 928.999 320.517C929.081 282.258 895.99 273.261 870.964 268.992Z" fill="white"/>
</svg>
