<svg width="64" height="62" viewBox="0 0 64 62" fill="none" xmlns="http://www.w3.org/2000/svg">
<path d="M56.9257 39.0236C56.511 38.8908 56.0595 38.9148 55.6623 39.0908C55.2652 39.2669 54.9518 39.5818 54.7853 39.9722C54.4185 40.8422 53.9984 41.6903 53.5273 42.512C53.2049 43.074 52.8618 43.6187 52.4981 44.1464C50.2107 47.4588 47.0971 50.1614 43.4443 52.0051C43.3342 52.0601 43.2096 52.0822 43.0865 52.0685C42.9633 52.0548 42.8472 52.006 42.7529 51.9282C42.6587 51.8504 42.5906 51.7472 42.5573 51.6318C42.5241 51.5164 42.5272 51.3941 42.5662 51.2804L47.8474 36.0095L51.7122 24.839C51.7889 24.6172 51.8197 24.3829 51.8027 24.1496C51.7857 23.9163 51.7213 23.6885 51.6131 23.4792C51.505 23.27 51.3552 23.0833 51.1724 22.93C50.9896 22.7767 50.7774 22.6597 50.5477 22.5857L45.6538 21.0056C45.4242 20.9315 45.1817 20.9018 44.9403 20.9182C44.6988 20.9346 44.4631 20.9969 44.2466 21.1014C44.03 21.2059 43.8369 21.3506 43.6782 21.5272C43.5196 21.7039 43.3985 21.909 43.3219 22.1309L41.4507 27.5277C41.3741 27.7495 41.253 27.9547 41.0944 28.1313C40.9357 28.308 40.7426 28.4527 40.526 28.5572C40.3095 28.6617 40.0738 28.7239 39.8323 28.7403C39.5909 28.7568 39.3484 28.7271 39.1188 28.6529L33.4951 26.835L27.7907 24.9934C27.5612 24.9193 27.3491 24.8022 27.1665 24.6488C26.9838 24.4954 26.8342 24.3088 26.7262 24.0995C26.6182 23.8903 26.5539 23.6625 26.537 23.4293C26.5201 23.196 26.5509 22.9619 26.6277 22.7401L31.5389 8.54161C31.6657 8.17252 31.9143 7.85384 32.2467 7.63449C32.579 7.41513 32.9766 7.30723 33.3785 7.32733C34.9671 7.41061 36.5436 7.64353 38.0854 8.02279C38.5391 8.13632 39.0206 8.07875 39.432 7.86176C39.8434 7.64476 40.154 7.28461 40.3006 6.85442L41.5558 3.18239C41.6283 2.96718 41.6548 2.73995 41.6336 2.51454C41.6124 2.28914 41.5439 2.07025 41.4325 1.87119C41.321 1.67213 41.1688 1.49706 40.9851 1.35663C40.8014 1.21619 40.5901 1.11333 40.3639 1.05428C33.5253 -0.715176 26.2728 -0.247634 19.738 2.38397C13.2032 5.01557 7.75352 9.66324 4.23915 15.6019C3.95127 16.0962 3.67251 16.6006 3.40286 17.1152C2.72399 18.4291 2.14199 19.7877 1.66117 21.1809C1.64534 21.2296 1.62807 21.2769 1.61223 21.32C1.15826 22.6545 0.797601 24.0169 0.53268 25.3982C0.414648 26.0213 0.315809 26.6444 0.236162 27.2676C-0.100367 29.9237 -0.0771409 32.6109 0.305253 35.2612C1.16041 41.1518 3.74327 46.6827 7.74842 51.1997C11.5205 55.4503 16.418 58.6294 21.9165 60.3965L22.0604 60.4438C29.0563 62.6712 36.6325 62.5031 43.5152 59.9678C50.3979 57.4324 56.1674 52.6844 59.8535 46.5221C60.1788 45.9777 60.4878 45.4214 60.7805 44.853C61.1777 44.0805 61.5438 43.2882 61.8787 42.4759C61.965 42.2652 62.006 42.0398 61.9993 41.8134C61.9925 41.587 61.9381 41.3642 61.8394 41.1587C61.7407 40.9533 61.5997 40.7694 61.4251 40.6182C61.2505 40.4671 61.0458 40.3519 60.8237 40.2796L56.9257 39.0236ZM32.4875 53.4502C32.3602 53.8209 32.11 54.1406 31.7756 54.3599C31.4412 54.5792 31.0413 54.6857 30.6379 54.6631C28.525 54.541 26.4373 54.1553 24.4268 53.5156L24.3146 53.4794C19.2056 51.8305 14.7998 48.6034 11.7767 44.2955C8.75352 39.9877 7.28086 34.8385 7.58577 29.6419C7.6232 29.0085 7.68797 28.3743 7.78009 27.7391C7.98431 26.3323 8.31863 24.946 8.77904 23.5969C8.79055 23.5608 8.80351 23.5246 8.81646 23.4884C9.29758 22.0918 9.91197 20.7415 10.6517 19.4548C10.9396 18.9466 11.2495 18.4519 11.5816 17.9706C13.1745 15.6284 15.1866 13.5791 17.5234 11.9188C18.6145 11.1425 19.77 10.4545 20.978 9.86159C21.0816 9.8109 21.1985 9.79105 21.3138 9.80452C21.4291 9.818 21.5376 9.86421 21.6258 9.9373C21.7139 10.0104 21.7776 10.1071 21.8088 10.2152C21.8401 10.3233 21.8375 10.4379 21.8013 10.5445L16.4511 26.0338L12.5416 37.3364C12.4649 37.5583 12.4342 37.7925 12.4512 38.0259C12.4682 38.2592 12.5326 38.487 12.6407 38.6962C12.7489 38.9055 12.8986 39.0921 13.0814 39.2454C13.2642 39.3987 13.4765 39.5157 13.7061 39.5897L18.3453 41.0877C18.5751 41.1616 18.8176 41.1909 19.0592 41.1741C19.3007 41.1573 19.5364 41.0947 19.7528 40.9898C19.9692 40.8849 20.1621 40.7398 20.3205 40.5628C20.4789 40.3858 20.5996 40.1804 20.6757 39.9583L22.6002 34.3946C22.6769 34.1729 22.7981 33.9679 22.9568 33.7914C23.1156 33.6149 23.3087 33.4703 23.5252 33.366C23.7418 33.2616 23.9775 33.1995 24.2188 33.1832C24.4602 33.1668 24.7026 33.1966 24.9321 33.2708L30.6767 35.1263L36.2616 36.9344C36.7248 37.0842 37.1074 37.4055 37.3255 37.8278C37.5436 38.25 37.5793 38.7387 37.4247 39.1863L32.4875 53.4502Z" fill="white"/>
<path d="M49.0323 10.5567L50.2422 11.3467C50.2766 11.3696 50.3021 11.4032 50.3147 11.4422C50.3272 11.4811 50.3261 11.523 50.3115 11.5613C50.1527 11.9762 50.2764 12.375 50.6826 12.7577C51.032 13.0859 51.2948 13.1598 51.4724 12.9765C51.5173 12.9338 51.5499 12.8801 51.5669 12.821C51.5838 12.7618 51.5846 12.6993 51.5691 12.6397C51.5062 12.4412 51.4085 12.2551 51.2803 12.0898C50.6316 11.1909 50.3125 10.5145 50.3231 10.0608C50.3262 9.62259 50.5023 9.20278 50.814 8.88991C51.0044 8.68694 51.2387 8.5286 51.4996 8.42654C51.7605 8.32449 52.0413 8.28133 52.3213 8.30023C52.9162 8.3277 53.5173 8.62751 54.1247 9.19967C54.991 10.0124 55.2697 10.8854 54.9607 11.8184C54.9525 11.8432 54.939 11.8659 54.921 11.885C54.9031 11.9041 54.8811 11.9192 54.8567 11.9292C54.8323 11.9391 54.806 11.9438 54.7796 11.9429C54.7532 11.9419 54.7273 11.9353 54.7037 11.9236L53.5486 11.3453C53.5108 11.3262 53.4808 11.2949 53.4637 11.2566C53.4466 11.2182 53.4434 11.1753 53.4548 11.135C53.551 10.7788 53.4379 10.4473 53.1154 10.1403C52.8122 9.85614 52.5716 9.80594 52.3935 9.98971C52.3563 10.0262 52.329 10.0715 52.3144 10.1212C52.2997 10.1709 52.2981 10.2234 52.3098 10.2739C52.3705 10.4564 52.4623 10.6275 52.5812 10.7797C52.9034 11.221 53.1929 11.6845 53.4475 12.1666C53.5947 12.4727 53.645 12.8153 53.5919 13.1499C53.5352 13.5131 53.3622 13.8491 53.0981 14.109C52.8945 14.3263 52.6403 14.4916 52.3573 14.5906C52.0743 14.6897 51.7711 14.7194 51.4738 14.6774C50.8299 14.6063 50.2042 14.2866 49.5968 13.7182C48.5544 12.7349 48.2824 11.7029 48.781 10.622C48.793 10.6013 48.809 10.5832 48.8282 10.5686C48.8474 10.5541 48.8693 10.5435 48.8927 10.5374C48.9161 10.5313 48.9405 10.5299 48.9645 10.5332C48.9884 10.5365 49.0115 10.5445 49.0323 10.5567Z" fill="white"/>
<path d="M61.116 19.3445L55.0547 20.6178C55.0164 20.6256 54.9766 20.6212 54.941 20.6051C54.9054 20.589 54.8758 20.562 54.8564 20.5281L54.0302 19.045C54.0119 19.0111 54.0045 18.9722 54.0092 18.9338C54.0138 18.8955 54.0303 18.8595 54.0563 18.8309L58.2915 14.2763C58.3113 14.2562 58.3355 14.241 58.3621 14.2317C58.3888 14.2225 58.4172 14.2195 58.4451 14.223C58.4731 14.2265 58.4999 14.2364 58.5235 14.2519C58.547 14.2674 58.5667 14.2881 58.5809 14.3124L59.3796 15.7463C59.3988 15.7813 59.4062 15.8216 59.4007 15.8612C59.3952 15.9008 59.3772 15.9376 59.3492 15.9662L56.9444 18.4012C56.9175 18.4298 56.9005 18.4663 56.8959 18.5053C56.8914 18.5443 56.8996 18.5837 56.9192 18.6176C56.9389 18.6516 56.969 18.6783 57.0051 18.6938C57.0412 18.7093 57.0813 18.7127 57.1195 18.7036L60.4576 17.9339C60.4965 17.9248 60.5374 17.9286 60.5739 17.9448C60.6105 17.961 60.6408 17.9886 60.6602 18.0236L61.239 19.0696C61.2542 19.095 61.263 19.1236 61.2648 19.1531C61.2665 19.1827 61.2612 19.2121 61.2491 19.2391C61.237 19.2661 61.2186 19.2898 61.1954 19.3081C61.1723 19.3265 61.145 19.339 61.116 19.3445Z" fill="white"/>
<path d="M62.8035 24.4886L57.158 26.0684C57.1116 26.0812 57.0621 26.0751 57.0202 26.0514C56.9783 26.0278 56.9474 25.9884 56.9344 25.942L56.5186 24.4498C56.5121 24.4267 56.5102 24.4026 56.513 24.3787C56.5158 24.3549 56.5232 24.3318 56.535 24.3108C56.5467 24.2899 56.5624 24.2715 56.5813 24.2566C56.6001 24.2418 56.6217 24.2308 56.6448 24.2243L62.2888 22.6445C62.3354 22.6317 62.3852 22.6378 62.4273 22.6614C62.4694 22.6851 62.5006 22.7244 62.5139 22.7709L62.9297 24.2646C62.9424 24.311 62.9364 24.3607 62.9127 24.4027C62.8891 24.4446 62.8498 24.4755 62.8035 24.4886Z" fill="white"/>
<path d="M62.2085 30.6049L57.7664 30.9419C57.7422 30.9439 57.7179 30.9411 57.6948 30.9338C57.6717 30.9264 57.6502 30.9146 57.6318 30.899C57.6133 30.8834 57.5981 30.8643 57.5871 30.8429C57.5761 30.8215 57.5695 30.7981 57.5676 30.7742L57.4536 29.3249C57.45 29.2762 57.4659 29.2281 57.4979 29.191C57.53 29.1539 57.5755 29.1308 57.6247 29.1267L62.0667 28.7897C62.1157 28.786 62.1612 28.7632 62.1933 28.7264C62.2253 28.6895 62.2413 28.6415 62.2377 28.593L62.1661 27.6601C62.1641 27.636 62.1669 27.6118 62.1745 27.5889C62.182 27.5659 62.1941 27.5447 62.21 27.5264C62.2259 27.5081 62.2453 27.4931 62.2672 27.4823C62.289 27.4714 62.3127 27.465 62.3371 27.4634L63.4816 27.3766C63.5307 27.373 63.5794 27.3888 63.6169 27.4205C63.6544 27.4521 63.6777 27.4972 63.6818 27.5458L63.9961 31.5957C63.9997 31.6442 63.9837 31.6922 63.9517 31.7291C63.9196 31.7659 63.8741 31.7887 63.8251 31.7924L62.6791 31.8792C62.6548 31.8812 62.6303 31.8783 62.6071 31.8709C62.5839 31.8634 62.5625 31.8515 62.544 31.8357C62.5255 31.82 62.5103 31.8007 62.4994 31.7792C62.4885 31.7576 62.482 31.7341 62.4803 31.71L62.4072 30.7785C62.4059 30.7541 62.3997 30.7302 62.389 30.7082C62.3783 30.6862 62.3632 30.6666 62.3447 30.6504C62.3262 30.6342 62.3046 30.6219 62.2812 30.6141C62.2578 30.6063 62.2331 30.6032 62.2085 30.6049Z" fill="white"/>
</svg>
