<svg width="108" height="109" viewBox="0 0 108 109" fill="none" xmlns="http://www.w3.org/2000/svg">
<g filter="url(#filter0_d_245_224)">
<path d="M93.4341 62.944C92.7824 62.7298 92.0732 62.7685 91.4492 63.0525C90.8252 63.3364 90.3329 63.8444 90.0714 64.4741C89.495 65.8773 88.835 67.2453 88.0949 68.5707C87.5884 69.4771 87.0494 70.3558 86.478 71.2069C82.8843 76.5498 77.9926 80.909 72.2538 83.8827C72.0808 83.9716 71.8851 84.0072 71.6917 83.9851C71.4982 83.963 71.3158 83.8842 71.1677 83.7587C71.0196 83.6332 70.9126 83.4668 70.8603 83.2807C70.8081 83.0946 70.813 82.8972 70.8743 82.7139L79.1714 58.0823L85.2433 40.0646C85.3638 39.7068 85.4121 39.329 85.3854 38.9526C85.3587 38.5763 85.2575 38.2088 85.0876 37.8713C84.9177 37.5338 84.6825 37.2328 84.3953 36.9855C84.1081 36.7382 83.7746 36.5495 83.4138 36.4301L75.725 33.8815C75.3644 33.7619 74.9835 33.714 74.6042 33.7405C74.2248 33.767 73.8545 33.8674 73.5142 34.0359C73.174 34.2045 72.8706 34.4379 72.6214 34.7228C72.3721 35.0078 72.1819 35.3386 72.0616 35.6965L69.1217 44.4014C69.0014 44.7592 68.8112 45.0901 68.562 45.375C68.3127 45.66 68.0093 45.8934 67.6691 46.0619C67.3289 46.2305 66.9585 46.3309 66.5792 46.3574C66.1998 46.3839 65.8189 46.3359 65.4583 46.2164L56.623 43.2841L47.661 40.3137C47.3005 40.1941 46.9672 40.0052 46.6803 39.7578C46.3933 39.5104 46.1583 39.2094 45.9886 38.8719C45.819 38.5344 45.718 38.167 45.6914 37.7908C45.6648 37.4146 45.7132 37.0368 45.8338 36.6792L53.5497 13.7774C53.7489 13.1821 54.1395 12.668 54.6616 12.3142C55.1837 11.9604 55.8084 11.7864 56.4398 11.8188C58.9357 11.9531 61.4123 12.3288 63.8346 12.9405C64.5475 13.1237 65.3039 13.0308 65.9502 12.6808C66.5966 12.3308 67.0845 11.7499 67.3149 11.056L69.2868 5.13311C69.4008 4.78597 69.4424 4.41947 69.409 4.05589C69.3757 3.69231 69.2683 3.33925 69.0931 3.01818C68.918 2.6971 68.6788 2.41472 68.3902 2.1882C68.1017 1.96169 67.7696 1.79576 67.4144 1.70053C56.6704 -1.15356 45.2763 -0.399428 35.0097 3.84527C24.7431 8.08998 16.1813 15.5865 10.66 25.1655C10.2077 25.9627 9.76975 26.7763 9.34611 27.6064C8.27957 29.7257 7.3652 31.9171 6.60981 34.1642C6.58494 34.2427 6.5578 34.319 6.53293 34.3885C5.81971 36.541 5.25308 38.7387 4.83687 40.9665C4.65144 41.9716 4.49616 42.9767 4.37103 43.9818C3.84232 48.2661 3.87881 52.6004 4.47957 56.8753C5.82308 66.3767 9.88092 75.2979 16.1733 82.5837C22.0995 89.4398 29.7938 94.5675 38.4323 97.4179L38.6584 97.4941C49.6494 101.087 61.5521 100.816 72.3653 96.7264C83.1785 92.6369 92.2427 84.9785 98.0338 75.0388C98.5449 74.1608 99.0303 73.2634 99.4901 72.3466C100.114 71.1007 100.689 69.8226 101.216 68.5124C101.351 68.1727 101.416 67.8091 101.405 67.4439C101.394 67.0786 101.309 66.7193 101.154 66.3879C100.999 66.0565 100.777 65.7598 100.503 65.5161C100.229 65.2723 99.907 65.0864 99.558 64.9699L93.4341 62.944ZM55.04 86.2137C54.84 86.8116 54.4469 87.3273 53.9216 87.681C53.3962 88.0347 52.7679 88.2066 52.1341 88.1701C48.8146 87.9731 45.5347 87.351 42.3761 86.3192L42.1998 86.2609C34.1732 83.6012 27.2515 78.3959 22.5019 71.4475C17.7524 64.499 15.4387 56.1935 15.9177 47.8115C15.9765 46.79 16.0783 45.7669 16.223 44.7424C16.5439 42.4733 17.0691 40.2372 17.7924 38.0612C17.8105 38.0028 17.8309 37.9445 17.8512 37.8862C18.6071 35.6335 19.5724 33.4554 20.7345 31.38C21.1868 30.5604 21.6738 29.7624 22.1954 28.9862C24.698 25.2081 27.8591 21.9026 31.5305 19.2246C33.2447 17.9726 35.0599 16.8628 36.9578 15.9065C37.1206 15.8247 37.3042 15.7927 37.4853 15.8144C37.6665 15.8362 37.837 15.9107 37.9755 16.0286C38.1139 16.1465 38.214 16.3025 38.2631 16.4768C38.3122 16.6511 38.3081 16.836 38.2514 17.008L29.8457 41.9918L23.7038 60.2226C23.5832 60.5804 23.5349 60.9583 23.5616 61.3347C23.5883 61.711 23.6895 62.0784 23.8594 62.4159C24.0293 62.7535 24.2646 63.0545 24.5518 63.3018C24.839 63.549 25.1725 63.7377 25.5332 63.8571L32.8217 66.2734C33.1827 66.3925 33.5638 66.4398 33.9432 66.4127C34.3226 66.3856 34.6929 66.2846 35.0329 66.1154C35.373 65.9462 35.676 65.7122 35.9248 65.4267C36.1736 65.1412 36.3633 64.8099 36.4829 64.4517L39.5064 55.4776C39.627 55.1199 39.8174 54.7893 40.0667 54.5046C40.3161 54.2199 40.6195 53.9867 40.9597 53.8184C41.2999 53.6501 41.6702 53.5499 42.0494 53.5235C42.4286 53.4972 42.8094 53.5452 43.1699 53.6648L52.1952 56.6577L60.9694 59.5742C61.697 59.8158 62.2982 60.3341 62.6408 61.0152C62.9834 61.6962 63.0395 62.4844 62.7966 63.2065L55.04 86.2137Z" fill="white"/>
<path d="M80.6085 16.496L82.499 17.7305C82.5527 17.7663 82.5925 17.8188 82.6122 17.8796C82.6318 17.9404 82.6301 18.006 82.6073 18.0657C82.3591 18.7141 82.5524 19.3372 83.1871 19.9352C83.733 20.4481 84.1436 20.5636 84.4211 20.2771C84.4912 20.2104 84.5422 20.1265 84.5687 20.0341C84.5953 19.9417 84.5965 19.844 84.5722 19.7509C84.474 19.4408 84.3213 19.1499 84.121 18.8917C83.1074 17.487 82.6088 16.4301 82.6253 15.7211C82.6303 15.0364 82.9053 14.3804 83.3924 13.8916C83.6899 13.5744 84.056 13.327 84.4636 13.1675C84.8712 13.0081 85.31 12.9406 85.7476 12.9701C86.677 13.0131 87.6162 13.4815 88.5652 14.3756C89.9188 15.6456 90.3542 17.0096 89.8714 18.4676C89.8586 18.5063 89.8375 18.5417 89.8095 18.5716C89.7814 18.6014 89.7472 18.625 89.709 18.6406C89.6709 18.6562 89.6298 18.6635 89.5885 18.662C89.5472 18.6605 89.5067 18.6502 89.4699 18.6319L87.6651 17.7282C87.606 17.6984 87.5591 17.6495 87.5324 17.5896C87.5057 17.5297 87.5008 17.4627 87.5185 17.3996C87.6689 16.8431 87.4922 16.325 86.9883 15.8454C86.5146 15.4014 86.1386 15.3229 85.8604 15.6101C85.8021 15.6671 85.7596 15.7378 85.7367 15.8155C85.7138 15.8931 85.7113 15.9753 85.7295 16.0541C85.8244 16.3394 85.9678 16.6066 86.1536 16.8446C86.657 17.534 87.1094 18.2582 87.5072 19.0116C87.7372 19.4899 87.8158 20.0252 87.7328 20.548C87.6441 21.1156 87.3738 21.6406 86.9613 22.0467C86.6432 22.3863 86.2459 22.6446 85.8038 22.7993C85.3616 22.9541 84.8878 23.0006 84.4233 22.9348C83.4172 22.8238 82.4396 22.3243 81.4906 21.4361C79.8618 19.8997 79.4369 18.287 80.216 16.5981C80.2347 16.5658 80.2597 16.5374 80.2897 16.5147C80.3196 16.492 80.3539 16.4754 80.3905 16.4659C80.427 16.4564 80.4651 16.4541 80.5026 16.4593C80.54 16.4645 80.576 16.4769 80.6085 16.496Z" fill="white"/>
<path d="M99.4891 30.2277L90.0185 32.2172C89.9587 32.2295 89.8965 32.2225 89.8409 32.1973C89.7852 32.1722 89.739 32.13 89.7088 32.077L88.4178 29.7597C88.3891 29.7066 88.3777 29.6458 88.3849 29.5859C88.3922 29.526 88.4179 29.4698 88.4585 29.4251L95.0759 22.3081C95.1069 22.2768 95.1446 22.253 95.1863 22.2385C95.2279 22.2241 95.2723 22.2194 95.316 22.2249C95.3597 22.2303 95.4016 22.2458 95.4383 22.27C95.4751 22.2943 95.5058 22.3267 95.5281 22.3647L96.7761 24.6051C96.806 24.6599 96.8175 24.7229 96.809 24.7847C96.8004 24.8466 96.7723 24.9041 96.7286 24.9487L92.9711 28.7536C92.929 28.7983 92.9025 28.8553 92.8954 28.9162C92.8883 28.9772 92.9011 29.0387 92.9318 29.0918C92.9625 29.1449 93.0096 29.1867 93.066 29.2109C93.1223 29.2351 93.185 29.2404 93.2447 29.2261L98.4604 28.0234C98.5212 28.0092 98.585 28.0151 98.6422 28.0404C98.6993 28.0657 98.7466 28.109 98.7769 28.1636L99.6812 29.7981C99.705 29.8377 99.7188 29.8825 99.7216 29.9286C99.7243 29.9747 99.7159 30.0208 99.697 30.0629C99.6782 30.1051 99.6494 30.1421 99.6132 30.1708C99.577 30.1994 99.5344 30.219 99.4891 30.2277Z" fill="white"/>
<path d="M102.133 38.2639L93.3126 40.7324C93.2401 40.7524 93.1627 40.7429 93.0972 40.7059C93.0317 40.6689 92.9835 40.6074 92.9631 40.5349L92.3135 38.2033C92.3033 38.1672 92.3003 38.1294 92.3047 38.0921C92.3091 38.0549 92.3207 38.0188 92.3391 37.9861C92.3574 37.9534 92.382 37.9246 92.4114 37.9014C92.4409 37.8782 92.4746 37.861 92.5107 37.8509L101.329 35.3824C101.402 35.3623 101.48 35.3718 101.546 35.4088C101.611 35.4457 101.66 35.5072 101.681 35.5799L102.331 37.9138C102.351 37.9864 102.341 38.064 102.304 38.1296C102.267 38.1952 102.206 38.2434 102.133 38.2639Z" fill="white"/>
<path d="M101.206 47.8231L94.2659 48.3497C94.2281 48.3528 94.19 48.3484 94.1539 48.3369C94.1178 48.3254 94.0844 48.3069 94.0555 48.2826C94.0266 48.2582 94.0029 48.2284 93.9857 48.195C93.9685 48.1615 93.9582 48.125 93.9553 48.0875L93.7772 45.8229C93.7715 45.7469 93.7964 45.6717 93.8464 45.6137C93.8964 45.5557 93.9676 45.5197 94.0444 45.5133L100.985 44.9867C101.061 44.9809 101.133 44.9453 101.183 44.8877C101.233 44.8301 101.258 44.7551 101.252 44.6793L101.14 43.2216C101.137 43.184 101.142 43.1462 101.153 43.1103C101.165 43.0744 101.184 43.0412 101.209 43.0126C101.234 42.984 101.264 42.9606 101.298 42.9437C101.332 42.9268 101.369 42.9168 101.407 42.9142L103.196 42.7786C103.272 42.773 103.348 42.7976 103.407 42.8471C103.466 42.8967 103.502 42.9671 103.508 43.0431L103.999 49.3713C104.005 49.4471 103.98 49.522 103.93 49.5796C103.88 49.6372 103.809 49.6728 103.732 49.6786L101.942 49.8142C101.904 49.8173 101.866 49.8129 101.829 49.8012C101.793 49.7896 101.76 49.7709 101.731 49.7463C101.702 49.7217 101.678 49.6916 101.661 49.6579C101.644 49.6242 101.634 49.5874 101.631 49.5498L101.517 48.0943C101.515 48.0562 101.505 48.0189 101.488 47.9845C101.472 47.9501 101.448 47.9194 101.419 47.8942C101.39 47.8689 101.357 47.8496 101.32 47.8374C101.284 47.8252 101.245 47.8203 101.206 47.8231Z" fill="white"/>
</g>
<defs>
<filter id="filter0_d_245_224" x="0" y="0" width="108" height="108.004" filterUnits="userSpaceOnUse" color-interpolation-filters="sRGB">
<feFlood flood-opacity="0" result="BackgroundImageFix"/>
<feColorMatrix in="SourceAlpha" type="matrix" values="0 0 0 0 0 0 0 0 0 0 0 0 0 0 0 0 0 0 127 0" result="hardAlpha"/>
<feOffset dy="4"/>
<feGaussianBlur stdDeviation="2"/>
<feComposite in2="hardAlpha" operator="out"/>
<feColorMatrix type="matrix" values="0 0 0 0 0 0 0 0 0 0 0 0 0 0 0 0 0 0 0.25 0"/>
<feBlend mode="normal" in2="BackgroundImageFix" result="effect1_dropShadow_245_224"/>
<feBlend mode="normal" in="SourceGraphic" in2="effect1_dropShadow_245_224" result="shape"/>
</filter>
</defs>
</svg>
