<svg width="196" height="196" viewBox="0 0 196 196" fill="none" xmlns="http://www.w3.org/2000/svg">
<mask id="path-1-inside-1_384_382" fill="white">
<path d="M82.1279 0.722195C35.9622 9.12833 2.67257 46.5356 0.160149 93.1896C-2.14291 132.804 20.5736 170.526 56.6897 187.338C69.0424 193.012 78.3593 195.219 92.7011 195.85C111.44 196.69 124.944 194.063 140.751 186.603C151.429 181.559 150.487 186.288 150.487 135.325C150.487 93.0846 150.382 90.2475 148.602 88.6713C147.556 87.6206 145.043 86.885 143.159 86.885C139.914 86.885 137.611 88.8815 118.663 107.795L97.6212 128.811L90.7121 121.455C85.0591 115.466 83.1748 114.205 80.453 114.205C76.2656 114.205 73.0204 117.462 73.0204 121.665C73.0204 124.502 74.6954 126.709 83.6982 135.851C98.6681 151.192 96.9931 151.402 118.767 129.756L135.831 112.734V142.891V172.943L133.005 174.519C127.666 177.146 116.046 180.298 107.043 181.454C90.8167 183.45 74.2766 180.193 57.8412 171.682C51.2461 168.319 47.1634 165.062 38.8933 156.761C29.7858 147.724 27.7968 144.887 23.5047 136.271C20.8876 130.807 17.8518 123.452 16.9096 119.984C14.7113 111.578 13.8738 93.0846 15.3394 84.3632C21.097 51.0539 45.2791 24.7847 78.0453 16.3786C93.3292 12.4908 114.266 14.0669 130.073 20.3715C133.214 21.6324 136.354 22.1578 137.925 21.7375C141.379 20.8969 143.682 16.5888 142.74 12.9111C141.903 9.44356 135.203 6.0811 122.641 2.71865C113.324 0.301888 90.6074 -0.853955 82.1279 0.722195Z"/>
</mask>
<path d="M82.1279 0.722195C35.9622 9.12833 2.67257 46.5356 0.160149 93.1896C-2.14291 132.804 20.5736 170.526 56.6897 187.338C69.0424 193.012 78.3593 195.219 92.7011 195.85C111.44 196.69 124.944 194.063 140.751 186.603C151.429 181.559 150.487 186.288 150.487 135.325C150.487 93.0846 150.382 90.2475 148.602 88.6713C147.556 87.6206 145.043 86.885 143.159 86.885C139.914 86.885 137.611 88.8815 118.663 107.795L97.6212 128.811L90.7121 121.455C85.0591 115.466 83.1748 114.205 80.453 114.205C76.2656 114.205 73.0204 117.462 73.0204 121.665C73.0204 124.502 74.6954 126.709 83.6982 135.851C98.6681 151.192 96.9931 151.402 118.767 129.756L135.831 112.734V142.891V172.943L133.005 174.519C127.666 177.146 116.046 180.298 107.043 181.454C90.8167 183.45 74.2766 180.193 57.8412 171.682C51.2461 168.319 47.1634 165.062 38.8933 156.761C29.7858 147.724 27.7968 144.887 23.5047 136.271C20.8876 130.807 17.8518 123.452 16.9096 119.984C14.7113 111.578 13.8738 93.0846 15.3394 84.3632C21.097 51.0539 45.2791 24.7847 78.0453 16.3786C93.3292 12.4908 114.266 14.0669 130.073 20.3715C133.214 21.6324 136.354 22.1578 137.925 21.7375C141.379 20.8969 143.682 16.5888 142.74 12.9111C141.903 9.44356 135.203 6.0811 122.641 2.71865C113.324 0.301888 90.6074 -0.853955 82.1279 0.722195Z" fill="#E0E0E0"/>
<path d="M82.1279 0.722195L94.7376 68.5602L94.6132 68.5833L94.4886 68.606L82.1279 0.722195ZM0.160149 93.1896L69.0603 96.9001L69.0524 97.0472L69.0438 97.1944L0.160149 93.1896ZM56.6897 187.338L27.8882 250.04L27.729 249.967L27.5702 249.893L56.6897 187.338ZM92.7011 195.85L95.7314 126.916L95.7623 126.917L95.7933 126.919L92.7011 195.85ZM140.751 186.603L170.221 248.993L170.211 248.998L170.201 249.002L140.751 186.603ZM148.602 88.6713L102.855 140.325L101.242 138.897L99.7209 137.37L148.602 88.6713ZM118.663 107.795L69.9028 58.9745L69.9095 58.9678L69.9163 58.961L118.663 107.795ZM97.6212 128.811L146.381 177.631L96.0408 227.909L47.3293 176.052L97.6212 128.811ZM90.7121 121.455L140.891 74.0945L140.948 74.1543L141.004 74.2142L90.7121 121.455ZM83.6982 135.851L132.86 87.4351L132.972 87.5481L133.083 87.6617L83.6982 135.851ZM118.767 129.756L167.499 178.605L167.456 178.648L167.413 178.691L118.767 129.756ZM135.831 112.734L87.0995 63.8847L204.831 -53.563V112.734H135.831ZM135.831 172.943H204.831V213.469L169.436 233.206L135.831 172.943ZM133.005 174.519L166.61 234.782L165.06 235.647L163.467 236.43L133.005 174.519ZM107.043 181.454L115.829 249.892L115.649 249.915L115.469 249.938L107.043 181.454ZM57.8412 171.682L89.1819 110.21L89.3768 110.31L89.5711 110.41L57.8412 171.682ZM38.8933 156.761L87.4926 107.78L87.6341 107.921L87.7749 108.062L38.8933 156.761ZM23.5047 136.271L-38.2568 167.037L-38.4947 166.559L-38.7252 166.078L23.5047 136.271ZM16.9096 119.984L-49.6763 138.076L-49.7623 137.759L-49.8453 137.442L16.9096 119.984ZM15.3394 84.3632L-52.7065 72.9284L-52.6798 72.7694L-52.6524 72.6106L15.3394 84.3632ZM78.0453 16.3786L60.8987 -50.457L60.9669 -50.4745L61.0351 -50.4918L78.0453 16.3786ZM130.073 20.3715L155.635 -43.719L155.709 -43.6897L155.782 -43.6602L130.073 20.3715ZM137.925 21.7375L120.084 -44.9161L120.845 -45.1198L121.611 -45.3062L137.925 21.7375ZM142.74 12.9111L75.8987 30.0347L75.7805 29.5732L75.6686 29.1101L142.74 12.9111ZM122.641 2.71865L139.966 -64.0709L140.224 -64.0039L140.482 -63.9349L122.641 2.71865ZM94.4886 68.606C79.3372 71.3649 69.8322 82.5666 69.0603 96.9001L-68.74 89.4792C-64.4871 10.5046 -7.4128 -53.1082 69.7673 -67.1616L94.4886 68.606ZM69.0438 97.1944C68.3992 108.282 75.0774 119.788 85.8091 124.784L27.5702 249.893C-33.9302 221.264 -72.685 157.325 -68.7235 89.1849L69.0438 97.1944ZM85.4911 124.637C88.6185 126.073 89.647 126.294 89.8267 126.337C90.1032 126.402 91.4911 126.73 95.7314 126.916L89.6708 264.783C66.8984 263.782 48.7748 259.634 27.8882 250.04L85.4911 124.637ZM95.7933 126.919C101.116 127.158 103.579 126.815 104.756 126.588C105.818 126.383 107.637 125.933 111.301 124.203L170.201 249.002C143.605 261.554 118.843 266.092 89.6088 264.78L95.7933 126.919ZM111.281 124.213C112.784 123.503 114.066 122.936 114.847 122.592C115.933 122.114 115.7 122.218 115.675 122.23C115.482 122.317 114.268 122.868 112.628 123.761C110.923 124.689 108.312 126.223 105.319 128.473C98.5385 133.57 92.3281 140.431 87.7827 148.865C83.76 156.33 82.335 162.662 81.8223 165.375C81.312 168.077 81.2824 169.578 81.336 168.647C81.379 167.9 81.4372 166.329 81.4717 163.331C81.5442 157.052 81.4868 148.795 81.4868 135.325H219.487C219.487 147.337 219.547 157.6 219.463 164.924C219.392 171.009 219.266 181.242 217.424 190.992C214.91 204.299 207.911 223.997 188.235 238.786C181.237 244.046 174.69 246.992 172.795 247.853C171.774 248.318 170.466 248.887 170.393 248.919C170.015 249.085 170.053 249.072 170.221 248.993L111.281 124.213ZM81.4868 135.325C81.4868 124.734 81.48 116.843 81.4439 110.854C81.4067 104.693 81.3409 101.344 81.2676 99.5199C81.2323 98.6412 81.2189 98.76 81.286 99.4712C81.3373 100.014 81.5756 102.501 82.354 105.936C83.1538 109.465 84.9113 115.785 88.9142 122.971C90.9668 126.657 93.3518 130.109 96.0125 133.287C98.6257 136.408 101.077 138.751 102.855 140.325L194.35 37.0174C198.924 41.0683 204.658 47.1727 209.475 55.8207C213.824 63.6292 215.881 70.7589 216.941 75.4359C218.738 83.3659 219.03 90.8415 219.156 93.9783C219.476 101.928 219.487 115.025 219.487 135.325H81.4868ZM99.7209 137.37C105.921 143.594 111.959 147.179 115.465 149.022C119.301 151.039 122.715 152.325 125.346 153.159C130.158 154.684 136.107 155.885 143.159 155.885V17.885C152.095 17.885 160.242 19.4536 167.043 21.6093C172.197 23.2428 185.456 27.899 197.484 39.9723L99.7209 137.37ZM143.159 155.885C146.461 155.885 151.29 155.62 156.966 154.354C162.64 153.089 167.487 151.201 171.41 149.245C175.099 147.406 177.759 145.612 179.2 144.578C180.649 143.539 181.524 142.79 181.632 142.698C181.698 142.642 180.822 143.403 178.101 146.045C175.548 148.525 172.156 151.891 167.409 156.63L69.9163 58.961C78.4978 50.3949 86.084 42.8254 91.967 37.7969C94.8842 35.3034 101.195 30.0512 109.844 25.7396C121.352 20.0032 132.813 17.885 143.159 17.885V155.885ZM167.423 156.616L146.381 177.631L48.8613 79.9899L69.9028 58.9745L167.423 156.616ZM47.3293 176.052L40.4201 168.696L141.004 74.2142L147.913 81.5695L47.3293 176.052ZM40.5328 168.816C39.4835 167.704 39.3138 167.566 39.6601 167.893C39.9156 168.135 41.7967 169.926 44.8806 172.087C48.2333 174.437 53.6445 177.685 60.965 180.079C68.5884 182.571 75.4186 183.205 80.453 183.205V45.205C96.9677 45.205 111.795 50.4663 124.086 59.0808C132.101 64.6987 138.383 71.437 140.891 74.0945L40.5328 168.816ZM80.453 183.205C114.616 183.205 142.02 155.326 142.02 121.665H4.02041C4.02041 79.5983 37.9148 45.205 80.453 45.205V183.205ZM142.02 121.665C142.02 114.598 140.803 106.505 137.54 98.2982C134.728 91.2255 131.358 86.5526 130.088 84.8675C128.804 83.1628 128.047 82.4184 128.859 83.295C129.541 84.0315 130.733 85.2749 132.86 87.4351L34.536 184.266C30.791 180.464 24.683 174.296 19.8782 167.92C12.8285 158.565 4.02041 143.008 4.02041 121.665H142.02ZM133.083 87.6617C135.604 90.2455 136.359 91.0479 137.439 92.1298C138.434 93.1257 137.535 92.1411 135.652 90.6284C133.851 89.1809 128.393 84.9657 119.863 81.7663C110.073 78.0945 98.5767 76.6291 86.7074 78.7205C76.0174 80.6042 68.6054 84.7572 65.2301 86.8868C63.4201 88.0289 62.1329 88.9982 61.4529 89.5309C61.0912 89.8142 60.8248 90.0342 60.6639 90.1694C60.5814 90.2388 60.5196 90.2918 60.4798 90.3263C60.4399 90.3608 60.4186 90.3796 60.4173 90.3808C60.4172 90.3809 60.4792 90.3258 60.6128 90.2025C60.7459 90.0796 60.9307 89.9067 61.1765 89.6729C61.6821 89.1921 62.3353 88.5586 63.208 87.6992C65.1479 85.7888 67.0389 83.8863 70.1217 80.8217L167.413 178.691C163.234 182.845 157.064 189.12 151.997 193.615C148.975 196.295 133.793 210.55 110.655 214.627C79.5746 220.103 57.5378 204.892 49.2101 198.201C42.6655 192.941 35.5752 185.332 34.3138 184.04L133.083 87.6617ZM70.036 80.9071L87.0995 63.8847L184.562 161.583L167.499 178.605L70.036 80.9071ZM204.831 112.734V142.891H66.831V112.734H204.831ZM204.831 142.891V172.943H66.831V142.891H204.831ZM169.436 233.206L166.61 234.782L99.3993 114.255L102.226 112.679L169.436 233.206ZM163.467 236.43C149.011 243.543 129.316 248.161 115.829 249.892L98.2563 113.016C98.522 112.982 99.2288 112.875 100.312 112.653C101.365 112.438 102.476 112.174 103.51 111.897C104.576 111.611 105.248 111.394 105.47 111.317C105.566 111.284 105.4 111.338 105.011 111.494C104.664 111.634 103.786 111.995 102.542 112.607L163.467 236.43ZM115.469 249.938C83.7704 253.838 53.3193 247.043 26.1112 232.953L89.5711 110.41C95.234 113.343 97.8631 113.063 98.6166 112.97L115.469 249.938ZM26.5005 233.154C10.5937 225.044 0.556478 216.044 -9.98821 205.46L87.7749 108.062C89.4788 109.772 90.5637 110.816 91.2715 111.471C91.9484 112.097 92.0508 112.153 91.7454 111.912C91.3719 111.617 90.7815 111.186 90.0728 110.739C89.3995 110.314 89.0104 110.123 89.1819 110.21L26.5005 233.154ZM-9.7059 205.742C-14.5285 200.957 -20.4702 194.923 -25.9405 187.58C-31.8895 179.594 -35.6532 172.263 -38.2568 167.037L85.2663 105.506C85.6775 106.331 85.9414 106.846 86.1164 107.18C86.285 107.501 86.3125 107.541 86.2315 107.4C86.1408 107.243 85.9464 106.914 85.6601 106.475C85.3684 106.028 85.0515 105.573 84.7269 105.137C84.0673 104.252 83.7037 103.887 84.0807 104.298C84.2829 104.518 84.6392 104.898 85.2196 105.493C85.8009 106.09 86.5371 106.832 87.4926 107.78L-9.7059 205.742ZM-38.7252 166.078C-41.7064 159.853 -47.0192 147.855 -49.6763 138.076L83.4955 101.892C83.2172 100.868 82.9949 100.181 82.9204 99.9536C82.8319 99.6836 82.7952 99.5877 82.8338 99.694C82.9179 99.926 83.1293 100.486 83.4805 101.348C84.205 103.126 85.0649 105.066 85.7347 106.465L-38.7252 166.078ZM-49.8453 137.442C-52.7979 126.152 -53.8111 113.678 -54.1813 105.359C-54.5527 97.0108 -54.6483 84.4834 -52.7065 72.9284L83.3853 95.798C83.6 94.5204 83.6574 93.7853 83.6575 93.7833C83.663 93.7182 83.6427 93.9516 83.6259 94.5061C83.5914 95.6522 83.5972 97.311 83.6823 99.2249C83.7675 101.139 83.9088 102.786 84.0432 103.911C84.1083 104.455 84.1477 104.674 84.1339 104.595C84.1315 104.581 84.0034 103.822 83.6646 102.526L-49.8453 137.442ZM-52.6524 72.6106C-42.2798 12.6029 1.74891 -35.2822 60.8987 -50.457L95.1919 83.2142C88.8092 84.8516 84.4738 89.5049 83.3311 96.1158L-52.6524 72.6106ZM61.0351 -50.4918C91.4582 -58.2307 127.29 -55.0244 155.635 -43.719L104.511 84.462C104.435 84.4314 103.797 84.1932 102.596 83.929C101.421 83.6704 100.048 83.4624 98.6119 83.3528C97.1684 83.2426 95.9714 83.2554 95.1442 83.3124C94.2674 83.3729 94.2638 83.4504 95.0554 83.2491L61.0351 -50.4918ZM155.782 -43.6602C153.318 -44.6497 150.197 -45.6432 146.289 -46.3157C144.309 -46.6563 141.365 -47.0465 137.681 -47.1108C134.433 -47.1675 128 -47.0351 120.084 -44.9161L155.766 88.3911C140.439 92.4934 127.404 90.4629 122.887 89.6856C116.231 88.5404 109.97 86.6537 104.365 84.4033L155.782 -43.6602ZM121.611 -45.3062C100.271 -40.1134 87.4858 -25.8704 81.3177 -14.4895C75.0388 -2.9042 71.5034 12.8779 75.8987 30.0347L209.582 -4.21254C214.919 16.622 210.703 36.397 202.645 51.2659C194.697 65.9305 179.033 82.7478 154.239 88.7812L121.611 -45.3062ZM75.6686 29.1101C79.8224 46.3089 89.5435 56.795 94.6316 61.4145C99.9001 66.1978 104.47 68.6019 105.944 69.3476C108.864 70.8243 109.368 70.5949 104.8 69.3722L140.482 -63.9349C148.476 -61.7951 158.611 -58.6621 168.23 -53.7966C173.054 -51.3566 180.241 -47.2516 187.394 -40.7575C194.367 -34.4272 205.239 -22.2205 209.812 -3.28797L75.6686 29.1101ZM105.316 69.5082C106.62 69.8465 107.281 69.9447 107.016 69.8997C106.847 69.8709 106.332 69.7903 105.448 69.6855C103.648 69.4721 101.251 69.2679 98.6346 69.1375C96.0003 69.0062 93.7511 68.9798 92.2276 69.013C91.479 69.0293 91.206 69.0538 91.3504 69.0424C91.4388 69.0354 91.7496 69.0097 92.247 68.9489C92.723 68.8907 93.5848 68.7745 94.7376 68.5602L69.5183 -67.1158C82.3689 -69.5045 97.2169 -69.1046 105.506 -68.6913C114.465 -68.2447 128.237 -67.1132 139.966 -64.0709L105.316 69.5082Z" fill="#E0E0E0" mask="url(#path-1-inside-1_384_382)"/>
<mask id="path-3-inside-2_384_382" fill="white">
<path d="M156.244 25.8355C154.569 26.8862 140.646 40.4411 125.467 55.7823L97.8305 83.8378L76.6843 62.7174C58.3646 44.434 55.224 41.702 52.3976 41.702C50.0945 41.702 48.4196 42.5426 46.954 44.434C44.7556 47.166 44.7556 48.3219 44.7556 94.7657C44.7556 141.21 44.7556 142.365 46.954 145.097C49.6758 148.565 55.0147 148.88 57.9458 145.623C59.8302 143.521 59.9348 141.105 60.2489 105.484L60.5629 67.5509L77.7312 84.7834C92.5963 99.7043 95.3181 101.911 98.1446 101.911C101.076 101.911 104.844 98.5485 131.12 72.1742L160.85 42.3325L163.258 45.2746C170.377 54.1011 175.925 65.5544 179.589 79.0042C182.206 88.6713 181.892 109.266 178.961 119.774C176.448 128.495 171.214 139.739 166.817 145.623C161.793 152.453 164.2 159.388 171.528 159.388C175.402 159.388 179.589 154.134 185.556 142.05C201.468 109.687 199.06 72.8047 179.275 43.3833C171.424 31.7198 163.782 23.839 160.222 23.839C159.804 23.839 158.024 24.7847 156.244 25.8355Z"/>
</mask>
<path d="M156.244 25.8355C154.569 26.8862 140.646 40.4411 125.467 55.7823L97.8305 83.8378L76.6843 62.7174C58.3646 44.434 55.224 41.702 52.3976 41.702C50.0945 41.702 48.4196 42.5426 46.954 44.434C44.7556 47.166 44.7556 48.3219 44.7556 94.7657C44.7556 141.21 44.7556 142.365 46.954 145.097C49.6758 148.565 55.0147 148.88 57.9458 145.623C59.8302 143.521 59.9348 141.105 60.2489 105.484L60.5629 67.5509L77.7312 84.7834C92.5963 99.7043 95.3181 101.911 98.1446 101.911C101.076 101.911 104.844 98.5485 131.12 72.1742L160.85 42.3325L163.258 45.2746C170.377 54.1011 175.925 65.5544 179.589 79.0042C182.206 88.6713 181.892 109.266 178.961 119.774C176.448 128.495 171.214 139.739 166.817 145.623C161.793 152.453 164.2 159.388 171.528 159.388C175.402 159.388 179.589 154.134 185.556 142.05C201.468 109.687 199.06 72.8047 179.275 43.3833C171.424 31.7198 163.782 23.839 160.222 23.839C159.804 23.839 158.024 24.7847 156.244 25.8355Z" fill="#E0E0E0"/>
<path d="M156.244 25.8355L119.576 -32.6148L120.363 -33.1084L121.163 -33.5807L156.244 25.8355ZM125.467 55.7823L76.3113 7.3602L76.3649 7.30581L76.4186 7.25153L125.467 55.7823ZM97.8305 83.8378L146.986 132.26L98.2286 181.757L49.07 132.658L97.8305 83.8378ZM76.6843 62.7174L125.426 13.8785L125.435 13.8878L125.445 13.8972L76.6843 62.7174ZM46.954 44.434L101.496 86.6972L101.108 87.1977L100.711 87.6911L46.954 44.434ZM46.954 145.097L100.711 101.84L100.973 102.166L101.23 102.494L46.954 145.097ZM57.9458 145.623L109.319 191.686L109.278 191.732L109.237 191.777L57.9458 145.623ZM60.2489 105.484L129.247 106.055L129.246 106.073L129.246 106.092L60.2489 105.484ZM60.5629 67.5509L-8.43469 66.9796L-7.06799 -98.0973L109.444 18.8519L60.5629 67.5509ZM77.7312 84.7834L28.8496 133.482L28.8496 133.482L77.7312 84.7834ZM131.12 72.1742L82.2386 23.4752L82.2386 23.4752L131.12 72.1742ZM160.85 42.3325L111.969 -6.36654L165.876 -60.4758L214.249 -1.36669L160.85 42.3325ZM163.258 45.2746L216.657 1.57545L216.813 1.76622L216.967 1.9581L163.258 45.2746ZM179.589 79.0042L246.163 60.8684L246.177 60.9208L246.191 60.9733L179.589 79.0042ZM178.961 119.774L245.423 138.314L245.345 138.595L245.264 138.875L178.961 119.774ZM166.817 145.623L111.238 104.733L111.39 104.527L111.543 104.322L166.817 145.623ZM185.556 142.05L247.477 172.494L247.45 172.548L247.424 172.601L185.556 142.05ZM179.275 43.3833L236.514 4.8523L236.523 4.86556L236.532 4.87883L179.275 43.3833ZM192.913 84.2857C195.107 82.9091 196.729 81.7126 197.445 81.1755C198.296 80.5377 198.947 80.0156 199.32 79.712C200.052 79.117 200.525 78.7012 200.595 78.6393C200.766 78.4895 200.591 78.6392 199.925 79.2607C198.659 80.4409 196.681 82.3309 194.043 84.8987C188.831 89.9709 181.87 96.8803 174.516 104.313L76.4186 7.25153C84.2435 -0.656885 91.8337 -8.19547 97.7969 -13.9988C100.746 -16.8687 103.511 -19.5232 105.802 -21.6595C106.914 -22.6963 108.22 -23.8977 109.532 -25.0499C110.173 -25.6129 111.131 -26.4427 112.259 -27.3592C112.797 -27.7967 115.682 -30.1719 119.576 -32.6148L192.913 84.2857ZM174.623 104.204L146.986 132.26L48.6747 35.4157L76.3113 7.3602L174.623 104.204ZM49.07 132.658L27.9238 111.538L125.445 13.8972L146.591 35.0176L49.07 132.658ZM27.9425 111.556C23.3923 107.015 20.0558 103.711 17.5178 101.249C16.2657 100.035 15.3245 99.1387 14.6189 98.4803C14.2726 98.1571 14.0131 97.9192 13.8281 97.7519C13.6417 97.5834 13.5593 97.512 13.5657 97.5176C13.5702 97.5215 13.7056 97.6388 13.9532 97.8406C14.1983 98.0402 14.6148 98.3727 15.1803 98.7955C16.2125 99.567 18.346 101.096 21.3752 102.774C24.5102 104.51 29.0375 106.65 34.8012 108.273C40.8548 109.977 46.8141 110.702 52.3976 110.702V-27.298C82.059 -27.298 101.155 -9.18431 103.896 -6.81074C109.588 -1.88295 116.902 5.37133 125.426 13.8785L27.9425 111.556ZM52.3976 110.702C59.9492 110.702 69.9232 109.242 80.3119 104.028C90.5643 98.8825 97.3826 92.0056 101.496 86.6972L-7.58799 2.17088C-2.00904 -5.02893 6.37948 -13.2718 18.4115 -19.3104C30.5799 -25.4174 42.5429 -27.298 52.3976 -27.298V110.702ZM100.711 87.6911C101.065 87.2517 103.935 83.7487 106.733 78.6455C109.717 73.2024 111.501 68.0755 112.563 63.8916C113.506 60.1763 113.821 57.4135 113.912 56.5529C114.012 55.6013 114.004 55.3051 113.968 56.1513C113.891 57.9445 113.823 61.3746 113.789 68.0468C113.756 74.5089 113.756 83.0781 113.756 94.7657H-24.2444C-24.2444 72.6181 -24.2629 58.6049 -23.9068 50.2645C-23.7583 46.7859 -23.4122 38.6767 -21.1971 29.9478C-17.6401 15.9312 -11.0962 6.5121 -6.80311 1.17695L100.711 87.6911ZM113.756 94.7657C113.756 106.453 113.756 115.022 113.789 121.485C113.823 128.157 113.891 131.587 113.968 133.38C114.004 134.226 114.012 133.93 113.912 132.979C113.821 132.118 113.506 129.355 112.563 125.64C111.501 121.456 109.717 116.329 106.733 110.886C103.935 105.783 101.065 102.28 100.711 101.84L-6.80311 188.354C-11.0962 183.019 -17.6401 173.6 -21.1971 159.584C-23.4122 150.855 -23.7583 142.746 -23.9068 139.267C-24.2629 130.927 -24.2444 116.913 -24.2444 94.7657H113.756ZM101.23 102.494C79.081 74.2757 34.0731 68.9987 6.6548 99.4684L109.237 191.777C75.9563 228.762 20.2706 222.854 -7.32247 187.701L101.23 102.494ZM6.57279 99.5597C4.52387 101.845 1.14952 105.941 -1.9933 111.699C-5.04851 117.297 -6.75812 122.389 -7.73462 126.155C-8.63868 129.641 -8.98117 132.267 -9.09596 133.231C-9.22083 134.279 -9.23305 134.745 -9.20362 134.225C-9.1385 133.074 -9.05181 130.573 -8.96982 125.395C-8.89091 120.411 -8.82736 113.828 -8.74843 104.875L129.246 106.092C129.098 122.904 128.996 134.605 128.576 142.021C128.395 145.213 127.958 152.653 125.848 160.793C122.629 173.204 116.686 183.469 109.319 191.686L6.57279 99.5597ZM-8.74875 104.912L-8.43469 66.9796L129.561 68.1221L129.247 106.055L-8.74875 104.912ZM109.444 18.8519L126.613 36.0844L28.8496 133.482L11.6814 116.25L109.444 18.8519ZM126.613 36.0844C130.256 39.7416 132.82 42.2811 134.698 44.0926C136.718 46.0414 137.15 46.3737 136.699 45.9969C136.621 45.9321 132.849 42.6694 126.574 39.5494C123.028 37.786 118.513 35.9711 113.122 34.6812C107.614 33.3631 102.519 32.9109 98.1446 32.9109V170.911C71.2168 170.911 53.685 156.467 48.2058 151.888C42.4018 147.038 35.6235 140.282 28.8496 133.482L126.613 36.0844ZM98.1446 32.9109C91.2934 32.9109 84.3687 33.9916 77.7104 36.1879C71.6127 38.1993 67.1286 40.6919 64.5458 42.2893C61.9951 43.8667 60.3301 45.1796 59.8353 45.5754C59.27 46.0276 59.1629 46.147 59.6969 45.666C60.8393 44.637 62.9967 42.601 66.9271 38.7378C70.7443 34.9859 75.6887 30.0497 82.2386 23.4752L180.002 120.873C167.387 133.535 158.359 142.525 152.059 148.2C149.204 150.772 143.842 155.507 137.131 159.658C128.69 164.878 115.392 170.911 98.1446 170.911V32.9109ZM82.2386 23.4752L111.969 -6.36654L209.732 91.0315L180.002 120.873L82.2386 23.4752ZM214.249 -1.36669L216.657 1.57545L109.86 88.9738L107.452 86.0317L214.249 -1.36669ZM216.967 1.9581C231.263 19.6839 240.55 40.2641 246.163 60.8684L113.015 97.1401C111.3 90.8447 109.49 88.5183 109.549 88.5912L216.967 1.9581ZM246.191 60.9733C250.016 75.1016 250.499 90.2568 250.347 100.133C250.189 110.428 249.168 124.889 245.423 138.314L112.498 101.234C112.152 102.477 112.024 103.203 112.015 103.252C111.998 103.348 112.037 103.141 112.097 102.611C112.222 101.501 112.335 99.8777 112.364 98.0146C112.392 96.1377 112.326 94.6516 112.254 93.8026C112.22 93.4026 112.206 93.4057 112.264 93.7701C112.309 94.0628 112.5 95.2367 112.987 97.0351L246.191 60.9733ZM245.264 138.875C241.078 153.408 232.679 172.754 222.092 186.924L111.543 104.322C110.934 105.137 110.558 105.711 110.404 105.951C110.238 106.21 110.19 106.301 110.247 106.201C110.377 105.972 110.694 105.385 111.113 104.489C111.524 103.613 111.909 102.706 112.223 101.889C112.551 101.038 112.675 100.613 112.657 100.673L245.264 138.875ZM222.397 186.513C228.563 178.131 238.533 158.05 229.79 132.628C219.376 102.344 191.649 90.3878 171.528 90.3878V228.388C144.08 228.388 111.485 212.964 99.291 177.505C88.7689 146.908 100.047 119.945 111.238 104.733L222.397 186.513ZM171.528 90.3878C156 90.3878 143.961 95.8614 136.459 100.822C129.518 105.411 125.497 110.136 124.042 111.941C121.395 115.225 121.235 116.467 123.688 111.5L247.424 172.601C243.91 179.717 238.673 189.628 231.472 198.56C226.181 205.121 206.342 228.388 171.528 228.388V90.3878ZM123.635 111.606C128.817 101.067 127.814 90.5075 122.018 81.8877L236.532 4.87883C270.306 55.1019 274.119 118.306 247.477 172.494L123.635 111.606ZM122.035 81.9142C119.612 78.3142 118.296 76.9556 118.695 77.3647C118.775 77.4476 120.757 79.5336 124.504 82.1102C126.425 83.4309 129.967 85.6854 134.926 87.7769C139.555 89.7291 148.453 92.839 160.222 92.839V-45.161C183.007 -45.161 198.837 -34.2533 202.689 -31.605C209.116 -27.1863 214.166 -22.4011 217.584 -18.8901C224.655 -11.6247 231.086 -3.21122 236.514 4.8523L122.035 81.9142ZM160.222 92.839C166.202 92.839 170.916 92.0507 173.462 91.5493C176.266 90.9971 178.52 90.3687 179.994 89.9227C182.874 89.051 185.052 88.1766 186.093 87.7455C188.249 86.8516 189.759 86.0813 190.141 85.8859C191.122 85.3847 191.544 85.1232 191.326 85.2516L121.163 -33.5807C122.725 -34.503 124.926 -35.7628 127.346 -36.9995C128.448 -37.5627 130.592 -38.6351 133.256 -39.7391C134.55 -40.2753 136.95 -41.2318 140.015 -42.1593C141.683 -42.6644 149.69 -45.161 160.222 -45.161V92.839Z" fill="#E0E0E0" mask="url(#path-3-inside-2_384_382)"/>
</svg>
