<svg width="530" height="236" viewBox="0 0 530 236" fill="none" xmlns="http://www.w3.org/2000/svg">
<path d="M168.054 94.1219V109.042H120.504L118.541 94.1219L114.403 62.6803L112.442 47.7606L110.521 33.3242L108.944 21.2855C108.635 19.0705 108.005 17.6409 106.288 17.6409C104.869 17.6409 103.931 18.7166 103.463 20.8021L94.525 52.1359L81.8245 96.659C80.1076 102.979 75.0849 106.14 69.1341 106.14C63.4822 106.14 58.1619 102.979 56.4337 96.9711L34.9564 20.6512C34.3272 18.4375 33.5485 17.4912 32.1305 17.4912C30.7125 17.4912 29.6248 18.5657 29.3158 21.1244L16.3051 109.644H0L14.7376 15.7494C16.1456 6.58017 22.7244 1.68981 31.1922 1.68981C38.7206 1.68981 45.1411 5.323 47.4974 13.6969L67.7588 87.4898C68.0791 88.9093 68.3881 89.3812 69.1768 89.3812C69.9668 89.3812 70.2431 88.9093 70.7455 87.4898L90.7608 13.9759C91.5031 10.8286 93.1974 7.99208 95.6076 5.8558C98.0179 3.72079 101.027 2.39259 104.219 2.05515C105.878 1.70122 107.568 1.53249 109.263 1.55025H166.956V16.47H123.404L127.883 47.7606H163.82V62.6803H130.005L134.505 94.1219H168.054Z" fill="#ECEEED"/>
<path d="M55.4634 234.085V129.645H71.2359V174.695H126.134V129.645H141.906V234.085H126.134V189.346H71.2359V234.085H55.4634Z" fill="#ECEEED"/>
<path d="M184.72 142.274C187.813 132.45 195.384 127.774 204.054 127.774C212.724 127.774 220.445 132.45 223.537 142.274L251.829 234.083H235.747L228.208 208.533L179.964 208.694L172.382 234.105H156.429L184.72 142.274ZM184.261 194.172H223.995L210.079 146.95C209.013 143.672 207.146 142.113 204.204 142.113C201.259 142.113 199.255 143.672 198.327 146.95L184.261 194.172Z" fill="#ECEEED"/>
<path d="M254.606 181.661C254.606 151.563 278.067 127.732 307.34 127.732C325.117 127.732 341.358 136.934 349.238 152.209L336.442 159.733C330.406 149.285 320.052 142.9 306.753 142.9C286.62 142.9 270.858 159.733 270.858 181.661C270.858 203.955 286.471 220.949 306.732 220.949C320.03 220.949 330.544 214.499 336.421 204.106L349.217 211.63C341.337 226.915 325.096 235.955 307.319 235.955C278.11 235.955 254.606 212.103 254.606 181.661Z" fill="#ECEEED"/>
<path d="M174.005 53.9283C174.005 23.8314 197.466 0 226.727 0C244.516 0 260.757 9.20097 268.637 24.4759L255.841 32.001C249.773 21.4985 239.408 15.1239 226.088 15.1239C205.986 15.1239 190.215 31.9579 190.215 53.9283C190.215 76.2222 205.837 93.2071 226.088 93.2071C239.386 93.2071 249.912 86.8212 255.777 76.3732L268.574 83.8971C260.693 99.172 244.452 108.212 226.665 108.212C197.508 108.17 174.005 84.3271 174.005 53.9283Z" fill="#ECEEED"/>
<path d="M298.46 1.86853V106.296H282.688V1.86853H298.46Z" fill="#ECEEED"/>
<path d="M341.131 14.5011C344.224 4.67596 351.806 0 360.433 0C369.059 0 376.855 4.67596 379.947 14.5011L408.239 106.299H392.158L384.587 80.7371L336.342 80.8982L328.76 106.299H312.839L341.131 14.5011ZM340.672 66.3984H380.406L366.49 19.177C365.423 15.8978 363.557 14.3399 360.614 14.3399C357.67 14.3399 355.665 15.8978 354.739 19.177L340.672 66.3984Z" fill="#ECEEED"/>
<path d="M363.311 234.085V129.645H379.083V174.695H394.087C395.438 170.741 397.539 167.09 400.272 163.945L429.192 129.656H447.321L414.829 168.611C410.809 173.759 408.494 177.812 408.494 181.703C408.494 185.595 410.809 189.346 414.829 194.484L448.388 234.085H428.883L400.272 200.257C397.534 197.054 395.434 193.35 394.087 189.346H379.083V234.085H363.311Z" fill="#ECEEED"/>
<path d="M454.552 213.505L467.85 206.969C471.871 216.009 480.648 220.836 492.9 220.836C505.153 220.836 514.227 215.074 514.227 204.776C514.227 193.242 503.714 191.221 491.493 188.878C475.87 185.761 456.547 180.623 456.547 158.49C456.547 141.183 472.158 128.092 491.802 128.092C507.573 128.092 521.66 135.615 527.835 149.912L514.687 156.77C510.506 148.171 502.626 142.903 491.225 142.903C480.712 142.903 472.201 149.138 472.201 158.017C472.201 169.239 483.185 171.733 495.662 174.227C511.125 177.344 530 182.493 530 204.626C530 223.018 513.759 235.799 492.878 235.799C475.433 235.799 460.695 227.886 454.552 213.505Z" fill="#ECEEED"/>
</svg>
