<svg width="110" height="110" viewBox="0 0 110 110" fill="none" xmlns="http://www.w3.org/2000/svg">
<g filter="url(#filter0_d_295_457)">
<path d="M51.6016 62.6225L54.7691 65.9987L65.1291 55.6412L65.1292 55.6411C69.9511 50.823 72.675 48.1388 74.4004 46.6621C75.2629 45.9239 75.9035 45.4629 76.4527 45.1888C77.0226 44.9043 77.4838 44.8261 77.9667 44.8261C78.5042 44.8261 79.1156 44.9304 79.6645 45.1048C80.1957 45.2735 80.7332 45.5283 81.0833 45.8739C81.2242 46.0003 81.3603 46.1512 81.4791 46.3646C81.5976 46.5775 81.688 46.8329 81.761 47.1554C81.9048 47.7901 81.9974 48.7609 82.0608 50.3394C82.1882 53.5086 82.2014 59.2717 82.2014 70.0421C82.2014 72.168 82.2047 74.105 82.2076 75.8708C82.2136 79.5 82.2185 82.4062 82.1916 84.7433C82.1518 88.2086 82.0426 90.4677 81.7533 92.0016C81.4592 93.5612 80.965 94.4456 80.1125 95.0872C79.7068 95.3926 79.2377 95.6293 78.7235 95.8635C78.5196 95.9563 78.3129 96.047 78.0973 96.1415C77.7484 96.2945 77.376 96.4577 76.9542 96.6573L76.954 96.6574C68.8174 100.501 61.8527 101.854 52.2269 101.423C44.8543 101.1 40.0436 99.959 33.6851 97.0361L33.6828 97.035C15.0903 88.3709 3.39806 68.9342 4.58226 48.518C5.87759 24.4809 23.0147 5.20566 46.7692 0.876411C48.9925 0.462776 53.0182 0.413353 57.0489 0.614861C61.0852 0.816643 65.209 1.27432 67.6349 1.90363L67.6388 1.90468C70.8518 2.76609 73.3447 3.63409 75.0976 4.52126C75.9741 4.9649 76.6837 5.4223 77.2089 5.8996C77.7317 6.37473 78.0991 6.89481 78.2378 7.46685C78.5113 8.54089 78.3098 9.68699 77.8051 10.6197C77.3016 11.5501 76.4672 12.3189 75.4215 12.575C74.9161 12.7093 74.232 12.6809 73.5116 12.5568C72.7731 12.4295 71.9391 12.1912 71.1098 11.8583C63.1448 8.67983 52.5813 7.88735 44.9003 9.84203C28.3945 14.081 16.2128 27.3253 13.3116 44.1242C12.947 46.2968 12.8649 49.7263 13.0177 53.1655C13.1704 56.6042 13.5552 59.9923 14.1022 62.0851C14.5722 63.8099 16.1014 67.5246 17.4311 70.3043C18.5205 72.4934 19.3049 73.921 20.3843 75.3711C21.4678 76.8266 22.8591 78.3189 25.1784 80.6224L25.1804 80.6244C29.378 84.8421 31.4151 86.4628 34.7101 88.1446L34.7129 88.146C43.0115 92.447 51.3408 94.0838 59.4981 93.0785C64.045 92.4943 69.8999 90.9002 72.5591 89.5943L73.7319 88.9394V73.8997V59.7189L65.8895 67.5525L65.8889 67.5532C65.3809 68.0588 64.8973 68.5417 64.4362 69.0021C62.3875 71.0479 60.7841 72.6491 59.4668 73.819C57.868 75.239 56.6026 76.1089 55.3862 76.3235C54.1121 76.5482 53.0106 76.0413 51.8006 75.0678C50.8043 74.2663 49.6612 73.0869 48.2166 71.5964C47.9256 71.2961 47.6224 70.9833 47.3057 70.6584C45.0172 68.3334 43.6319 66.8622 42.8212 65.7856C41.9942 64.6872 41.72 63.9401 41.72 63.0722C41.72 60.6543 43.5962 58.7658 46.0083 58.7658C46.8116 58.7658 47.4978 58.9624 48.3496 59.5599C49.1704 60.1357 50.1627 61.0961 51.6008 62.6216L51.6016 62.6225Z" fill="white" stroke="white" stroke-miterlimit="10"/>
<path d="M84.3913 13.9244L84.3912 13.9243L84.4023 13.9178C84.8617 13.647 85.3262 13.3872 85.7067 13.1933C85.8962 13.0967 86.0716 13.013 86.2185 12.9521C86.2917 12.9217 86.3646 12.8941 86.4328 12.8732C86.4913 12.8553 86.5846 12.83 86.6851 12.8288H86.691C87.3043 12.8288 87.9963 13.1554 88.6999 13.638C89.4221 14.1334 90.2326 14.8471 91.0991 15.7349C92.8338 17.5124 94.8348 20.0316 96.855 23.0238L96.8551 23.024C107.083 38.1923 108.324 57.2058 100.104 73.8805L100.104 73.8813C98.5728 76.9728 97.2535 79.2251 96.0521 80.7103C94.8645 82.1786 93.7039 83.0068 92.4757 83.0068C90.4292 83.0068 88.9645 82.0231 88.4267 80.4638C87.9008 78.9394 88.313 77.0121 89.6623 75.1842L89.6644 75.1814C91.8689 72.239 94.5252 66.5599 95.7982 62.152C96.5313 59.5299 96.9449 55.6109 97.0051 51.716C97.0653 47.8176 96.7704 44.0118 96.1195 41.6118C94.2576 34.8001 91.4465 29.0222 87.8567 24.5824C87.8565 24.5821 87.8562 24.5817 87.8559 24.5814L86.977 23.5095L72.153 38.3489L72.1529 38.3489C65.4327 45.0748 61.5778 48.8801 59.2151 51.0028C58.0358 52.0623 57.2066 52.7227 56.5647 53.1187C55.9103 53.5224 55.4181 53.6717 54.9238 53.6717C54.0163 53.6717 53.1899 53.2904 51.6912 52.0415C50.1903 50.7908 47.9231 48.588 44.1243 44.7852L36.1835 36.8362L36.0322 55.0002L36.0322 55.0004C35.9529 64.0827 35.8998 68.9515 35.745 71.6815C35.6679 73.0427 35.564 73.9079 35.4074 74.5097C35.2428 75.1427 35.0178 75.4914 34.7266 75.8154L34.7258 75.8163C33.0072 77.7187 29.9115 77.5215 28.3378 75.5239C28.03 75.1427 27.7748 74.7804 27.5931 74.0673C27.4209 73.391 27.3142 72.4005 27.2438 70.7563C27.1025 67.4611 27.1025 61.3811 27.1025 49.5595V49.5256V49.4917C27.1025 37.6701 27.1025 31.5901 27.2438 28.2949C27.3142 26.6507 27.4209 25.6602 27.5931 24.9839C27.7746 24.2716 28.0294 23.9093 28.3368 23.5286C28.7464 23.002 29.2025 22.6002 29.7372 22.3327C30.2742 22.0642 30.8622 21.9452 31.5136 21.9452C32.4409 21.9452 33.3317 22.4194 35.0815 23.9302C36.8525 25.4593 39.6125 28.1551 44.2958 32.8164L44.2959 32.8165L54.7622 43.2416L68.5512 29.281L68.5519 29.2802C72.4378 25.3634 76.1631 21.674 79.0249 18.8961C80.4555 17.5074 81.672 16.345 82.5855 15.4953C83.042 15.0707 83.425 14.7221 83.7225 14.4617C84.0078 14.2118 84.2436 14.0167 84.3913 13.9244Z" fill="white" stroke="white" stroke-miterlimit="10"/>
</g>
<defs>
<filter id="filter0_d_295_457" x="0" y="0" width="110" height="110" filterUnits="userSpaceOnUse" color-interpolation-filters="sRGB">
<feFlood flood-opacity="0" result="BackgroundImageFix"/>
<feColorMatrix in="SourceAlpha" type="matrix" values="0 0 0 0 0 0 0 0 0 0 0 0 0 0 0 0 0 0 127 0" result="hardAlpha"/>
<feOffset dy="4"/>
<feGaussianBlur stdDeviation="2"/>
<feComposite in2="hardAlpha" operator="out"/>
<feColorMatrix type="matrix" values="0 0 0 0 0 0 0 0 0 0 0 0 0 0 0 0 0 0 0.25 0"/>
<feBlend mode="normal" in2="BackgroundImageFix" result="effect1_dropShadow_295_457"/>
<feBlend mode="normal" in="SourceGraphic" in2="effect1_dropShadow_295_457" result="shape"/>
</filter>
</defs>
</svg>
