<svg width="484" height="493" viewBox="0 0 484 493" fill="none" xmlns="http://www.w3.org/2000/svg">
<path d="M53.0828 293.378C68.1313 293.378 82.9258 293.378 97.9123 293.378C97.9123 303.945 97.9123 314.23 97.9123 324.796C96.8753 324.84 95.8966 324.918 94.9178 324.919C81.5395 324.928 68.1611 324.898 54.7831 324.959C52.8626 324.968 50.8911 325.197 49.0354 325.68C44.8666 326.763 42.3589 329.706 42.0178 333.994C41.8732 335.814 42.1279 337.721 42.534 339.513C42.9843 341.499 44.3921 342.878 46.2447 343.776C48.8123 345.019 51.5558 345.431 54.3631 345.524C60.8765 345.741 67.3999 345.784 73.9012 346.188C79.1005 346.512 84.0598 347.95 88.5086 350.8C94.6903 354.761 98.9785 360.31 101.956 366.949C105.97 375.897 107.216 385.348 106.277 394.984C105.187 406.158 101.067 416.137 92.7558 424.023C87.9109 428.619 82.1256 430.904 75.3988 431.365C53.2358 432.882 31.0496 432.096 8.87415 432.312C7.77571 432.323 6.67635 432.277 5.57817 432.237C5.42429 432.231 5.27472 432.107 5.12654 432.04C4.61571 430.269 4.41441 405.719 4.90941 401.108C5.90898 401.048 6.96625 400.931 8.02362 400.93C20.5552 400.92 33.0868 400.954 45.6182 400.914C49.8454 400.9 54.0635 400.741 58.2089 399.675C63.1002 398.417 66.1561 395.803 66.5085 389.694C66.9658 381.768 61.4013 377.342 55.928 376.859C54.3286 376.717 52.7223 376.62 51.1174 376.584C44.6858 376.437 38.2466 376.464 31.8236 376.152C26.5614 375.896 21.3625 374.92 16.7349 372.24C8.67655 367.573 3.85329 360.418 1.64577 351.482C-0.245221 343.828 -0.502076 336.052 0.851576 328.295C2.62176 318.15 6.34519 308.956 14.3784 301.983C18.7144 298.219 23.7413 295.837 29.311 294.859C33.7075 294.088 38.2058 293.83 42.6717 293.542C46.0469 293.325 49.4423 293.421 53.0828 293.378Z" fill="white"/>
<path d="M357.105 391.553C355.442 392.538 353.937 393.427 352.006 394.568C351.968 392.472 351.904 390.823 351.917 389.174C351.931 387.317 351.443 385.154 352.227 383.688C353.005 382.235 355.063 381.436 356.612 380.432C369.965 371.779 382.06 361.628 392.73 349.827C406.163 334.97 417.075 318.447 425.108 300.06C430.129 288.566 433.98 276.706 436.604 264.431C438.339 256.315 439.534 248.119 440.099 239.865C440.538 233.463 440.44 227.011 440.317 220.587C440.219 215.518 439.881 210.44 439.351 205.398C438.901 201.123 437.988 196.899 437.339 192.643C436.216 185.275 434.267 178.107 432.008 171.027C426.467 153.67 418.502 137.495 408.178 122.474C400.084 110.697 390.683 100.052 380.12 90.473C365.988 77.6584 350.205 67.3083 332.813 59.4043C322.631 54.7769 312.132 51.0947 301.293 48.4182C293.832 46.5757 286.263 45.3052 278.612 44.385C268.579 43.1783 258.538 42.744 248.474 43.2886C242.664 43.603 236.883 44.459 231.09 45.0809C224.697 45.7671 218.446 47.2027 212.231 48.7801C201.902 51.4017 191.918 54.9928 182.184 59.3551C170.158 64.7444 158.934 71.4676 148.361 79.2751C139.837 85.5694 132.008 92.6731 124.693 100.355C116.202 109.274 108.723 118.962 102.182 129.386C94.5089 141.616 88.3891 154.568 83.7835 168.265C81.4409 175.232 79.5011 182.302 78.0034 189.473C76.8317 195.082 76.1693 200.806 75.442 206.5C74.292 215.503 73.9856 224.557 74.4323 233.618C74.74 239.861 75.2782 246.079 76.1591 252.293C77.621 262.605 80.0021 272.667 83.0894 282.585C83.8358 284.983 84.6856 287.349 85.6318 290.156C83.7207 290.19 82.1623 290.228 80.6037 290.241C79.0028 290.254 77.4017 290.244 75.551 290.244C74.7252 287.975 73.7544 285.825 73.1589 283.576C71.3674 276.809 69.4616 270.056 68.0975 263.198C66.8805 257.079 66.2556 250.838 65.4939 244.635C64.261 234.596 64.6682 224.506 64.9074 214.438C65.0054 210.312 65.6929 206.19 66.257 202.086C66.924 197.234 67.573 192.367 68.5522 187.573C69.5283 182.794 70.8572 178.084 72.1125 173.366C75.6277 160.154 80.94 147.654 87.3473 135.616C92.4051 126.112 98.3016 117.148 104.864 108.599C111.588 99.839 119.096 91.814 127.15 84.3049C130.978 80.7359 135.171 77.5578 139.207 74.2133C145.345 69.1271 152.001 64.7862 158.807 60.6684C172.333 52.4851 186.706 46.1829 201.816 41.5928C208.671 39.5104 215.646 37.8931 222.7 36.5527C229.69 35.2245 236.734 34.2682 243.796 33.8526C251.727 33.3858 259.708 33.5052 267.658 33.7245C275.853 33.9506 283.964 35.117 292.05 36.5551C308.877 39.5479 324.948 44.8408 340.334 52.1832C353.196 58.3208 365.196 65.8795 376.416 74.7107C386.299 82.4905 395.374 91.0937 403.554 100.622C414.63 113.522 423.922 127.639 431.296 142.962C436.324 153.409 440.359 164.25 443.429 175.457C445.665 183.617 447.355 191.884 448.559 200.237C450.301 212.328 450.732 224.53 450.081 236.705C449.672 244.36 448.785 252.011 447.393 259.6C445.836 268.088 443.854 276.443 441.267 284.667C435.719 302.303 427.664 318.723 417.382 334.065C407.95 348.14 396.785 360.707 384.059 371.857C375.713 379.169 366.801 385.754 357.105 391.553Z" fill="white"/>
<path d="M369.402 345.305C369.735 344.83 370.019 344.309 370.409 343.887C373.741 340.286 377.138 336.744 380.428 333.106C386.923 325.927 392.475 318.043 397.441 309.752C402.626 301.097 406.934 292.01 410.421 282.536C413.431 274.356 415.793 265.987 417.425 257.433C419.602 246.019 420.713 234.484 420.354 222.858C420.143 216.013 419.584 209.192 418.582 202.394C416.237 186.474 411.584 171.275 404.728 156.752C400.058 146.859 394.336 137.588 387.827 128.785C381.455 120.168 374.155 112.399 366.28 105.196C357.769 97.4091 348.41 90.7169 338.401 84.9539C327.809 78.8551 316.66 74.0478 304.993 70.4206C297.239 68.0099 289.328 66.2588 281.314 65.0559C270.413 63.4199 259.423 62.8295 248.421 63.5449C242.111 63.9552 235.779 64.5923 229.558 65.6975C216.215 68.0682 203.316 71.9867 190.917 77.5624C179.591 82.6561 169.009 88.9786 159.138 96.4586C149.397 103.841 140.644 112.29 132.75 121.656C124.193 131.808 117.001 142.83 111.127 154.707C106.589 163.886 103.009 173.442 100.304 183.335C98.5423 189.781 97.1283 196.293 96.173 202.896C95.6533 206.488 95.4133 210.123 95.1269 213.745C94.8536 217.201 94.51 220.666 94.5114 224.127C94.5133 228.69 94.7671 233.255 95.0186 237.814C95.1766 240.677 95.4087 243.548 95.8204 246.384C96.5722 251.563 97.1682 256.796 98.403 261.867C100.038 268.581 101.955 275.256 104.233 281.779C108.234 293.233 113.614 304.057 120.279 314.216C121.948 316.76 123.693 319.255 125.386 321.784C125.661 322.195 125.85 322.664 126.192 323.325C125.499 323.457 124.965 323.641 124.429 323.648C121.889 323.678 119.348 323.612 116.809 323.678C115.394 323.715 114.438 323.22 113.655 322.012C109.56 315.685 105.696 309.223 102.484 302.402C101.789 300.927 101.526 299.175 101.393 297.524C101.213 295.27 101.348 292.989 101.348 290.455C100.304 290.376 99.4966 290.252 98.6916 290.269C97.5247 290.293 96.8045 289.872 96.4191 288.705C94.7512 283.657 92.7632 278.698 91.3909 273.573C89.624 266.974 88.0136 260.298 86.9319 253.56C85.9023 247.146 85.363 240.62 85.1148 234.124C84.8471 227.114 84.87 220.062 85.3202 213.064C85.7156 206.92 86.6923 200.794 87.7445 194.717C89.2743 185.882 91.7099 177.268 94.6982 168.806C97.8023 160.015 101.651 151.569 106.111 143.396C111.233 134.007 117.197 125.163 124.015 116.942C131.7 107.674 140.216 99.2251 149.623 91.6522C161.635 81.9813 174.716 74.1212 188.778 67.8868C196.582 64.4269 204.653 61.6616 212.907 59.4476C220.167 57.5 227.531 56.0255 234.973 55.0409C239.742 54.41 244.575 54.2834 249.371 53.8385C256.909 53.1392 264.436 53.7201 271.943 54.1707C276.897 54.4681 281.806 55.5034 286.738 56.193C292.599 57.0124 298.307 58.5034 304.002 60.0653C312.326 62.3483 320.395 65.3234 328.259 68.8734C339.717 74.0457 350.489 80.3996 360.522 87.9558C370.209 95.2513 379.116 103.389 387.105 112.574C395.476 122.2 402.755 132.548 408.946 143.669C414.06 152.855 418.248 162.478 421.407 172.5C423.434 178.932 425.328 185.443 426.662 192.044C427.998 198.651 428.819 205.392 429.39 212.114C429.911 218.258 429.814 224.455 429.957 230.629C430.124 237.845 429.295 245.014 428.225 252.104C426.19 265.586 422.576 278.684 417.413 291.334C413.92 299.895 409.82 308.158 404.999 316.032C399.153 325.577 392.441 334.491 384.915 342.8C380.243 347.958 375.217 352.72 369.789 357.028C369.549 352.97 369.475 349.138 369.402 345.305Z" fill="white"/>
<path d="M151.807 328.144C156.39 341.345 161.118 354.286 165.342 367.39C167.617 374.445 169.027 381.779 170.882 389.209C171.072 388.696 171.303 388.258 171.395 387.792C172.651 381.496 173.55 375.106 175.21 368.92C177.464 360.518 180.286 352.269 182.885 343.961C184.473 338.884 186.148 333.834 187.676 328.74C188.03 327.559 188.539 327.041 189.762 327.044C201.104 327.072 212.446 327.072 223.788 327.09C224.028 327.091 224.267 327.211 224.844 327.365C223.039 333.256 220.795 338.949 218.778 344.715C216.712 350.617 214.62 356.51 212.528 362.402C210.464 368.216 208.387 374.026 206.311 379.836C204.235 385.643 202.146 391.445 200.076 397.255C197.978 403.144 195.9 409.039 193.807 414.93C191.745 420.737 189.676 426.542 187.559 432.49C186.642 432.533 185.813 432.604 184.983 432.605C173.979 432.612 162.975 432.613 151.971 432.605C149.501 432.603 149.467 432.573 148.686 430.358C139.066 403.106 129.454 375.851 119.829 348.601C117.466 341.908 115.059 335.231 112.678 328.545C112.567 328.234 112.508 327.904 112.373 327.385C112.991 327.263 113.533 327.064 114.075 327.063C125.84 327.05 137.605 327.052 149.37 327.079C150.229 327.081 151.311 326.694 151.807 328.144Z" fill="white"/>
<path d="M401.793 238.426C401.946 232.522 402.314 226.853 402.195 221.195C402.043 213.928 401.152 206.721 399.815 199.553C398.042 190.05 395.348 180.834 391.712 171.905C387.387 161.284 381.864 151.299 375.161 141.981C368.757 133.082 361.421 125.023 353.224 117.754C340.765 106.706 326.807 98.0865 311.369 91.828C302.651 88.2936 293.681 85.6035 284.455 83.9071C272.281 81.6688 259.996 80.646 247.603 81.6968C240.784 82.275 233.975 83.0106 227.294 84.4917C220.375 86.0253 213.553 87.9521 206.911 90.4713C198.67 93.5972 190.739 97.3756 183.195 101.924C175.284 106.694 167.915 112.201 160.977 118.33C153.642 124.809 147.072 131.986 141.314 139.839C137.172 145.487 133.467 151.495 129.994 157.586C125.461 165.533 122.005 174.002 119.234 182.73C116.955 189.908 115.177 197.228 114.117 204.672C112.923 213.048 112.07 221.489 112.541 229.971C112.831 235.201 113.422 240.415 113.921 245.632C114.705 253.827 116.709 261.763 119.123 269.605C123.308 283.2 129.434 295.884 137.475 307.592C140.915 312.601 144.878 317.251 148.605 322.062C148.857 322.387 149.119 322.704 149.552 323.241C148.912 323.421 148.489 323.639 148.063 323.643C145.185 323.675 142.305 323.608 139.428 323.686C138.034 323.723 136.978 323.336 136.156 322.181C133.217 318.049 130.11 314.03 127.318 309.802C122.881 303.084 119.141 295.966 115.9 288.592C112.083 279.906 108.961 270.985 106.984 261.692C105.965 256.902 104.707 252.124 104.211 247.273C103.454 239.878 103.028 232.429 102.896 224.995C102.752 216.868 103.539 208.761 104.937 200.749C106.814 189.984 109.73 179.51 113.768 169.327C118.887 156.418 125.697 144.485 134.003 133.407C141.137 123.893 149.342 115.37 158.463 107.723C168.766 99.0869 179.994 91.9203 192.146 86.1908C200.255 82.3676 208.637 79.2444 217.287 76.9302C224.458 75.0118 231.744 73.6146 239.143 72.7732C247.4 71.8344 255.662 71.3937 263.955 71.7948C271.044 72.1376 278.083 72.8878 285.084 74.1805C294.492 75.9176 303.643 78.4627 312.565 81.8859C327.192 87.4984 340.603 95.2023 352.928 104.894C359.879 110.359 366.255 116.41 372.183 122.914C380.824 132.394 388.103 142.866 394.096 154.234C398.682 162.933 402.467 171.951 405.335 181.353C407.157 187.324 408.52 193.399 409.676 199.541C411.327 208.31 412.007 217.154 411.988 226.034C411.972 233.554 411.582 241.065 410.458 248.547C408.861 259.191 406.313 269.566 402.598 279.644C398.072 291.921 392.072 303.437 384.625 314.219C380.575 320.084 376.04 325.536 371.383 330.904C370.856 331.511 370.201 332.007 369.367 332.774C368.296 329.676 369.306 326.755 368.582 323.901C367.636 323.756 366.748 323.62 365.418 323.416C365.938 322.652 366.268 322.045 366.711 321.535C372.88 314.419 378.347 306.802 383.027 298.628C388.85 288.46 393.437 277.781 396.667 266.489C398.459 260.225 399.76 253.88 400.837 247.48C401.326 244.571 401.483 241.606 401.793 238.426Z" fill="white"/>
<path d="M245.641 275.185C256.532 275.185 267.169 275.185 277.966 275.185C277.966 327.726 277.966 379.913 277.966 432.007C277.825 432.164 277.773 432.233 277.71 432.288C277.648 432.342 277.578 432.409 277.504 432.422C277.092 432.492 276.677 432.599 276.263 432.599C263.401 432.603 250.538 432.597 237.676 432.581C237.439 432.581 237.203 432.44 236.987 432.371C236.463 430.543 236.345 278.344 236.924 275.185C239.692 275.185 242.539 275.185 245.641 275.185Z" fill="white"/>
<path d="M250.888 97.6265C247.373 97.9742 244.069 98.1408 240.828 98.6841C235.091 99.6457 229.327 100.573 223.695 101.997C216.577 103.797 209.716 106.44 203.061 109.579C193.838 113.93 185.212 119.243 177.256 125.62C171.366 130.34 165.933 135.547 160.923 141.2C154.439 148.516 148.883 156.474 144.212 165.056C139.503 173.706 135.796 182.769 133.239 192.28C131.639 198.233 130.396 204.253 129.685 210.406C128.906 217.149 128.436 223.887 128.716 230.658C129.006 237.667 129.731 244.626 131.117 251.529C133.173 261.769 136.35 271.614 140.808 281.048C146.822 293.774 154.63 305.272 164.399 315.425C169.811 321.05 175.569 326.273 181.967 330.767C182.374 331.053 182.713 331.436 183.042 331.737C182.356 335.677 180.924 339.64 179.612 341.042C177.459 339.476 175.248 337.939 173.114 336.301C166.652 331.342 160.647 325.86 155.182 319.832C148.405 312.358 142.471 304.245 137.401 295.497C130.956 284.377 126.205 272.566 123.045 260.142C120.093 248.541 118.826 236.72 119.005 224.726C119.11 217.685 119.567 210.684 120.74 203.757C122.321 194.421 124.813 185.317 128.253 176.473C131.887 167.13 136.467 158.284 141.995 149.938C147.812 141.156 154.603 133.188 162.239 125.921C176.23 112.608 192.298 102.668 210.412 96.0274C218.283 93.1417 226.377 91.0322 234.633 89.6226C244.344 87.9648 254.148 87.6703 263.981 87.9773C270.252 88.1732 276.43 89.0595 282.602 90.1309C293.829 92.0797 304.572 95.5694 314.899 100.296C324.927 104.886 334.299 110.604 342.925 117.519C347.484 121.173 351.904 124.972 355.999 129.147C365.243 138.57 372.991 149.084 379.306 160.679C386.033 173.031 390.669 186.132 393.414 199.898C395.625 210.983 396.432 222.219 395.836 233.489C395.313 243.376 393.776 253.153 391.136 262.73C387.676 275.285 382.575 287.13 375.838 298.266C370.517 307.062 364.187 315.09 357.154 322.575C355.693 324.13 353.995 323.745 351.977 323.33C351.977 320.329 351.906 317.39 352.033 314.46C352.061 313.817 352.728 313.144 353.215 312.585C359.516 305.357 365.167 297.676 369.844 289.282C373.931 281.947 377.417 274.342 379.852 266.313C381.563 260.672 383.086 254.946 384.216 249.165C385.3 243.618 386.119 237.991 386.011 232.285C385.938 228.396 385.975 224.504 386.001 220.614C386.034 215.772 385.335 211.02 384.603 206.244C383.471 198.871 381.659 191.698 379.258 184.651C375.468 173.531 370.145 163.211 363.546 153.494C357.751 144.961 350.918 137.356 343.319 130.461C333.287 121.359 322.007 114.086 309.613 108.583C302.188 105.286 294.568 102.541 286.595 100.922C281.305 99.8485 276.002 98.6244 270.646 98.1587C264.173 97.596 257.636 97.7636 250.888 97.6265Z" fill="white"/>
<path d="M295.566 351.115C295.566 343.089 295.566 335.305 295.566 327.274C296.446 327.195 297.169 327.076 297.893 327.074C302.295 327.06 306.697 327.082 311.1 327.067C312.092 327.064 313.083 326.96 314.143 326.899C316.498 315.65 318.813 304.598 321.137 293.497C330.336 293.497 339.193 293.497 348.412 293.497C348.636 299.088 348.478 304.641 348.505 310.188C348.532 315.677 348.511 321.165 348.511 327.013C354.278 327.139 359.819 326.98 365.513 327.108C365.513 336.337 365.513 345.344 365.513 354.644C359.934 354.644 354.473 354.644 348.836 354.644C348.701 355.535 348.522 356.168 348.521 356.801C348.512 369.166 348.502 381.532 348.552 393.897C348.559 395.666 348.794 397.446 349.059 399.201C349.543 402.393 350.74 403.669 353.899 404.16C356.23 404.522 358.598 404.692 360.956 404.83C362.712 404.934 364.48 404.851 366.406 404.851C366.406 414.116 366.406 423.13 366.406 432.312C365.838 432.415 365.286 432.604 364.735 432.602C356.778 432.564 348.817 432.616 340.865 432.399C335.968 432.265 331.102 431.717 326.379 430.149C318.797 427.631 314.578 422.306 312.961 414.676C311.905 409.69 311.362 404.65 311.367 399.549C311.379 385.659 311.371 371.77 311.371 357.88C311.371 356.962 311.371 356.044 311.371 354.826C306.118 354.826 301.081 354.826 295.752 354.826C295.68 353.48 295.623 352.419 295.566 351.115Z" fill="white"/>
<path d="M155.565 291.909C149.516 282.629 145.012 272.827 141.718 262.453C139.669 256 138.14 249.405 137.301 242.709C136.079 232.948 135.965 223.142 136.989 213.325C138.47 199.134 142.494 185.699 148.732 172.908C152.906 164.35 158.051 156.378 164.147 149.089C173.9 137.428 185.393 127.791 198.719 120.395C208.682 114.866 219.196 110.839 230.3 108.231C241.258 105.657 252.334 104.912 263.537 105.319C270.57 105.574 277.467 106.669 284.33 108.206C300.491 111.825 315.209 118.611 328.56 128.325C339.173 136.046 348.295 145.3 355.965 155.985C365.204 168.856 371.624 183.017 375.369 198.379C376.748 204.037 377.784 209.795 378.084 215.627C378.376 221.284 378.756 226.971 378.476 232.614C378.204 238.079 377.257 243.524 376.399 248.944C374.923 258.265 371.906 267.131 368.106 275.743C364.298 284.375 359.449 292.388 353.733 299.882C353.355 300.378 352.876 300.797 352.02 301.698C352.02 297.683 352.02 294.263 352.02 290.767C351.046 290.447 350.287 290.198 349.311 289.877C370.074 257.692 374.861 223.423 361.775 187.401C352.311 161.346 334.836 141.543 310.477 128.345C262.463 102.331 203.992 114.675 170.508 156.783C149.405 183.321 141.765 213.705 148.012 247.068C154.239 280.33 172.811 305.333 201.961 323.354C200.724 323.52 200.179 323.653 199.632 323.656C195.315 323.68 190.995 323.735 186.68 323.64C185.752 323.619 184.699 323.22 183.94 322.669C178.025 318.375 172.809 313.295 167.864 307.943C163.32 303.025 159.226 297.745 155.565 291.909Z" fill="white"/>
<path d="M264.193 135.329C258.883 134.932 253.833 135.036 248.752 135.542C241.739 136.241 234.93 137.688 228.255 139.913C219.595 142.799 211.591 146.955 204.219 152.3C189.587 162.91 178.923 176.667 172.333 193.481C169.243 201.364 167.076 209.534 166.717 218.075C166.537 222.382 166.095 226.707 166.313 230.996C167.178 248.018 172.382 263.659 182.005 277.747C191.121 291.092 202.933 301.42 217.484 308.469C221.72 310.521 226.257 311.955 230.655 313.674C231.432 313.978 232.207 314.289 233.054 314.625C233.054 317.788 233.054 320.877 233.054 324.327C231.465 323.977 230.079 323.769 228.754 323.363C217.085 319.788 206.305 314.407 196.606 307C184.673 297.887 175.127 286.709 168.118 273.377C163.721 265.012 160.487 256.229 158.551 247.004C157.459 241.8 156.648 236.52 156.688 231.164C156.725 226.343 156.495 221.496 156.916 216.707C157.321 212.094 158.201 207.494 159.241 202.974C160.99 195.376 163.686 188.09 167.246 181.133C171.117 173.566 175.816 166.585 181.373 160.133C189.717 150.444 199.623 142.775 210.878 136.831C218.513 132.798 226.568 129.901 235.009 127.934C244.07 125.823 253.201 125.188 262.442 125.586C282.064 126.431 299.817 132.757 315.786 144.092C331.344 155.137 342.831 169.552 350.402 187.033C353.492 194.167 355.509 201.646 356.916 209.326C358.424 217.557 358.738 225.843 358.134 234.096C357.227 246.483 354.076 258.38 348.679 269.632C345.667 275.911 341.979 281.767 337.925 287.416C336.483 289.425 334.863 290.529 332.23 290.3C329.393 290.053 326.519 290.244 323.005 290.244C324.278 288.655 325.138 287.48 326.1 286.398C335.668 275.634 342.083 263.183 345.79 249.323C347.832 241.692 348.804 233.87 348.703 225.983C348.545 213.519 346.116 201.512 341.078 190.031C335.967 178.384 328.838 168.186 319.542 159.575C308.83 149.651 296.472 142.557 282.338 138.593C276.452 136.942 270.493 135.909 264.193 135.329Z" fill="white"/>
<path d="M288.479 249.208C280.637 259.52 270.31 264.957 257.623 264.995C236.803 265.058 221.759 249.486 219.271 231.83C216.453 211.833 229.845 192.665 249.617 188.61C276.403 183.117 300.487 206.808 295.325 233.597C294.236 239.243 292.022 244.425 288.479 249.208Z" fill="white"/>
<path d="M295.823 152.616C305.512 157.764 313.791 164.381 320.773 172.599C327.979 181.082 333.308 190.627 336.673 201.243C339.953 211.59 341.081 222.152 340.264 233.009C339.393 244.584 336.187 255.405 330.746 265.584C325.833 274.777 319.433 282.788 311.476 289.581C303.526 296.365 294.647 301.468 284.845 305.01C283.835 305.375 282.78 305.619 281.515 305.985C281.393 305.12 281.237 304.489 281.226 303.856C281.193 301.908 281.273 299.958 281.197 298.013C281.139 296.546 281.624 295.754 283.104 295.215C290.31 292.592 296.908 288.841 302.9 284.051C307.945 280.018 312.426 275.437 316.308 270.257C321.331 263.553 325.154 256.203 327.546 248.219C330.277 239.105 331.706 229.77 330.651 220.186C329.625 210.868 327.328 201.921 323.066 193.537C319.201 185.935 314.187 179.201 308.006 173.294C302.007 167.561 295.288 162.937 287.742 159.534C281.411 156.68 274.82 154.762 267.913 153.719C263.942 153.12 260.009 153.045 256.04 152.991C250.509 152.914 245.145 153.928 239.781 155.175C232.371 156.898 225.522 159.891 219.09 163.864C212.873 167.704 207.314 172.32 202.48 177.863C197.938 183.072 194.117 188.699 191.15 194.923C187.853 201.841 185.797 209.104 184.661 216.692C183.901 221.766 183.816 226.856 184.23 231.886C184.63 236.737 185.699 241.57 186.868 246.313C189.317 256.25 194.178 265.053 200.626 272.905C205.852 279.269 211.982 284.702 219.055 289.037C223.468 291.742 228.12 293.909 233.037 295.762C233.037 299.077 233.037 302.323 233.037 305.614C212.013 300.374 187.273 280.858 178.064 251.294C167.967 218.878 178.012 184.491 204.258 162.538C230.041 140.972 265.235 136.877 295.823 152.616Z" fill="white"/>
<path d="M235.983 175.26C223.882 180.512 214.786 188.838 208.597 200.222C205.686 205.576 203.834 211.334 202.81 217.417C201.982 222.33 201.977 227.238 202.341 232.091C202.895 239.486 205.201 246.49 208.826 253.001C214.234 262.716 221.79 270.271 231.647 275.454C232.774 276.046 233.267 276.728 233.235 278.002C233.164 280.766 233.213 283.534 233.213 286.82C224.515 283.43 217.462 278.544 211.322 272.324C199.264 260.109 192.765 245.329 192.35 228.216C191.476 192.182 219.172 163.148 254.054 161.316C289.875 159.434 319.056 186.639 322.237 220.143C325.535 254.878 301.276 280.249 281.354 286.577C281.307 285.018 281.412 283.517 281.188 282.067C280.607 278.297 281.761 275.912 285.447 274.125C291.293 271.291 295.972 266.737 300.096 261.773C305.678 255.054 309.481 247.406 311.42 238.812C312.492 234.063 312.997 229.31 312.831 224.474C312.514 215.259 310.001 206.653 305.369 198.696C299.166 188.039 290.373 180.243 279.051 175.371C271.902 172.295 264.429 170.957 256.608 171.031C249.478 171.099 242.739 172.632 235.983 175.26Z" fill="white"/>
<path d="M246.174 465.871C244.683 465.993 243.191 466.116 241.423 466.261C241.423 474.774 241.423 483.184 241.423 491.38C240.997 491.685 240.869 491.854 240.725 491.869C236.149 492.353 236.092 492.3 236.086 487.669C236.085 486.58 236.086 485.491 236.086 484.082C235.312 484.333 234.763 484.419 234.309 484.673C231.805 486.079 229.333 487.541 226.832 488.953C225.456 489.731 225.288 489.675 224.479 488.288C223.932 487.35 223.438 486.381 222.75 485.111C227.054 482.565 231.439 480.469 235.815 478.018C234.508 475.541 232.492 474.026 230.01 473.984C227.737 473.945 225.448 474.833 222.893 475.37C222.272 474.555 221.519 473.567 220.651 472.427C222.67 470.157 225.176 469.191 227.942 468.612C230.919 467.99 233.292 469.424 235.912 471.008C235.912 469.302 235.912 467.917 235.912 466.176C230.482 466.116 225.033 466.055 219.392 465.716C219.2 464.379 219.2 463.319 219.2 461.953C209.784 461.953 200.717 461.953 191.65 461.953C192.128 460.803 193.132 461.398 193.853 461.392C201.626 461.335 209.399 461.348 217.171 461.347C225.786 461.346 234.4 461.35 243.015 461.351C244.593 461.352 246.171 461.351 247.844 461.351C247.922 460.771 248.029 460.451 247.998 460.145C247.432 454.574 250.104 450.776 255.49 449.237C260.52 447.8 264.775 449.426 268.777 452.285C269.256 452.627 269.67 453.059 269.972 453.641C268.781 453.153 267.762 452.419 266.676 451.805C262.219 449.285 257.607 448.662 252.996 451.247C250.211 452.809 248.345 455.118 248.657 458.628C248.745 459.614 248.67 460.613 248.67 461.698C247.766 461.916 247.058 462.087 246.174 462.3C246.174 463.544 246.174 464.707 246.174 465.871Z" fill="white"/>
<path d="M295.46 465.955C294.565 465.979 293.671 466.003 292.47 465.866C291.741 465.78 291.317 465.856 290.893 465.931C288.323 465.94 285.753 465.95 282.951 465.689C282.716 464.305 282.713 463.19 282.95 462.062C294.725 462.049 306.26 462.051 317.791 462.266C317.787 463.61 317.787 464.741 317.787 465.871C316.567 465.922 315.347 465.973 313.772 465.863C311.751 465.959 312.218 467.28 312.213 468.268C312.18 474.845 312.196 481.421 312.196 487.998C312.196 488.897 312.196 489.797 312.196 490.753C310.667 490.753 309.484 490.753 308.399 490.753C307.715 488.705 308.759 486.677 307.445 484.578C306.898 485.218 306.506 485.677 306.114 486.136C305.905 486.384 305.697 486.632 305.135 486.904C304.093 487.233 303.41 487.554 302.714 487.844C299.887 489.025 296.975 489.711 293.928 488.94C292.499 488.578 291.132 487.968 289.737 487.471C289.442 487.239 289.147 487.007 288.826 486.436C287.916 484.131 287.646 482.133 288.481 480.078C288.712 479.51 288.974 478.946 288.056 478.751C287.471 478.243 286.885 477.735 286.283 476.909C285.909 476.124 285.552 475.656 285.196 475.188C285.103 474.965 285.011 474.741 285.052 474.192C285.36 472.748 285.534 471.629 285.709 470.51C285.943 470.223 286.176 469.937 286.77 469.623C288.368 469.444 289.603 469.224 290.847 469.158C292.352 469.079 293.869 469.196 295.372 469.102C296.36 469.039 297.06 467.986 296.878 466.896C296.76 466.187 296.592 465.265 295.46 465.955ZM294.495 475.961C295.172 475.946 295.858 475.992 296.525 475.903C297.911 475.716 298.812 476.247 299.253 477.567C299.453 478.165 299.641 478.767 299.956 479.744C298.736 479.744 297.826 479.677 296.931 479.762C295.933 479.857 294.922 480.003 293.964 480.287C292.812 480.629 291.947 481.56 292.096 482.701C292.195 483.455 293 484.394 293.727 484.724C294.834 485.227 296.166 485.545 297.371 485.464C300.86 485.23 303.876 483.797 306.423 481.355C307.28 480.533 307.68 479.677 307.657 478.467C307.589 474.826 307.642 471.182 307.618 467.54C307.614 467.067 307.438 466.595 307.367 466.246C305.31 466.246 303.415 466.246 301.207 466.246C301.207 468.465 301.207 470.45 301.207 472.69C299.968 472.69 299.049 472.689 298.13 472.69C295.928 472.693 293.727 472.709 291.526 472.695C290.342 472.687 289.335 472.903 289.028 474.239C290.426 476.262 290.631 476.332 294.495 475.961Z" fill="white"/>
<path d="M447.363 489.363C447.128 489.351 446.892 489.34 446.466 489.075C445.909 488.717 445.542 488.612 445.175 488.507C445.175 488.507 444.952 488.501 444.866 488.247C444.418 487.818 444.057 487.642 443.696 487.466C443.4 487.224 443.104 486.982 442.784 486.399C441.869 484.014 441.876 481.949 442.505 479.83C442.592 479.538 442.211 479.106 442.046 478.739C441.245 477.935 440.444 477.131 439.657 475.999C439.439 475.341 439.206 475.011 438.973 474.682C438.901 474.46 438.829 474.238 438.902 473.781C438.975 473.269 438.905 472.993 438.834 472.716C438.826 472.481 438.819 472.246 439.055 471.819C439.421 471.266 439.543 470.904 439.665 470.543C439.906 470.253 440.146 469.963 440.747 469.641C442.246 469.452 443.382 469.216 444.527 469.158C446.097 469.079 447.674 469.158 449.247 469.119C449.799 469.105 450.558 469.112 450.035 468.153C450.059 467.737 450.083 467.322 450.223 466.604C450.242 465.641 450 465.345 449.407 465.933C446.323 465.968 443.238 466.003 439.787 465.858C437.896 464.769 437.89 464.744 438.588 462.243C441.611 461.786 468.219 461.912 470.06 462.406C470.262 463.531 470.468 464.681 470.674 465.831C469.624 465.902 468.573 465.973 467.094 466.084C466.494 466.743 466.175 467.361 466.173 467.98C466.153 475.841 466.178 483.703 466.192 491.564C466.192 491.564 466.183 491.496 465.977 491.47C465.352 491.431 464.933 491.418 464.515 491.403C462.221 491.323 462.145 491.248 462.106 488.946C462.087 487.857 462.135 486.762 462.029 485.681C462.002 485.41 461.498 485.187 461.213 484.941C460.973 485.228 460.734 485.516 460.494 485.803C460.156 486.157 459.818 486.51 459.125 486.893C458.17 487.379 457.569 487.837 456.969 488.295C456.811 488.394 456.652 488.494 456.131 488.522C453.108 488.843 450.491 489.773 447.742 489.082C447.645 489.058 447.491 489.264 447.363 489.363ZM447.103 476.083C448.116 476.03 449.128 475.951 450.142 475.93C452.704 475.877 453.475 476.688 453.613 479.742C452.6 479.742 451.587 479.66 450.594 479.765C449.599 479.87 448.498 479.951 447.677 480.437C446.981 480.849 446.398 481.76 446.163 482.566C445.865 483.591 446.659 484.392 447.558 484.708C448.729 485.121 450.01 485.559 451.212 485.483C454.688 485.265 457.724 483.893 460.289 481.466C461.227 480.578 461.624 479.638 461.597 478.347C461.523 474.881 461.57 471.412 461.55 467.945C461.547 467.381 461.445 466.818 461.381 466.184C459.343 466.184 457.454 466.184 455.458 466.184C455.355 468.406 455.26 470.458 455.157 472.68C452.142 472.68 449.446 472.672 446.75 472.685C445.991 472.688 445.196 472.627 444.485 472.83C443.994 472.971 443.299 473.49 443.268 473.884C443.225 474.44 443.565 475.326 444.006 475.551C444.787 475.951 445.768 475.96 447.103 476.083Z" fill="white"/>
<path d="M308.571 313.515C299.98 318.42 291.213 322.368 281.267 324.51C281.267 321.24 281.237 318.391 281.285 315.544C281.3 314.613 282.107 314.439 282.853 314.161C287.114 312.574 291.414 311.069 295.586 309.271C302.846 306.142 309.384 301.8 315.523 296.843C315.848 296.58 316.198 296.347 316.546 296.115C316.6 296.078 316.705 296.117 317.115 296.136C316.749 298.254 316.432 300.35 316.013 302.425C315.613 304.404 315.035 306.348 314.674 308.332C314.454 309.54 313.83 310.283 312.817 310.873C311.43 311.68 310.092 312.57 308.571 313.515Z" fill="white"/>
<path d="M191.538 462.122C200.717 461.953 209.784 461.953 219.2 461.953C219.2 463.319 219.2 464.378 219.198 465.654C218.323 465.921 217.449 465.972 216.223 465.885C214.586 466.077 215.158 467.129 215.153 467.843C215.107 474.609 215.131 481.377 215.12 488.144C215.118 489.038 215.037 489.933 214.994 490.782C213.558 490.782 212.426 490.782 211.08 490.782C211.08 489.481 211.123 488.391 211.068 487.307C211.015 486.294 211.458 485.055 210.094 484.516C206.024 486.858 202.069 486.915 198.133 484.394C197.734 484.139 197.213 484.074 196.748 483.921C196.456 483.695 196.163 483.47 195.846 482.919C194.782 480.497 193.307 478.582 193.129 476.118C193.118 475.967 192.75 475.841 192.548 475.703C192.345 474.333 192.41 474.267 194.169 474.549C196.402 475.33 197.341 474.994 198.415 473.357C198.617 473.059 198.819 472.761 199.315 472.295C200.783 470.262 200.75 469.874 199.262 468.071C199.134 467.903 199.007 467.734 198.874 467.227C198.556 465.866 198.072 465.193 196.902 465.932C195.164 465.932 193.427 465.932 191.426 465.932C191.426 464.589 191.426 463.44 191.538 462.122ZM200.441 481.132C202.019 482.137 203.712 482.41 205.523 481.935C208.817 481.071 210.437 479.001 210.438 475.65C210.439 473.033 210.453 470.416 210.423 467.8C210.417 467.25 210.243 466.701 210.12 466.002C208.89 466.002 207.802 465.991 206.715 466.005C205.664 466.018 204.613 466.057 203.489 466.087C205.521 473.062 204.65 475.135 198.213 478.676C198.877 479.455 199.502 480.189 200.441 481.132Z" fill="white"/>
<path d="M220.033 405.9C223.971 406.589 227.699 407.236 231.44 407.799C232.382 407.94 233.156 408.174 233.174 409.228C233.222 411.987 233.19 414.748 233.19 417.932C230.237 417.512 227.662 417.245 225.129 416.763C220.758 415.931 216.392 415.047 212.061 414.029C208.135 413.106 204.248 412.01 200.373 410.889C199.886 410.748 199.153 409.855 199.254 409.544C200.126 406.845 201.163 404.199 202.171 401.483C208.272 402.984 214.05 404.406 220.033 405.9Z" fill="white"/>
<path d="M355.837 482.437C355.578 482.639 355.32 482.842 354.679 482.999C352.048 483.452 349.858 483.21 347.699 482.453C347.486 482.378 347.21 482.481 346.964 482.501C346.046 481.771 345.128 481.04 344.183 479.957C343.598 478.131 343.041 476.658 342.483 475.184C342.432 472.457 342.382 469.73 342.46 466.68C342.57 465.612 342.3 465.415 341.694 465.946C341.46 465.952 341.226 465.958 340.853 465.653C340.637 464.181 340.562 463.02 340.486 461.859C340.486 461.859 340.648 462.009 340.813 461.986C349.073 461.963 357.169 461.963 365.033 461.963C366.187 463.773 365.132 464.808 364.501 465.932C364.121 465.968 363.74 466.004 363.036 465.898C362.457 466.019 361.996 466.268 361.976 466.547C361.781 469.404 361.622 472.266 361.535 475.128C361.507 476.041 361.801 476.96 361.813 477.878C361.863 481.826 361.871 485.775 361.869 489.724C361.868 490.111 361.689 490.497 361.554 491.041C360.32 490.969 359.194 490.903 357.907 490.828C357.907 489.519 357.91 488.514 357.907 487.508C357.902 485.901 357.946 484.292 357.852 482.69C357.828 482.277 357.37 481.889 357.111 481.49C356.686 481.805 356.262 482.121 355.837 482.437ZM352.589 466.021C351.007 466.021 349.426 466.021 347.666 466.021C347.666 469.573 347.623 472.849 347.706 476.122C347.722 476.722 348.149 477.402 348.57 477.883C349.719 479.196 352.045 479.507 354.001 478.726C356.192 477.851 357.245 476.479 357.26 474.456C357.269 473.104 357.271 471.751 357.255 470.399C357.238 469 357.196 467.601 357.161 466.018C355.592 466.018 354.334 466.018 352.589 466.021Z" fill="white"/>
<path d="M427.559 465.935C422.801 465.963 418.043 465.99 413.05 465.742C412.814 464.174 412.812 462.883 413.041 461.535C416.837 461.483 420.403 461.488 424.084 461.635C425.583 461.727 426.968 461.602 428.348 461.642C430.668 461.709 432.986 461.873 435.303 462.018C435.864 462.054 436.42 462.174 437.14 462.278C437.14 463.543 437.14 464.7 437.14 465.857C436.272 465.91 435.404 465.963 434.209 465.873C432.666 466.161 432.745 467.158 432.841 468.15C432.905 468.815 433.07 469.476 433.072 470.138C433.09 476.381 433.089 482.623 433.073 488.866C433.072 489.512 432.941 490.158 432.87 490.806C431.563 490.806 430.435 490.806 429.245 490.806C429.245 488.461 429.245 486.317 429.245 483.907C427.14 484.009 425.507 485.013 423.93 486.164C423.242 486.215 422.553 486.267 421.62 486.083C420.835 485.653 420.296 485.455 419.755 485.265C415.391 483.732 412.31 479.125 414.578 474.133C414.882 473.462 415.025 472.718 415.243 472.008C415.628 471.556 416.013 471.105 416.743 470.634C419.923 469.405 422.795 468.71 425.96 469.979C425.928 470.631 425.897 471.266 425.86 472.026C422.795 471.276 420.378 472.162 418.504 474.415C416.874 476.372 417.036 478.36 418.81 479.832C419.113 480.109 419.417 480.386 419.833 480.98C420.938 482.543 422.337 482.414 423.67 482.313C426.851 482.071 429.069 479.673 429.077 476.552C429.085 473.852 429.082 471.153 429.077 468.453C429.076 467.779 429.144 467.085 429.008 466.436C428.833 465.604 428.31 465.327 427.559 465.935Z" fill="white"/>
<path d="M98.1648 335.093C96.6551 332.892 95.2667 330.832 93.8789 328.193C95.8909 328.148 97.375 328.105 98.8593 328.083C101.286 328.047 101.29 328.045 101.345 325.722C101.36 325.052 101.405 324.383 101.449 323.455C101.935 323.722 102.37 323.818 102.56 324.088C105.867 328.772 109.289 333.385 112.358 338.221C113.689 340.318 114.336 342.865 115.195 345.243C116.998 350.238 118.743 355.253 120.484 360.269C120.631 360.692 120.573 361.187 120.402 361.758C112.106 353.65 104.829 344.747 98.1648 335.093Z" fill="white"/>
<path d="M282.711 462.077C282.714 463.191 282.717 464.305 282.722 465.626C282.013 465.896 281.302 465.96 280.244 465.887C278.606 466.069 279.182 467.123 279.177 467.833C279.131 474.586 279.155 481.34 279.145 488.093C279.144 488.99 279.065 489.887 279.022 490.801C277.622 490.801 276.493 490.801 275.244 490.801C275.141 488.41 275.046 486.206 274.939 483.717C272.934 484.505 271.254 484.892 269.992 486.173C269.465 486.224 268.937 486.275 268.169 486.099C267.073 485.564 266.228 485.22 265.36 484.952C260.499 483.453 258.599 477.462 260.63 474.106C261.002 473.491 261.08 472.697 261.294 471.986C261.678 471.536 262.062 471.085 262.801 470.624C265.932 469.214 268.843 469.497 271.873 469.791C271.92 470.406 271.997 470.894 271.977 471.378C271.969 471.583 271.758 471.78 271.603 472.042C271.241 471.95 270.926 471.832 270.602 471.792C267.896 471.458 265.129 472.929 263.895 475.341C262.364 478.337 264.527 481.927 268.11 482.337C272.187 482.803 275.112 480.207 275.115 476.118C275.116 473.327 275.125 470.536 275.108 467.745C275.104 467.163 275.024 466.577 274.909 466.007C274.897 465.951 274.39 465.995 274.113 465.992C269.188 465.997 264.262 466.002 259.104 465.729C258.87 464.166 258.867 462.882 259.093 461.532C262.886 461.464 266.451 461.462 270.127 461.605C271.393 461.66 272.552 461.454 273.699 461.504C276.706 461.635 279.707 461.878 282.711 462.077Z" fill="white"/>
<path d="M141.235 57.6531C138.721 59.3864 136.348 61.0066 133.97 62.6188C133.764 62.7583 133.522 62.8443 133.309 62.9493C131.844 61.88 123.14 49.3351 121.334 45.6624C121.706 45.3125 122.069 44.8549 122.533 44.5542C125.508 42.6272 128.4 40.5364 131.524 38.8866C134.655 37.2331 138.206 39.1036 138.985 42.526C139.167 43.3264 139.084 44.1873 139.125 45.066C139.312 45.1675 139.52 45.3594 139.751 45.3933C142.507 45.7977 144.167 47.4728 144.819 50.0595C145.534 52.8932 144.516 55.2009 142.201 56.9485C141.931 57.1521 141.651 57.3417 141.235 57.6531ZM135.062 57.1062C136.501 56.0905 138.012 55.1603 139.36 54.0343C140.619 52.9824 140.73 51.6212 139.912 50.4579C139.182 49.4196 137.877 49.038 136.532 49.7849C134.863 50.7125 133.324 51.8736 131.404 53.1494C132.612 54.6337 133.641 55.899 135.062 57.1062ZM132.729 42.7953C130.572 43.5576 128.874 44.9859 126.977 46.4664C127.888 47.6996 128.651 48.7323 129.493 49.8713C131.172 48.678 132.689 47.7662 134.005 46.6232C135.752 45.1056 135.396 43.7914 132.729 42.7953Z" fill="white"/>
<path d="M177.624 37.6206C174.836 38.8552 172.224 40.0202 169.266 41.3393C166.382 34.9036 163.567 28.6217 160.754 22.3438C160.916 22.073 160.992 21.7515 161.176 21.6692C164.561 20.1498 167.916 18.553 171.364 17.1887C175.854 15.4117 179.896 19.68 178.626 23.7416C178.554 23.9702 178.573 24.2272 178.553 24.4382C179.575 25.106 180.68 25.6108 181.504 26.4072C184.15 28.9657 183.93 33.2712 181.047 35.5905C180.07 36.376 178.887 36.9049 177.624 37.6206ZM177.035 28.6277C174.168 28.1743 172.191 30.1253 169.615 31.0963C170.374 32.7732 171.018 34.1965 171.782 35.8848C173.435 35.1505 174.901 34.5563 176.317 33.8575C179.087 32.4895 179.328 31.2825 177.035 28.6277ZM170.852 21.5742C169.403 22.2175 167.954 22.8608 166.312 23.5897C166.912 24.952 167.406 26.0729 167.933 27.2691C170.142 26.7884 172.002 26.0005 173.589 24.7618C174.119 24.3481 174.518 23.2409 174.355 22.612C174.192 21.98 173.314 21.4287 172.628 21.0814C172.293 20.9118 171.683 21.2863 170.852 21.5742Z" fill="white"/>
<path d="M416.367 355.781C422.232 352.895 427.742 356.467 430.536 360.213C435.12 366.36 432.124 374.834 424.676 376.749C422.672 377.265 420.686 376.959 418.838 375.492C419.948 373.744 420.607 372.034 423.338 372.292C426.858 372.625 429.36 368.482 427.886 365.075C426.721 362.381 424.615 360.551 421.84 359.626C419.534 358.858 417.252 359.735 415.804 361.734C414.438 363.62 414.469 364.966 416.11 367.569C416.666 367.035 417.213 366.579 417.674 366.048C418.112 365.543 418.46 364.958 418.984 364.214C420.209 365.243 421.067 365.963 422.112 366.841C420.123 369.204 418.297 371.374 416.299 373.748C413.233 371.185 410.411 368.827 407.641 366.511C408.867 364.059 408.867 364.059 411.333 364.333C411.285 360.577 412.978 357.758 416.367 355.781Z" fill="white"/>
<path d="M364.277 50.8615C363.148 50.4469 362.164 49.9923 361.204 49.4899C360.294 49.0136 360.331 48.1365 360.334 47.2742C360.344 43.4637 360.353 39.6532 360.334 35.8429C360.331 35.1466 360.197 34.4509 360.124 33.755C359.919 33.7053 359.714 33.6557 359.51 33.6061C357.362 37.2391 355.215 40.8721 352.938 44.7244C351.636 43.9523 350.575 43.3233 349.238 42.5302C352.591 36.2722 356.256 30.3474 359.76 24.0947C360.924 24.7071 361.87 25.2088 362.82 25.7035C363.831 26.2299 364.184 27.0235 364.158 28.1866C364.074 31.9108 364.095 35.6375 364.095 39.3633C364.096 39.9876 364.196 40.612 364.302 41.8328C367.178 38.0546 368.664 34.0615 371.314 30.589C372.526 31.3252 373.579 31.9646 374.883 32.7563C371.427 38.9161 368.078 44.9416 364.277 50.8615Z" fill="white"/>
<path d="M475.761 285.593C474.483 286.256 473.295 286.859 472.036 287.192C468.464 288.135 464.863 288.968 460.883 289.94C461.504 290.42 461.803 290.804 462.183 290.919C464.845 291.72 467.527 292.456 470.196 293.235C471.156 293.516 472.098 293.858 473.261 294.242C472.863 295.656 472.512 296.9 472.083 298.425C465.123 296.418 458.458 294.497 451.966 292.626C451.855 292.076 451.78 291.91 451.795 291.752C452.07 288.79 453.737 287.493 456.661 287.051C459.9 286.561 463.064 285.571 466.252 284.762C466.785 284.627 467.273 284.31 468.304 283.837C463.714 282.482 459.64 281.28 455.261 279.988C455.63 278.6 455.962 277.352 456.383 275.769C463.212 277.548 469.767 279.588 476.39 281.464C476.986 282.956 476.158 284.15 475.761 285.593Z" fill="white"/>
<path d="M297.993 405.195C301.366 404.343 304.544 403.57 307.755 402.788C308.914 404.309 308.299 405.987 308.507 407.529C308.709 409.024 308.899 410.521 309.09 411.983C305.515 414.078 285.067 418.143 281.23 417.423C281.23 414.811 281.208 412.132 281.24 409.453C281.254 408.263 282.105 407.991 283.117 407.821C288.015 406.998 292.905 406.128 297.993 405.195Z" fill="white"/>
<path d="M437.297 465.926C437.139 464.701 437.139 463.544 437.139 462.279C436.419 462.174 435.863 462.054 435.302 462.019C432.985 461.874 430.667 461.71 428.347 461.643C426.967 461.602 425.582 461.728 424.116 461.456C423.848 460.577 423.664 460.02 423.672 459.478C425.128 460.305 426.391 461.113 428.217 459.938C427.564 458.904 426.931 457.963 426.366 456.983C426.05 456.436 425.846 455.823 425.592 455.24C426.707 456.691 428.034 458.03 428.873 459.626C429.58 460.971 430.341 461.385 431.808 461.377C443.216 461.314 454.626 461.336 466.035 461.335C471.189 461.335 476.342 461.335 481.496 461.351C482.234 461.353 482.971 461.447 483.821 461.507C483.821 463.016 483.821 464.34 483.821 465.825C483.128 465.928 482.484 466.056 481.834 466.109C481.255 466.156 480.669 466.119 479.721 466.119C479.542 474.685 479.762 483.166 479.592 491.81C477.792 491.81 476.245 491.81 474.406 491.81C474.09 483.251 474.438 474.841 474.21 466.277C473.063 466.178 472.079 466.093 470.884 465.92C470.468 464.681 470.262 463.531 470.06 462.406C468.219 461.912 441.611 461.787 438.588 462.243C437.89 464.744 437.896 464.769 439.551 465.812C438.939 465.961 438.197 465.977 437.297 465.926Z" fill="white"/>
<path d="M290.842 367.565C296.594 365.916 302.145 364.328 307.989 362.655C307.989 365.735 308.018 368.667 307.973 371.598C307.958 372.585 307.221 373.028 306.342 373.282C302.138 374.498 297.967 375.843 293.727 376.915C290.22 377.802 286.636 378.381 283.08 379.068C282.609 379.159 282.105 379.081 281.311 379.081C281.153 375.908 281.17 372.841 281.283 369.648C284.56 368.939 287.6 368.282 290.842 367.565Z" fill="white"/>
<path d="M32.5035 207.229C35.5178 202.841 39.1953 202.663 43.3096 206.723C45.227 204.883 47.6447 205.106 50.0926 205.301C51.1511 205.385 52.2322 205.184 53.4216 205.104C53.4216 206.349 53.4912 207.593 53.3981 208.825C53.3317 209.703 52.6572 210.143 51.8074 210.152C50.5434 210.165 49.2787 210.099 48.0142 210.068C45.8266 210.016 45.0907 210.53 44.7532 212.695C44.5367 214.083 44.585 215.512 44.4992 217.234C47.1687 217.535 49.6385 217.813 52.3887 218.123C52.2761 219.615 52.1724 220.988 52.0449 222.678C44.9574 222.051 38.0947 221.444 31.1026 220.825C31.0475 220.061 30.9149 219.485 30.9809 218.932C31.4397 215.088 31.9397 211.249 32.5035 207.229ZM37.0129 208.843C34.6448 210.987 35.714 213.766 35.2769 216.346C37.2161 216.734 38.791 217.31 40.4929 216.758C40.5799 216.319 40.6824 215.998 40.7014 215.671C40.7749 214.413 40.8599 213.153 40.8705 211.893C40.8937 209.142 40.3292 208.647 37.0129 208.843Z" fill="white"/>
<path d="M296.373 394.775C291.358 395.972 286.515 396.916 281.246 397.571C281.246 394.391 281.186 391.623 281.304 388.862C281.324 388.394 282.06 387.624 282.543 387.557C290.85 386.411 298.908 384.219 306.933 381.875C307.149 381.812 307.416 381.924 307.957 381.993C307.957 384.918 308.031 387.851 307.885 390.773C307.861 391.265 306.962 391.958 306.346 392.135C303.11 393.066 299.835 393.862 296.373 394.775Z" fill="white"/>
<path d="M55.2995 158.29C51.2209 156.621 47.325 155.021 43.2812 153.361C43.4353 152.719 43.5036 152.149 43.7073 151.634C44.6987 149.123 45.7068 146.618 46.7517 144.13C47.1095 143.277 47.5241 142.433 48.0281 141.661C50.6198 137.688 55.7777 137.825 58.235 141.91C58.4936 142.34 58.7342 142.781 59.074 143.376C62.7943 141.714 65.713 144.93 69.5571 144.758C68.8469 146.423 68.2671 147.782 67.5481 149.467C66.0259 149.028 64.5932 148.662 63.1914 148.201C60.1731 147.209 59.6332 147.421 58.3845 150.374C57.9307 151.447 57.57 152.56 57.082 153.885C59.5408 154.918 61.8426 155.885 64.4337 156.973C63.9391 158.359 63.4802 159.645 62.9072 161.25C60.2892 160.231 57.8857 159.295 55.2995 158.29ZM49.9645 146.559C49.4901 147.802 49.0156 149.044 48.4712 150.47C50.1267 151.157 51.6365 151.783 53.4151 152.52C54.1762 150.429 54.9297 148.648 55.4646 146.804C55.9463 145.143 55.1034 144.026 53.4045 143.733C51.8789 143.47 51.3169 143.892 49.9645 146.559Z" fill="white"/>
<path d="M233.122 388.258C233.182 391.318 233.182 394.17 233.182 396.949C229.924 397.806 208.862 393.023 205.859 390.77C206.863 388.015 207.888 385.199 208.986 382.186C210.905 382.738 212.554 383.31 214.246 383.683C220.153 384.987 226.078 386.216 231.99 387.497C232.37 387.579 232.706 387.861 233.122 388.258Z" fill="white"/>
<path d="M314.433 7.10839C315.908 7.48435 317.183 7.79806 318.637 8.15553C318.366 9.51584 318.159 10.5621 317.91 11.8105C314.15 11.6055 310.784 10.1236 307.065 9.74447C306.72 10.8477 306.399 11.8709 306.018 13.0857C309.131 14.8176 312.709 14.5303 315.852 16.0653C315.761 16.6257 315.709 17.1967 315.569 17.7457C315.427 18.308 315.199 18.8487 314.915 19.6691C311.705 18.994 308.526 18.3254 305.135 17.6121C304.738 19.266 304.392 20.7066 303.99 22.3804C307.699 23.2784 311.284 24.1464 315.223 25.1C314.935 26.3667 314.669 27.5325 314.331 29.0156C309.016 27.7894 303.949 26.6204 298.582 25.3821C299.994 18.3834 301.654 11.6425 303.348 4.54883C307.073 5.40342 310.653 6.22478 314.433 7.10839Z" fill="white"/>
<path d="M47.8592 182.159C49.4737 182.925 51.0257 183.451 52.2903 184.371C54.8063 186.203 55.8667 188.794 55.3507 191.909C54.8309 195.047 54.232 198.171 53.6095 201.624C46.455 200.23 39.6437 198.904 32.5215 197.516C33.3699 193.584 33.9089 189.923 34.9901 186.43C35.9027 183.481 38.2471 181.679 41.4351 181.587C43.5058 181.528 45.5892 181.912 47.8592 182.159ZM46.8251 195.583C47.9619 195.785 49.0987 195.987 50.4276 196.222C50.75 194.967 51.101 193.938 51.2692 192.88C51.7056 190.136 50.8827 188.585 48.3585 187.391C46.2692 186.404 44.0551 185.956 41.7373 186.206C40.2866 186.362 39.1565 187.11 38.6102 188.444C37.9484 190.06 37.4757 191.753 37.781 193.81C40.668 194.361 43.5414 194.909 46.8251 195.583Z" fill="white"/>
<path d="M446.524 313.35C443.595 306.905 447.652 300.237 452.119 298.855C456.085 297.628 459.801 298.63 463.221 300.77C466.902 303.072 468.478 306.512 467.801 310.416C467.01 314.974 464.611 318.145 460.023 319.401C458.067 319.937 456.17 319.488 454.302 318.912C451.162 317.943 448.387 316.444 446.524 313.35ZM450.457 305.459C448.774 309.05 450.192 311.234 452.082 312.638C453.729 313.862 455.631 314.589 457.679 314.825C460.165 315.112 462.334 313.896 463.28 311.758C464.29 309.477 463.704 307.107 461.585 305.439C459.832 304.059 457.841 303.184 455.566 303.048C453.584 302.929 451.9 303.461 450.457 305.459Z" fill="white"/>
<path d="M39.2518 251.277C39.3519 252.574 39.4359 253.501 38.2331 254.312C36.6171 255.401 36.3829 258.78 37.6756 260.266C38.1168 260.773 38.9884 261.271 39.5754 261.183C40.1632 261.095 40.7576 260.343 41.1293 259.746C41.417 259.283 41.3802 258.612 41.4626 258.03C41.7229 256.191 41.9255 254.342 42.2355 252.512C42.6651 249.974 43.9334 248.098 46.6128 247.545C49.2613 246.999 51.5795 247.768 53.1083 249.956C55.425 253.272 55.8719 256.997 54.5487 260.825C53.7376 263.173 51.9633 264.487 49.1703 264.881C48.9242 263.92 48.6536 262.99 48.454 262.045C48.281 261.226 48.5943 260.664 49.3075 260.126C51.643 258.362 51.9279 254.961 50.0155 252.792C48.8143 251.431 47.3227 251.703 46.7582 253.482C46.4044 254.597 46.2889 255.79 46.0933 256.952C45.8554 258.367 45.6905 259.795 45.4139 261.201C44.921 263.709 43.4401 265.242 40.8609 265.635C38.3247 266.02 36.0725 265.433 34.6348 263.238C32.5735 260.092 32.1177 256.644 33.5232 253.084C34.1758 251.431 35.488 250.337 37.09 249.649C38.3207 249.121 38.7542 249.454 39.2518 251.277Z" fill="white"/>
<path d="M442.438 355.97C437.088 358.54 431.034 356.685 427.191 351.514C424.659 348.107 424.772 344.596 426.726 341.058C428.603 337.658 431.413 335.52 435.451 335.503C439.852 335.484 445.407 339.29 447.095 343.319C448.601 346.917 447.604 350.127 445.495 353.08C444.727 354.154 443.576 354.953 442.438 355.97ZM429.697 345.396C430.113 349.528 433.127 351.169 436.508 352.341C438.92 353.177 441.177 352.339 442.511 350.372C443.814 348.451 443.682 345.98 442.112 344.01C440.869 342.45 439.238 341.41 437.382 340.716C433.435 339.238 430.606 340.824 429.697 345.396Z" fill="white"/>
<path d="M187.452 29.8339C185.867 23.9516 184.354 18.2559 182.893 12.7576C183.227 12.3592 183.309 12.1602 183.442 12.1166C187.292 10.8572 187.293 10.8594 188.403 14.8186C188.741 16.0246 189.072 17.2326 189.469 18.6668C191.972 17.9958 194.288 17.3746 196.838 16.691C196.222 14.0733 195.654 11.6592 195.024 8.9822C196.604 8.56937 197.937 8.22072 199.503 7.81152C201.374 14.7746 203.161 21.4203 204.91 27.929C204.614 28.246 204.524 28.4228 204.387 28.4775C200.664 29.9534 200.657 29.9531 199.496 26.0807C199.23 25.1918 199.041 24.28 198.783 23.3883C198.552 22.5888 198.275 21.8025 197.906 20.6623C195.468 21.294 193.087 21.9109 190.501 22.581C191.28 25.6582 191.978 28.4119 192.675 31.162C191.633 32.6101 190.001 32.1792 188.488 33.0203C188.111 31.8493 187.817 30.9349 187.452 29.8339Z" fill="white"/>
<path d="M450.406 157.592C451.776 150.963 456.934 146.972 463.472 147.294C468.203 147.528 472.385 151.631 472.772 156.419C473.262 162.492 469.764 166.822 463.314 168.106C461.051 168.556 458.774 168.715 456.597 167.767C453.512 166.426 451.778 163.906 450.864 160.779C450.583 159.818 450.547 158.785 450.406 157.592ZM457.11 162.954C460.737 164.429 465.085 163.436 467.487 160.555C468.787 158.996 469.078 157.266 468.316 155.351C467.556 153.441 466.19 152.404 464.151 152.154C461.866 151.874 459.812 152.496 457.858 153.602C453.977 155.798 453.53 159.563 457.11 162.954Z" fill="white"/>
<path d="M457.766 121.622C459.504 124.913 461.165 128.033 462.954 131.392C461.772 132.029 460.767 132.571 459.578 133.212C457.345 130.232 456.162 126.759 454.004 123.56C452.906 124.19 451.86 124.79 450.653 125.483C452.233 128.526 453.7 131.35 455.29 134.413C454.162 135.042 453.168 135.596 451.967 136.265C449.913 133.533 448.851 130.375 446.873 127.444C445.461 128.171 444.087 128.878 442.484 129.704C444.277 133.117 445.954 136.308 447.782 139.788C446.779 140.45 445.782 141.108 444.534 141.933C441.579 137.252 439.415 132.434 436.664 127.537C442.983 124.16 449.057 120.913 455.451 117.496C456.237 118.886 456.963 120.169 457.766 121.622Z" fill="white"/>
<path d="M482.694 229.908C481.661 229.938 480.836 229.938 479.678 229.938C479.567 226.101 479.464 222.512 479.354 218.707C477.971 218.819 476.832 218.911 475.554 219.014C475.554 222.38 475.554 225.552 475.554 229.041C474.35 229.115 473.152 229.189 471.862 229.268C470.922 225.948 471.668 222.695 471.019 219.453C469.41 219.453 467.876 219.453 466.125 219.453C466.301 223.295 466.465 226.899 466.642 230.764C465.182 230.87 463.98 230.957 462.762 231.046C462.583 230.474 462.408 230.163 462.398 229.846C462.245 224.952 462.114 220.057 461.969 214.817C469.066 214.518 476.01 214.225 482.731 213.942C483.064 214.427 483.233 214.56 483.24 214.7C483.458 219.255 483.659 223.812 483.868 228.367C483.902 229.108 483.761 229.719 482.694 229.908Z" fill="white"/>
<path d="M465.597 255.944C470.865 256.882 475.925 257.763 481.192 258.68C481.032 260.198 480.893 261.51 480.75 262.871C478.015 263.766 475.655 261.895 472.843 262.391C472.592 263.468 472.282 264.665 472.037 265.876C471.805 267.025 471.639 268.187 471.395 269.634C473.862 270.129 476.291 270.616 479.043 271.168C478.826 272.738 478.628 274.165 478.398 275.832C471.243 274.565 464.46 273.365 457.428 272.12C457.654 270.503 457.845 269.139 458.082 267.451C461.235 267.983 464.112 268.468 467.332 269.011C467.792 266.523 468.242 264.091 468.744 261.38C465.642 260.8 462.778 260.264 459.681 259.685C459.871 258.143 460.04 256.767 460.242 255.13C462.117 255.405 463.753 255.645 465.597 255.944Z" fill="white"/>
<path d="M379.93 45.41C381.357 47.1151 382.663 48.6713 383.965 50.2311C385.662 52.2634 386.498 54.434 385.024 56.9654C383.491 59.5986 381.1 60.7075 377.926 60.2602C374.296 59.7486 369.899 55.7379 369.196 52.2836C368.82 50.4371 369.156 48.7976 370.672 47.3463C371.491 47.8917 372.241 48.4114 373.011 48.8989C373.745 49.3634 373.901 49.9606 373.825 50.8347C373.596 53.4344 376.053 56.0709 378.707 56.2098C380.183 56.2871 381.248 54.8547 380.66 53.4441C380.375 52.7619 379.839 52.1716 379.359 51.5868C378.178 50.1471 376.912 48.7745 375.774 47.3021C374.07 45.0965 374.028 42.7605 375.535 40.4863C377.054 38.1944 379.879 37.0474 382.384 37.8003C385.059 38.6044 387.259 40.1559 388.897 42.4178C390.63 44.8133 390.548 47.6936 388.607 50.068C387.559 49.3333 386.489 48.5839 385.507 47.8958C385.71 44.6727 384.856 43.0455 382.568 42.2301C381.598 41.8846 380.53 41.6549 379.709 42.5155C378.859 43.4053 379.107 44.3694 379.93 45.41Z" fill="white"/>
<path d="M163.729 39.6696C164.307 40.706 164.796 41.5806 165.423 42.7015C164.157 43.5186 162.996 44.2684 161.554 45.1999C159.889 42.4497 158.336 39.8835 156.646 37.0908C154.411 38.3754 152.319 39.5773 149.945 40.9418C151.485 43.657 152.963 46.2631 154.582 49.1185C153.212 49.9198 152.016 50.6187 150.515 51.496C146.938 45.287 143.465 39.2587 139.869 33.0182C141.267 32.1721 142.392 31.4905 143.831 30.6198C145.196 32.8512 146.496 34.9767 147.987 37.4154C150.198 36.1459 152.343 34.914 154.667 33.5799C153.337 31.2065 152.153 29.0909 150.815 26.7019C152.157 25.9112 153.4 25.1785 154.844 24.3281C157.889 29.5831 160.764 34.5455 163.729 39.6696Z" fill="white"/>
<path d="M425.541 455.098C425.846 455.823 426.05 456.435 426.366 456.983C426.931 457.962 427.564 458.903 428.217 459.937C426.391 461.112 425.128 460.305 423.526 459.389C421.643 457.172 419.649 455.584 417.357 454.14C416.245 453.282 415.208 452.313 413.624 453.374C413.045 453.38 412.657 453.345 412.161 453.172C411.025 453.29 409.955 453.445 408.991 453.851C408.599 454.015 408.437 454.725 408.081 455.343C407.656 456.133 407.32 456.765 406.821 457.443C406.04 458.44 405.754 459.34 407.098 460.204C407.277 461.211 407.811 461.454 408.555 461.47C409.454 461.488 410.352 461.546 411.254 461.804C411.25 463.315 411.242 464.609 411.235 465.902C410.525 465.934 409.815 465.965 408.769 465.839C406.798 465.988 407.263 467.302 407.258 468.295C407.224 474.89 407.246 481.485 407.235 488.08C407.233 488.978 407.151 489.876 407.103 490.84C405.869 490.84 404.902 490.84 403.622 490.84C403.622 489.773 403.622 488.868 403.622 487.962C403.622 481.536 403.627 475.11 403.616 468.684C403.615 467.928 403.642 467.143 403.451 466.427C403.304 465.878 402.871 465.307 402.149 465.958C401.605 465.976 401.061 465.995 400.313 465.74C400.109 464.408 400.109 463.349 400.109 462.379C401.208 462.046 402.044 461.792 402.565 461.634C402.739 458.942 402.891 456.575 403.043 454.208C403.043 454.208 403.07 454.005 403.329 453.942C404.22 453.333 404.793 452.688 405.498 452.262C406.923 451.401 408.349 450.19 409.899 449.958C414.408 449.283 418.793 449.715 422.429 453.005C422.875 453.409 423.581 453.524 424.167 453.772C424.608 454.167 425.049 454.562 425.541 455.098Z" fill="white"/>
<path d="M246.371 465.933C246.174 464.707 246.174 463.544 246.174 462.3C247.058 462.087 247.765 461.916 248.67 461.698C248.67 460.613 248.745 459.613 248.657 458.628C248.345 455.117 250.211 452.808 252.996 451.247C257.607 448.661 262.219 449.285 266.676 451.805C267.762 452.419 268.781 453.153 270.018 453.809C270.484 454.013 270.763 454.239 271.063 454.783C271.664 456.983 273.801 458.015 274.01 460.465C272.629 460.465 271.396 460.465 270.043 460.36C269.58 459.73 269.237 459.203 268.924 458.485C268.681 457.171 268.075 456.447 266.667 456.443C265.829 455.861 265.141 455.336 264.43 454.636C263.218 453.517 262.055 452.483 260.162 453.405C259.247 453.419 258.542 453.401 257.776 453.259C257.405 453.319 257.095 453.503 256.638 453.773C255.794 454.225 255.097 454.591 254.204 454.957C253.806 455.364 253.603 455.771 253.397 456.311C253.307 456.599 253.218 456.752 252.948 456.949C251.939 458.786 252.007 459.421 253.242 460.684C253.847 461.059 254.335 461.358 254.856 461.433C255.832 461.573 256.827 461.584 257.813 461.861C257.807 463.329 257.803 464.587 257.798 465.844C256.926 465.901 256.053 465.957 254.839 465.857C252.835 465.973 253.306 467.298 253.301 468.288C253.266 474.895 253.288 481.501 253.277 488.107C253.275 489.003 253.191 489.899 253.144 490.807C251.885 490.807 250.917 490.807 249.669 490.807C249.669 489.711 249.669 488.801 249.669 487.891C249.669 481.539 249.687 475.187 249.649 468.835C249.643 467.929 249.404 467.014 249.17 466.131C249.133 465.992 248.546 465.998 248.213 465.937C247.665 465.957 247.116 465.976 246.371 465.933Z" fill="white"/>
<path d="M419.642 91.2346C423.381 88.1843 426.992 85.2589 430.61 82.3434C430.727 82.2493 430.926 82.2572 431.387 82.1436C432.19 83.1068 433.078 84.1721 434.078 85.3709C433.505 85.9572 433.091 86.4672 432.594 86.8756C430.047 88.9669 427.477 91.0294 424.92 93.1082C424.33 93.5875 423.718 94.0499 423.189 94.5907C421.508 96.3061 421.413 98.0171 422.848 99.7673C424.325 101.567 425.933 101.882 427.95 100.383C430.999 98.1173 433.905 95.6573 436.876 93.2845C437.525 92.7658 438.191 92.2674 439.052 91.6029C440.041 92.7897 440.933 93.8611 441.94 95.0701C441.38 95.6539 440.976 96.1699 440.481 96.5755C437.671 98.8797 434.84 101.157 432.016 103.444C431.819 103.604 431.628 103.77 431.428 103.925C426.857 107.476 423.266 106.5 419.752 102.458C419.422 102.078 419.174 101.628 418.887 101.21C416.374 97.5477 416.637 94.2021 419.642 91.2346Z" fill="white"/>
<path d="M481.097 250.785C478.411 253.132 477.805 253.373 475.192 253.117C475.192 252.241 475.21 251.342 475.187 250.445C475.162 249.475 475.597 248.896 476.496 248.514C478.525 247.649 479.494 246.03 479.243 243.864C478.984 241.625 477.604 240.291 475.442 239.611C472.846 238.795 470.314 238.647 467.805 239.828C464.71 241.286 464.213 245.194 466.836 247.344C467.469 247.863 468.523 248.299 468.645 248.919C468.875 250.083 468.566 251.354 468.481 252.576C465.14 252.396 462.279 250.064 461.44 246.992C459.686 240.575 463.456 234.413 470.257 234.348C472.418 234.327 474.67 234.457 476.73 235.044C483.645 237.013 484.981 244.459 481.962 249.624C481.75 249.987 481.466 250.308 481.097 250.785Z" fill="white"/>
<path d="M217.969 7.28146C221.001 12.6632 223.944 17.8817 226.936 23.186C225.582 24.3973 223.978 24.0578 222.562 24.313C222.286 24.3627 221.809 23.7385 221.549 23.3435C220.997 22.5056 220.526 21.6138 219.923 20.5723C217.562 20.9835 215.264 21.384 212.847 21.8051C212.502 23.267 212.177 24.6442 211.797 26.2565C210.419 26.5438 208.997 26.8407 207.102 27.2361C207.588 24.0956 207.976 21.454 208.411 18.8204C209.059 14.904 209.768 10.9976 210.396 7.07812C210.743 4.91077 210.905 4.68505 213.006 4.38998C213.919 4.26174 214.83 4.12527 215.987 3.95703C216.604 4.98606 217.243 6.05215 217.969 7.28146ZM213.436 15.1446C213.436 15.9146 213.436 16.6845 213.436 17.6358C215.118 17.3759 216.398 17.1781 218.055 16.9221C216.942 14.454 215.992 12.3159 214.326 9.88944C213.984 11.8469 213.732 13.2909 213.436 15.1446Z" fill="white"/>
<path d="M43.5798 164.535C49.873 164.315 55.9319 164.1 62.4403 163.869C61.8904 165.699 61.4463 167.177 61.0396 168.531C60.5029 168.661 60.2615 168.758 60.0148 168.774C56.4543 168.998 56.4472 168.993 55.4184 172.262C55.0655 173.383 54.7565 174.518 54.3628 175.869C55.1462 176.466 55.904 177.113 56.7305 177.656C57.7276 178.311 58.1 179.043 57.5272 180.207C57.0989 181.077 56.8412 182.03 56.4027 183.235C53.6172 181.178 51.1122 179.33 48.6107 177.479C45.6864 175.314 42.7917 173.107 39.8294 170.996C38.688 170.183 38.22 169.326 38.8929 168.011C39.045 167.713 39.1161 167.373 39.2123 167.049C39.8877 164.772 39.8866 164.771 42.3318 164.602C42.6695 164.579 43.0075 164.56 43.5798 164.535ZM51.0819 172.967C51.47 171.714 51.8581 170.462 52.2499 169.198C49.5996 168.569 46.5787 168.643 44.6397 169.465C46.8193 170.789 48.7983 171.992 51.0819 172.967Z" fill="white"/>
<path d="M70.15 100.416C76.3993 101.851 82.466 103.302 88.5266 104.777C89.4798 105.009 90.4053 105.356 91.7061 105.763C90.6637 107.293 89.8337 108.511 88.9514 109.807C87.5367 109.471 86.2439 109.165 84.7023 108.8C83.1525 110.562 82.0498 112.734 80.5569 114.886C81.1244 115.657 81.5932 116.449 82.2111 117.098C83.2124 118.151 83.2204 119.122 82.3091 120.22C81.781 120.856 81.3605 121.581 80.7602 122.458C80.2203 121.961 79.7565 121.642 79.4305 121.218C75.6228 116.257 71.8769 111.248 68.0143 106.331C67.0533 105.108 66.972 104.139 67.9354 102.988C68.6321 102.155 69.29 101.29 70.15 100.416ZM77.7743 111.373C79.1427 110.556 79.6987 109.228 80.3251 107.518C77.9295 106.842 75.7287 106.22 73.528 105.598C73.4077 105.758 73.2875 105.918 73.1673 106.078C74.5864 107.798 76.0055 109.517 77.7743 111.373Z" fill="white"/>
<path d="M51.6225 225.416C52.1193 225.598 52.6489 225.78 52.6956 226.047C52.8399 226.87 52.7713 227.728 52.8385 228.568C52.9374 229.804 52.3344 230.423 51.187 230.721C50.3008 230.952 49.448 231.31 48.5482 231.623C48.5482 233.748 48.5682 235.755 48.54 237.762C48.5254 238.802 49.139 239.258 49.999 239.559C50.9367 239.886 51.8688 240.23 52.8147 240.57C52.8147 242.152 52.8147 243.549 52.8147 245.167C51.9999 244.995 51.3484 244.922 50.7409 244.717C45.1524 242.84 39.5714 240.939 33.9884 239.045C31.6682 238.258 31.6606 238.257 31.5996 235.909C31.5758 234.991 31.5957 234.072 31.5957 232.891C38.2194 230.408 44.8269 227.932 51.6225 225.416ZM44.6237 236.422C44.5634 235.318 44.5032 234.214 44.4291 232.857C41.9189 233.95 39.5495 234.223 37.1062 235.662C39.4485 236.383 41.2754 236.951 43.1058 237.507C43.7859 237.714 44.4531 237.847 44.6237 236.422Z" fill="white"/>
<path d="M113.517 72.3026C111.566 67.0707 109.7 62.0181 107.764 56.7746C109.133 55.6057 110.454 54.4778 111.826 53.3066C118.317 57.1566 124.611 60.8902 131.313 64.8652C129.993 65.9589 129.05 66.8991 127.944 67.5743C127.538 67.8225 126.694 67.5683 126.147 67.3242C125.245 66.921 124.421 66.3399 123.486 65.788C121.561 67.4049 119.762 68.9168 117.93 70.4552C118.075 70.9538 118.175 71.3565 118.307 71.7485C119.507 75.3097 119.444 75.4597 115.556 77.651C114.894 75.9006 114.248 74.1912 113.517 72.3026ZM118.107 65.2291C118.678 64.6773 119.249 64.1254 120.01 63.3907C117.741 61.9743 115.804 60.7649 113.866 59.5555C113.724 59.6887 113.581 59.8218 113.439 59.9549C114.312 62.0901 115.184 64.2253 116.144 66.5734C116.906 66.0708 117.374 65.7621 118.107 65.2291Z" fill="white"/>
<path d="M266.588 19.4332C266.134 21.0969 265.262 21.731 263.702 21.3624C262.896 21.1716 262.059 21.1064 261.023 20.9529C261.249 20.2262 261.364 19.6783 261.584 19.1761C264.021 13.6072 266.47 8.04379 268.924 2.48245C269.838 0.409287 269.848 0.425729 272.061 0.511023C272.978 0.546349 273.898 0.516886 275.074 0.516886C277.095 7.81839 279.065 14.939 281.093 22.2692C279.29 22.2692 277.823 22.2692 276.202 22.2692C275.742 20.7791 275.325 19.4284 274.85 17.8898C273.119 17.6998 271.376 17.4511 269.623 17.3312C267.583 17.1917 267.58 17.2406 266.588 19.4332ZM270.577 13.5512C271.566 13.5512 272.554 13.5512 273.896 13.5512C273.379 11.0882 273.164 8.79063 271.874 6.24902C270.874 8.63774 270.079 10.4921 269.323 12.3621C269.005 13.1495 269.509 13.4214 270.577 13.5512Z" fill="white"/>
<path d="M160.585 334.139C165.948 338.375 171.158 342.515 176.424 346.583C178.155 347.92 178.222 347.833 177.581 349.843C176.846 352.15 176.112 354.456 175.292 357.034C174.457 356.674 173.815 356.513 173.305 356.16C170.046 353.907 166.771 351.671 163.607 349.289C162.795 348.677 162.153 347.638 161.79 346.663C160.056 342.008 158.441 337.31 156.8 332.622C156.64 332.165 156.591 331.668 156.438 330.938C158.433 331.403 159.158 333.091 160.585 334.139Z" fill="white"/>
<path d="M262.091 7.03713C261.842 8.21897 261.742 9.25842 261.347 10.1705C260.151 12.9348 257.716 13.7696 254.967 13.9401C253.626 14.0232 252.276 13.9545 250.881 13.9545C249.81 16.4604 250.953 18.9691 250.271 21.5017C248.866 21.5017 247.5 21.5017 245.756 21.5017C245.756 20.2015 245.768 19.0413 245.753 17.8816C245.689 12.8089 245.614 7.73632 245.547 2.66368C245.514 0.188161 245.52 0.173658 248.088 0.11951C250.2 0.0749473 252.318 0.145645 254.425 0.0185423C258.702 -0.239418 261.98 2.19892 262.091 7.03713ZM255.606 4.34764C253.877 4.09886 252.142 3.74003 250.532 4.48981C250.532 6.35605 250.532 8.07656 250.532 9.91327C251.936 9.91327 253.102 9.9501 254.264 9.90316C255.484 9.85392 256.714 9.63447 257.105 8.25443C257.512 6.81975 257.56 5.39042 255.606 4.34764Z" fill="white"/>
<path d="M380.439 490.947C380.439 490.947 380.244 490.834 380.248 490.536C379.348 488.288 378.403 486.372 376.33 485.365C376.33 485.365 376.15 485.258 376.166 484.969C375.602 483.532 375.274 482.173 373.762 481.812C373.762 481.812 373.588 481.728 373.61 481.456C373.188 480.712 372.743 480.24 372.298 479.768C372.298 479.768 372.104 479.666 372.109 479.372C371.114 477.199 370.148 475.293 368.186 474.186C368.186 474.186 368.009 474.087 368.026 473.796C367.585 471.359 367.639 471.289 369.942 470.793C370.748 471.325 371.414 471.764 372.079 472.204C372.225 472.305 372.37 472.405 372.582 472.811C373.383 473.626 374.058 474.287 374.867 474.607C375.792 474.973 376.666 474.575 377.36 473.817C378.083 473.029 378.698 472.257 377.861 471.188C377.838 470.945 377.815 470.702 377.963 470.181C378.048 469.316 377.962 468.729 377.875 468.141C377.844 467.746 377.814 467.35 377.921 466.687C377.969 466.18 377.878 465.941 377.787 465.701C377.609 465.792 377.43 465.882 377.251 465.972C373.852 465.982 370.452 465.992 366.823 465.719C366.594 464.375 366.594 463.314 366.594 462.144C373.133 462.144 379.334 462.144 385.931 462.144C385.707 463.52 385.514 464.705 385.321 465.889C385.095 465.924 384.868 465.958 384.338 465.834C382.88 465.492 382.833 466.273 382.829 467.075C382.819 469.004 382.9 470.937 382.793 472.86C382.615 476.066 380.922 477.656 377.741 477.82C377.282 477.844 376.829 478.002 376.152 478.144C376.899 480.24 377.769 481.93 379.693 482.866C379.693 482.866 379.862 482.943 379.84 483.225C380.554 484.702 381.263 485.916 382.051 487.077C382.179 487.266 382.649 487.224 382.96 487.289C382.96 487.289 382.813 487.413 382.847 487.537C383.211 488.444 383.54 489.226 384 490.32C382.621 490.563 381.53 490.755 380.439 490.947Z" fill="white"/>
<path d="M473.6 169.717C474.543 169.557 475.286 169.45 476.368 169.295C477.58 174.057 478.775 178.751 479.986 183.509C478.782 184.453 477.593 184.869 476.031 184.539C475.435 182.182 474.811 179.838 474.254 177.479C473.579 174.622 473.454 174.528 470.725 175.447C470.337 175.578 469.966 175.755 469.427 175.976C470.09 178.81 470.736 181.574 471.455 184.649C470.133 185.008 468.983 185.321 467.655 185.681C466.83 182.633 466.091 179.901 465.272 176.876C463.115 177.365 461.164 177.754 459.244 178.257C456.766 178.905 456.614 178.845 456.092 176.265C455.977 175.697 455.899 175.122 455.756 174.265C461.703 172.75 467.552 171.261 473.6 169.717Z" fill="white"/>
<path d="M226.814 378.135C221.629 377.016 216.661 375.925 211.773 374.197C212.709 371.549 213.484 369.248 214.336 366.977C214.911 365.446 215.277 365.25 216.814 365.615C221.965 366.838 227.109 368.097 232.252 369.352C232.488 369.409 232.7 369.566 233.073 369.751C233.073 372.782 233.073 375.858 233.073 379.215C230.943 378.857 228.982 378.527 226.814 378.135Z" fill="white"/>
<path d="M67.4794 130.319C62.8719 129.535 58.4831 128.781 54.179 128.042C54.0899 127.66 53.9749 127.467 54.0265 127.344C55.6162 123.554 55.6273 123.51 59.6604 124.283C62.7263 124.87 65.7651 125.598 68.8204 126.242C69.3544 126.355 69.9101 126.365 70.5896 126.201C67.4135 122.437 63.7312 119.243 60.167 115.583C60.8974 114.233 61.5937 112.946 62.4903 111.288C67.7647 116.902 72.7767 122.236 77.9142 127.704C77.1911 129.063 76.5354 130.295 75.8402 131.601C73.0155 131.167 70.3568 130.758 67.4794 130.319Z" fill="white"/>
<path d="M407.897 395.503C406.776 395.805 406.668 395.057 406.486 394.423C405.467 390.856 404.389 387.303 403.483 383.707C403.134 382.325 402.514 381.226 401.538 380.242C400.181 378.873 398.873 377.456 397.398 375.907C398.588 374.773 399.599 373.811 400.925 372.547C402.319 374.08 403.584 375.42 404.79 376.813C405.885 378.077 407.257 378.773 408.849 379.222C412.337 380.205 415.8 381.278 419.265 382.341C419.641 382.456 419.964 382.742 420.602 383.122C419.306 384.416 418.146 385.574 416.965 386.753C414.06 385.716 411.331 384.742 408.193 383.622C408.576 387.016 410.23 389.559 410.801 392.606C409.923 393.497 408.982 394.453 407.897 395.503Z" fill="white"/>
<path d="M474.349 204.288C471.451 204.688 468.779 205.071 466.104 205.432C464.689 205.623 463.269 205.774 461.492 205.986C461.196 204.44 460.925 203.028 460.617 201.421C466.547 200.543 472.102 199.72 477.675 198.894C477.466 196.673 477.288 194.772 477.087 192.632C478.492 192.455 479.617 192.314 480.976 192.143C481.802 197.937 482.595 203.502 483.429 209.358C482.032 209.54 480.912 209.686 479.441 209.877C479.104 207.818 478.797 205.941 478.441 203.767C477.166 203.93 475.87 204.096 474.349 204.288Z" fill="white"/>
<path d="M417.134 72.0007C416.081 70.8885 415.161 69.911 413.892 68.562C414.916 67.7453 415.819 67.025 416.986 66.0938C421.062 69.9782 424.847 74.2247 428.891 78.3023C427.917 79.4116 427.161 80.2733 426.249 81.3128C424.607 79.7076 423.239 78.3718 421.613 76.7829C417.468 80.7712 413.42 84.6655 409.298 88.6303C408.125 87.5303 407.161 86.6268 405.984 85.5245C409.833 81.1022 414.274 77.5858 418.138 73.3681C417.834 72.938 417.55 72.5367 417.134 72.0007Z" fill="white"/>
<path d="M295.193 2.93817C296.548 3.17629 297.683 3.40326 298.996 3.6658C298.843 4.93933 298.715 5.9985 298.584 7.09189C296.503 8.01875 294.55 6.52798 292.288 7.04362C291.588 12.5493 290.88 18.1099 290.131 23.9999C288.533 23.7491 287.166 23.5344 285.521 23.2763C286.185 17.4992 286.824 11.9286 287.478 6.23863C285.282 5.93106 283.402 5.66764 281.273 5.36949C281.455 3.92902 281.596 2.80813 281.777 1.37305C286.329 1.90911 290.651 2.41807 295.193 2.93817Z" fill="white"/>
<path d="M399.704 59.5449C396.602 63.2234 393.621 66.7605 390.462 70.5089C389.208 69.4783 388.14 68.6001 386.848 67.5376C390.525 63.118 394.06 58.8695 397.795 54.3805C396.293 52.9681 394.861 51.6216 393.222 50.081C394.009 49.1112 394.723 48.2302 395.63 47.1123C400.225 50.7427 404.515 54.4535 409.013 58.2849C408.112 59.3719 407.384 60.2504 406.495 61.3225C404.794 59.9773 403.243 58.751 401.588 57.4429C400.925 58.1811 400.375 58.7923 399.704 59.5449Z" fill="white"/>
<path d="M446.445 110.948C441.788 113.921 437.329 116.824 432.957 119.671C432.641 119.586 432.418 119.595 432.328 119.491C429.567 116.272 429.582 116.165 433.078 113.896C436.759 111.507 440.441 109.122 444.313 106.611C443.24 104.828 442.254 103.191 441.114 101.299C442.057 100.61 442.973 99.9405 443.849 99.3008C445.307 100.271 451.94 110.076 453.613 113.693C452.705 114.325 451.764 114.981 450.607 115.787C449.78 114.62 449.101 113.578 448.333 112.606C447.836 111.978 447.21 111.451 446.445 110.948Z" fill="white"/>
<path d="M109.915 84.3061C108.055 86.1481 106.32 87.8623 104.353 89.8064C99.3293 84.9528 94.3218 80.1149 89.1504 75.1188C90.2445 73.9433 91.1418 72.9793 92.2078 71.834C94.6992 73.4941 96.4954 75.735 98.5649 77.6543C100.599 79.541 102.583 81.4824 104.757 83.5611C107.103 81.0394 109.331 78.6449 111.744 76.0517C112.96 77.1284 113.861 77.9269 115.044 78.9749C113.273 80.8176 111.657 82.4979 109.915 84.3061Z" fill="white"/>
<path d="M326.26 28.6904C328.586 29.4991 330.719 30.2247 333.047 31.0164C332.629 32.3311 332.286 33.4134 331.906 34.6093C331.151 34.5199 330.562 34.5416 330.033 34.3727C326.426 33.2199 322.83 32.0311 319.233 30.8455C317.482 30.2682 317.441 30.2115 318.037 28.3368C319.848 22.6412 321.675 16.9506 323.512 11.2635C323.635 10.8836 323.9 10.5496 324.216 9.9834C325.528 10.4094 326.781 10.8165 328.293 11.3077C327.044 16.8237 324.879 21.9367 323.346 27.5386C324.264 27.8992 325.166 28.2533 326.26 28.6904Z" fill="white"/>
<path d="M440.09 319.019C440.573 318.015 440.873 316.975 442.166 317.635C448.028 320.628 453.884 323.634 460.024 326.779C459.357 328.163 458.755 329.412 457.989 331.004C452.904 328.441 447.963 325.951 442.794 323.345C440.764 326.119 439.752 329.401 437.727 332.407C436.576 331.813 435.501 331.258 434.182 330.577C436.184 326.656 438.093 322.918 440.09 319.019Z" fill="white"/>
<path d="M83.5781 89.9884C86.7354 92.5258 89.7492 94.9519 92.935 97.5163C95.1604 94.8168 97.2394 92.295 99.5268 89.5203C100.566 90.3488 101.508 91.1007 102.743 92.0853C99.5524 96.018 96.4968 99.7848 93.4751 103.51C91.6195 102.725 78.7395 92.4406 76.8301 90.2243C77.661 89.1791 78.5229 88.095 79.5394 86.8164C80.9538 87.9277 82.1942 88.9024 83.5781 89.9884Z" fill="white"/>
<path d="M317.984 465.943C317.788 464.741 317.787 463.611 318.028 462.254C321.767 462.027 325.264 462.027 328.932 462.027C328.932 463.563 328.932 464.727 328.932 465.89C328.222 465.932 327.513 465.974 326.467 465.857C324.474 465.964 324.934 467.282 324.929 468.272C324.896 474.856 324.912 481.44 324.913 488.024C324.913 488.922 324.913 489.82 324.913 490.945C323.234 490.945 321.904 490.945 320.573 490.945C320.522 488.767 320.432 486.589 320.426 484.411C320.41 478.611 320.429 472.812 320.575 466.694C320.748 465.591 320.469 465.427 319.849 465.942C319.293 465.966 318.737 465.991 317.984 465.943Z" fill="white"/>
<path d="M224.127 350.995C227.113 351.715 229.903 352.357 232.694 352.999C233.349 354.676 233.47 359.571 232.871 362.684C232.103 362.636 231.258 362.726 230.497 362.513C226.165 361.294 221.596 360.873 217.238 358.835C218.305 355.885 219.299 353.136 220.387 350.127C221.689 350.418 222.81 350.668 224.127 350.995Z" fill="white"/>
<path d="M398.53 465.883C397.985 465.926 397.441 465.969 396.569 465.839C395.143 465.447 394.668 466.034 394.568 467.02C394.509 467.605 394.538 468.201 394.538 468.792C394.537 475.21 394.543 481.629 394.533 488.047C394.531 488.946 394.455 489.845 394.408 490.851C393.197 490.851 392.233 490.851 390.948 490.851C390.948 489.795 390.948 488.892 390.948 487.99C390.948 481.487 390.948 474.984 390.945 468.481C390.945 467.806 391.013 467.113 390.885 466.46C390.721 465.624 390.211 465.334 389.451 465.945C388.742 465.966 388.032 465.987 387.118 465.723C386.914 464.382 386.914 463.326 386.914 462.206C390.953 462.206 394.666 462.206 398.53 462.206C398.53 463.561 398.53 464.722 398.53 465.883Z" fill="white"/>
<path d="M286.066 352.059C288.147 351.591 290.021 351.167 292.245 350.664C292.292 352.411 292.343 353.893 292.37 355.376C292.417 357.932 292.425 357.943 294.897 357.985C296.164 358.006 297.43 358.035 298.696 358.086C298.817 358.091 298.929 358.288 299.29 358.621C293.393 360.459 287.633 362.074 281.353 362.906C281.085 359.75 281.131 356.9 281.329 354.064C281.36 353.61 282.119 353.023 282.661 352.828C283.681 352.459 284.789 352.331 286.066 352.059Z" fill="white"/>
<path d="M364.81 361.636C360.761 364.882 356.753 367.869 352.213 370.696C352.06 369.734 351.902 369.187 351.897 368.638C351.872 365.941 351.848 363.241 351.902 360.544C351.933 358.987 352.552 358.084 353.846 358.06C358.619 357.974 363.395 358.026 368.569 358.026C367.533 359.785 366.1 360.513 364.81 361.636Z" fill="white"/>
<path d="M230.227 1.47754C230.777 1.85922 231.414 2.2066 231.47 2.6306C232.298 8.91239 233.051 15.2041 233.811 21.4948C233.84 21.7353 233.761 21.9889 233.693 22.5716C232.407 22.8092 231.047 23.0605 229.375 23.3694C228.207 16.2193 227.5 9.29067 226.705 2.16971C227.936 1.91496 228.99 1.69692 230.227 1.47754Z" fill="white"/>
<path d="M289.642 343.318C286.945 344.039 284.443 344.691 281.987 345.33C281.068 343.662 280.883 340.174 281.444 335.506C284.837 334.564 288.354 333.586 292.281 332.495C292.384 335.806 292.488 338.809 292.232 341.801C292.12 343.099 290.786 342.999 289.642 343.318Z" fill="white"/>
<path d="M341.703 39.3094C341.726 38.7445 341.731 38.3082 341.893 37.9411C344.311 32.4612 346.745 26.9886 349.191 21.5211C349.392 21.0724 349.705 20.6741 350.118 20.0078C351.432 20.5581 352.703 21.0899 354.277 21.7489C351.382 28.2775 348.594 34.5671 345.791 40.8885C344.147 41.011 343.01 40.0732 341.703 39.3094Z" fill="white"/>
<path d="M413.443 65.2706C409.062 69.9664 404.798 74.5356 400.328 79.3257C399.192 78.3165 398.158 77.398 396.855 76.2414C401.594 70.8974 406.388 65.8576 411.366 60.6055C412.542 61.6635 413.574 62.5915 414.693 63.5985C414.234 64.2247 413.897 64.6843 413.443 65.2706Z" fill="white"/>
<path d="M233.124 335.967C233.185 339.082 233.185 341.995 233.185 345.322C229.629 344.462 226.496 343.705 222.99 342.857C223.649 340.921 224.182 339.282 224.764 337.661C226.15 333.796 226.167 333.764 230.092 334.634C231.116 334.861 232.074 335.38 233.124 335.967Z" fill="white"/>
<path d="M398.724 465.949C398.53 464.722 398.53 463.561 398.53 462.205C394.666 462.205 390.954 462.205 386.914 462.205C386.914 463.325 386.914 464.382 386.917 465.653C386.516 465.925 386.111 465.981 385.514 465.963C385.514 464.705 385.707 463.52 385.931 462.144C379.335 462.144 373.133 462.144 366.594 462.144C366.594 463.314 366.594 464.375 366.596 465.653C366.034 465.936 365.471 466.004 364.704 466.002C365.131 464.807 366.187 463.772 365.033 461.962C357.168 461.962 349.073 461.962 340.732 461.909C341.086 461.681 341.684 461.354 342.282 461.354C356.898 461.353 371.514 461.391 386.131 461.415C391.269 461.424 396.408 461.417 401.832 461.417C401.958 458.918 401.237 456.465 402.881 454.301C402.891 456.575 402.739 458.942 402.565 461.634C402.044 461.792 401.208 462.046 400.109 462.379C400.109 463.349 400.109 464.408 400.117 465.681C399.722 465.936 399.32 465.975 398.724 465.949Z" fill="white"/>
<path d="M329.101 465.939C328.932 464.726 328.932 463.562 328.932 462.027C325.265 462.027 321.767 462.027 318.033 462.039C306.261 462.051 294.726 462.049 282.951 462.062C279.707 461.878 276.706 461.634 273.699 461.503C272.552 461.453 271.393 461.66 270.137 461.437C270.077 460.904 270.12 460.684 270.163 460.464C271.396 460.464 272.629 460.464 274.01 460.464C273.801 458.015 271.664 456.983 271.105 454.914C272.405 456.369 273.906 457.89 274.892 459.692C275.636 461.051 276.479 461.405 277.86 461.393C283.437 461.344 289.014 461.354 294.59 461.351C305.578 461.346 316.565 461.345 327.552 461.349C328.214 461.349 328.876 461.414 329.652 461.454C329.913 463.075 330.543 464.588 329.101 465.939Z" fill="white"/>
<path d="M215.85 457.732C213.972 457.802 212.309 457.802 210.441 457.802C210.441 455.731 210.441 453.849 210.441 451.745C212.383 451.745 214.324 451.745 216.422 451.745C216.44 453.799 217.014 455.758 215.85 457.732Z" fill="white"/>
<path d="M169.71 371.157C168.895 368.27 168.148 365.56 167.322 362.563C169.44 363.036 170.733 364.25 172.103 365.256C172.427 365.494 172.482 366.354 172.379 366.872C172.019 368.667 171.536 370.438 171.006 372.598C170.47 372.048 170.124 371.691 169.71 371.157Z" fill="white"/>
<path d="M424.123 453.603C423.582 453.524 422.876 453.409 422.43 453.005C418.794 449.715 414.409 449.283 409.9 449.958C408.35 450.19 406.924 451.401 405.499 452.261C404.794 452.688 404.221 453.333 403.418 453.891C403.855 451.946 405.521 451.004 407.129 450.158C411.733 447.738 416.274 448.39 420.635 450.872C421.869 451.574 422.935 452.572 424.123 453.603Z" fill="white"/>
<path d="M369.239 345.434C369.475 349.138 369.548 352.97 369.619 357.038C369.361 357.126 368.881 356.977 368.883 356.832C368.917 353.075 369.001 349.319 369.239 345.434Z" fill="white"/>
<path d="M411.428 465.97C411.242 464.609 411.249 463.316 411.444 461.746C412.023 461.511 412.416 461.551 412.808 461.591C412.81 462.883 412.812 464.175 412.82 465.68C412.425 465.942 412.023 465.989 411.428 465.97Z" fill="white"/>
<path d="M257.972 465.921C257.802 464.587 257.807 463.329 257.982 461.795C258.389 461.544 258.627 461.571 258.864 461.598C258.867 462.882 258.869 464.166 258.877 465.662C258.636 465.915 258.391 465.957 257.972 465.921Z" fill="white"/>
<path d="M340.341 461.955C340.561 463.02 340.636 464.181 340.706 465.553C340.496 465.495 340.131 465.233 340.119 464.956C340.079 463.991 340.161 463.02 340.341 461.955Z" fill="white"/>
<path d="M412.162 453.173C411.014 453.904 409.757 454.497 408.336 455.138C408.438 454.725 408.601 454.016 408.992 453.851C409.957 453.446 411.026 453.291 412.162 453.173Z" fill="white"/>
<path d="M417.357 454.14C416.283 454.073 415.185 453.828 413.951 453.458C415.208 452.314 416.245 453.282 417.357 454.14Z" fill="white"/>
<path d="M406.82 457.443C407.035 458.126 407.086 458.855 407.082 459.798C405.754 459.341 406.039 458.44 406.82 457.443Z" fill="white"/>
<path d="M264.43 454.637C263.176 454.42 261.898 454.029 260.496 453.506C262.055 452.483 263.218 453.518 264.43 454.637Z" fill="white"/>
<path d="M252.948 456.949C253.163 457.957 253.197 459.01 253.184 460.285C252.007 459.421 251.939 458.786 252.948 456.949Z" fill="white"/>
<path d="M268.922 458.485C268.232 458.061 267.571 457.445 266.863 456.665C268.073 456.448 268.679 457.171 268.922 458.485Z" fill="white"/>
<path d="M254.204 454.957C254.166 455.316 253.932 455.676 253.549 456.106C253.603 455.77 253.806 455.364 254.204 454.957Z" fill="white"/>
<path d="M257.775 453.26C257.582 453.517 257.328 453.65 256.93 453.735C257.095 453.503 257.405 453.319 257.775 453.26Z" fill="white"/>
<path d="M213.459 14.94C213.733 13.2911 213.985 11.8471 214.327 9.88965C215.993 12.3161 216.943 14.4542 218.056 16.9223C216.4 17.1783 215.119 17.3761 213.438 17.636C213.438 16.6847 213.437 15.9148 213.459 14.94Z" fill="#D2D3D3"/>
<path d="M50.9306 173.08C48.7993 171.991 46.8202 170.789 44.6406 169.465C46.5796 168.642 49.6005 168.568 52.2509 169.198C51.859 170.462 51.4709 171.714 50.9306 173.08Z" fill="#D2D3D3"/>
<path d="M77.6002 111.305C76.0062 109.517 74.5871 107.798 73.168 106.079C73.2882 105.919 73.4084 105.759 73.5287 105.599C75.7294 106.22 77.9301 106.842 80.3258 107.519C79.6994 109.228 79.1434 110.556 77.6002 111.305Z" fill="#D2D3D3"/>
<path d="M44.6188 236.634C44.4543 237.847 43.7871 237.714 43.107 237.508C41.2767 236.951 39.4497 236.384 37.1074 235.663C39.5507 234.223 41.9201 233.951 44.4304 232.857C44.5045 234.215 44.5647 235.319 44.6188 236.634Z" fill="#D2D3D3"/>
<path d="M117.973 65.3414C117.373 65.7623 116.905 66.071 116.143 66.5735C115.183 64.2255 114.31 62.0903 113.438 59.9551C113.58 59.8219 113.723 59.6888 113.865 59.5557C115.802 60.765 117.739 61.9744 120.008 63.3909C119.248 64.1255 118.677 64.6774 117.973 65.3414Z" fill="#D2D3D3"/>
<path d="M270.38 13.5397C269.511 13.4214 269.006 13.1495 269.325 12.3621C270.081 10.4921 270.875 8.63774 271.875 6.24902C273.166 8.79063 273.38 11.0882 273.897 13.5512C272.556 13.5512 271.567 13.5512 270.38 13.5397Z" fill="#D2D3D3"/>
</svg>
